<svg width="3212" height="956" viewBox="0 0 3212 956" fill="none" xmlns="http://www.w3.org/2000/svg">
<path fill-rule="evenodd" clip-rule="evenodd" d="M158.152 911.065L158.331 911.172L158.512 911.275C207.794 939.436 262.756 953.354 322.881 953.354C383.003 953.354 437.663 939.437 486.294 911.199L486.408 911.133L486.521 911.065C534.737 882.292 572.956 843.298 600.939 794.371C629.885 745.039 644.172 689.659 644.172 628.798V132.519C644.172 111.016 637.444 91.6472 622.492 76.6945C607.539 61.7417 588.17 55.0142 566.667 55.0142C545.573 55.0142 526.656 61.9173 511.388 76.1676L511.111 76.4263L510.843 76.6945C495.89 91.6472 489.162 111.016 489.162 132.519V372.911C471.16 357.978 451.231 345.265 429.422 334.782C389.964 315.084 347.081 305.33 301.115 305.33C244.272 305.33 192.634 319.787 146.826 348.978C101.376 377.216 65.4334 416.019 39.0564 464.895L39.0262 464.95L38.9964 465.006C13.1574 513.552 0.501953 568.33 0.501953 628.798C0.501953 689.595 14.3948 744.931 42.5805 794.256L42.6454 794.369L42.7116 794.482C71.4068 843.341 109.953 882.301 158.152 911.065ZM410.259 471.144L410.429 471.25L410.6 471.353C436.182 486.702 456.324 507.741 471.188 534.885C485.885 561.723 493.516 592.832 493.516 628.798C493.516 663.954 485.919 695.167 471.085 722.901C456.179 750.769 436 772.499 410.431 788.52C385.183 803.627 356.207 811.404 322.881 811.404C290.41 811.404 261.357 803.686 235.232 788.458C209.674 772.422 189.118 750.654 173.497 722.728C158.723 695.037 151.158 663.881 151.158 628.798C151.158 592.91 158.756 561.858 173.391 535.059C188.994 507.817 209.549 486.721 235.162 471.353L235.229 471.313L235.296 471.272C261.448 455.326 290.47 447.28 322.881 447.28C356.109 447.28 385.017 455.368 410.259 471.144ZM926.05 912.437L926.227 912.536L926.405 912.632C977.153 939.958 1034.51 953.354 1097.91 953.354C1134 953.354 1171.2 946.685 1209.41 933.703C1248.19 920.769 1281.37 903.762 1308.43 882.313C1325.2 869.418 1335.48 851.701 1334.28 830.007C1333.14 809.641 1322.82 792.534 1307.28 778.816L1307.1 778.665L1306.93 778.518C1293.09 766.807 1276.45 761.562 1258.37 762.431C1241.15 762.564 1225.26 768.309 1211.14 778.66L1211.05 778.73L1210.95 778.801C1198.75 787.953 1181.71 796.821 1159.14 805.043C1138.08 812.263 1117.7 815.757 1097.91 815.757C1059.87 815.757 1027.06 807.449 998.855 791.421C970.252 775.169 948.059 753.259 931.911 725.485C925.436 714.347 920.231 702.524 916.33 689.978H1302.51C1321.78 689.978 1339.32 684.037 1353.35 671.083L1353.67 670.785L1353.99 670.474C1367.7 656.764 1374.58 639.493 1374.58 620.091C1374.58 598.956 1373.17 578.591 1370.31 559.021L1370.47 558.911H1370.3C1365.04 522.921 1354.9 489.621 1339.7 459.169C1316.9 411.297 1283.26 373.617 1238.96 346.69C1194.27 318.793 1141.49 305.33 1081.58 305.33C1020.85 305.33 966.149 319.198 918.151 347.495C870.385 374.93 832.772 413.403 805.506 462.482L805.477 462.535L805.448 462.588C778.735 511.299 765.734 567.287 765.734 629.886C765.734 692.029 779.58 748.113 807.813 797.521L807.916 797.701L808.022 797.88C836.869 846.218 876.329 884.469 926.05 912.437ZM928.393 532.706C941.873 504.463 961.186 482.693 986.485 466.855C1012.17 451.225 1043.56 442.927 1081.58 442.927C1114.41 442.927 1140.85 450.439 1162.01 464.344C1183.84 478.69 1200.83 498.361 1212.99 523.962L1213.04 524.06L1213.08 524.158C1218.35 534.974 1222.59 546.546 1225.77 558.911H917.925C920.798 549.836 924.263 541.165 928.307 532.884L928.351 532.795L928.393 532.706ZM1622.82 717.244L1652.41 690.838L1844.91 928.863L1844.93 928.882L1844.94 928.902C1857.82 944.751 1874.84 954.256 1895.17 955.47C1915.42 957.369 1934.04 951.515 1949.9 938.633L1949.95 938.587L1950.01 938.541C1965.81 925.526 1976.25 908.781 1977.55 888.503C1979.5 868.618 1973.4 850.379 1960.72 834.767L1763.33 591.834L1947.59 427.382L1947.77 427.215C1962.18 413.763 1971.05 397.044 1972.14 377.525C1973.24 357.763 1965.84 340.218 1952.38 325.672C1939.27 310.688 1922.27 302.062 1902.38 301.009C1882.59 299.92 1865.02 307.355 1850.46 320.863L1622.82 524.038V130.342C1622.82 109.553 1616.07 90.8609 1601.15 76.6868C1586.97 61.7666 1568.28 55.0142 1547.49 55.0142C1526.4 55.0142 1507.51 61.9343 1492.75 76.6945C1478.4 91.0471 1472.16 109.775 1472.16 130.342V873.672C1472.16 894.285 1478.41 912.979 1492.19 927.822L1492.74 928.419L1493.34 928.973C1508.18 942.756 1526.88 949 1547.49 949C1568.06 949 1586.79 942.761 1601.14 928.408C1615.9 913.648 1622.82 894.758 1622.82 873.672V717.244ZM2242.7 386.1C2243.33 385.538 2243.97 384.979 2244.61 384.423C2243.97 384.979 2243.33 385.538 2242.7 386.1ZM2244.62 872.584V554.791C2244.62 526.558 2253.3 504.711 2269.87 487.505C2288.01 469.419 2313.24 456.239 2346.98 448.962C2380.3 441.775 2418.78 442.216 2462.85 451.139C2474.55 453.803 2486.21 454.428 2497.55 452.367C2509.23 450.243 2519.83 445.319 2528.78 437.483L2528.85 437.427L2528.91 437.37C2539.45 428.002 2545.76 415.707 2548.77 402.04C2552.38 387.722 2551.27 373.31 2544.58 359.936C2538.12 347.018 2527.33 336.777 2514.45 328.563C2487.98 310.474 2450.45 303.153 2405.46 303.153C2358.35 303.153 2314.71 314.189 2275 336.432C2262.96 343.172 2251.64 350.661 2241.04 358.893C2237.88 348.07 2232.45 338.264 2224.04 330.269C2209.72 315.201 2189.59 309.683 2168.2 309.683C2146.81 309.683 2127.09 315.569 2112.38 330.275C2097.67 344.982 2091.79 364.707 2091.79 386.1V872.584C2091.79 894.404 2097.51 914.631 2112.38 929.497L2112.69 929.808L2113.01 930.106C2127.77 943.73 2147.26 949 2168.2 949C2189.73 949 2210 943.405 2224.34 928.099C2238.82 913.425 2244.62 893.827 2244.62 872.584ZM2747.75 920.112L2747.96 920.229L2748.18 920.341C2791.58 943.226 2840.15 954.442 2893.39 954.442C2945.24 954.442 2992.16 943.196 3033.54 920.136C3043.53 914.667 3053.02 908.709 3062 902.266C3065.51 911.176 3070.68 919.401 3077.56 926.775L3078.08 927.329L3078.63 927.847C3093.9 942.097 3112.82 949 3133.91 949C3155.41 949 3174.78 942.273 3189.74 927.32L3190 927.052L3190.26 926.775C3204.51 911.507 3211.42 892.59 3211.42 871.495V386.1C3211.42 364.597 3204.69 345.228 3189.74 330.275C3174.78 315.323 3155.41 308.595 3133.91 308.595C3112.82 308.595 3093.9 315.498 3078.63 329.749L3078.35 330.007L3078.09 330.275C3063.13 345.228 3056.41 364.597 3056.41 386.1V693.009C3056.41 714.772 3050.45 733.977 3038.53 751.26C3026.29 769.007 3009.65 783.327 2988.03 794.136L2987.91 794.196L2987.79 794.256C2967.43 804.749 2943.41 810.315 2915.16 810.315C2885.43 810.315 2859.39 804.734 2836.62 794.026C2814.61 782.967 2797.15 766.502 2784.03 744.069C2771.22 721.434 2764.11 691.756 2764.11 653.829V386.1C2764.11 364.787 2756.67 345.931 2741.35 331.358C2726.78 316.041 2707.92 308.595 2686.61 308.595C2665.05 308.595 2645.96 316.187 2630.78 331.364C2616.02 346.124 2609.1 365.014 2609.1 386.1V653.829C2609.1 716.722 2620.84 771.347 2645.51 816.706L2645.58 816.836L2645.66 816.965C2670.75 861.659 2704.8 896.249 2747.75 920.112ZM2864.25 237.861L2864.76 238.416L2865.32 238.934C2880.59 253.184 2899.5 260.087 2920.6 260.087C2941.28 260.087 2959.69 252.96 2974.25 238.407L3079.34 133.309C3087.44 126.07 3093.63 117.243 3097.1 106.826C3100.06 97.9342 3101.49 88.6826 3101.49 79.1908C3101.49 58.0969 3094.59 39.1798 3080.34 23.9116C3065.5 8.00757 3045.96 0.597656 3023.99 0.597656C3002.85 0.597656 2984.22 8.40423 2969.25 23.3662L2862.29 130.334L2861.99 130.657C2848.85 144.893 2843.09 162.912 2843.09 182.582C2843.09 203.676 2850 222.593 2864.25 237.861Z" fill="white"/>
</svg>
