<svg width="236" height="71" viewBox="0 0 236 71" fill="none" xmlns="http://www.w3.org/2000/svg">
<path fill-rule="evenodd" clip-rule="evenodd" d="M42.6621 57.4362C44.632 54.082 45.6169 50.302 45.6169 46.0961V9.68013C45.6169 8.45562 45.2443 7.47069 44.4989 6.72533C43.7535 5.97997 42.7686 5.6073 41.5441 5.6073C40.3728 5.6073 39.3879 5.97997 38.5893 6.72533C37.8439 7.47069 37.4713 8.45562 37.4713 9.68013V31.2422C36.9663 30.6184 36.4282 30.032 35.8569 29.4828C34.3804 28.0632 32.6825 26.8928 30.7631 25.9715C28.1011 24.6405 25.1995 23.975 22.0584 23.975C18.1719 23.975 14.6847 24.9599 11.5968 26.9298C8.50886 28.8464 6.05983 31.4818 4.24968 34.8359C2.49277 38.1368 1.61432 41.8902 1.61432 46.0961C1.61432 50.302 2.57263 54.082 4.48926 57.4362C6.45913 60.7903 9.0945 63.4522 12.3954 65.4221C15.7495 67.3387 19.5029 68.2971 23.6556 68.2971C27.8083 68.2971 31.535 67.3387 34.8359 65.4221C38.1368 63.4522 40.7455 60.7903 42.6621 57.4362ZM23.6556 61.1097C26.3708 61.1097 28.7932 60.4708 30.9228 59.1931C33.0524 57.8621 34.7294 56.0519 35.9539 53.7626C37.1784 51.4733 37.7907 48.9178 37.7907 46.0961C37.7907 43.2212 37.1784 40.6656 35.9539 38.4296C34.7294 36.1935 33.0524 34.4366 30.9228 33.1588C28.7932 31.8279 26.3708 31.1624 23.6556 31.1624C20.9936 31.1624 18.5712 31.8279 16.3883 33.1588C14.2587 34.4366 12.5551 36.1935 11.2773 38.4296C10.0528 40.6656 9.44055 43.2212 9.44055 46.0961C9.44055 48.9178 10.0528 51.4733 11.2773 53.7626C12.5551 56.0519 14.2587 57.8621 16.3883 59.1931C18.5712 60.4708 20.9936 61.1097 23.6556 61.1097Z" fill="white"/>
<path fill-rule="evenodd" clip-rule="evenodd" d="M67.9279 66.9163L67.9149 66.909C64.2665 64.8567 61.371 62.05 59.2543 58.503L59.2465 58.4899L59.2389 58.4767C57.1672 54.8512 56.1512 50.7359 56.1512 46.176C56.1512 41.5826 57.1052 37.4743 59.0653 33.9L59.0675 33.8961L59.0696 33.8922C61.0704 30.2908 63.8303 27.4678 67.3353 25.4547C70.8573 23.3783 74.8708 22.3607 79.3276 22.3607C83.7234 22.3607 87.5961 23.3485 90.8755 25.3956C94.1261 27.3714 96.5947 30.1363 98.2679 33.649C99.3832 35.8836 100.127 38.3271 100.513 40.968H100.526L100.514 40.976C100.723 42.4121 100.827 43.9064 100.827 45.4572C100.827 46.8809 100.322 48.1482 99.316 49.1542L99.2932 49.177L99.2695 49.1989C98.2397 50.1494 96.9527 50.5854 95.5391 50.5854H67.2016C67.4879 51.506 67.8698 52.3735 68.345 53.1908C69.5299 55.2288 71.1584 56.8365 73.2572 58.0291C75.3272 59.2052 77.7345 59.8148 80.5255 59.8148C81.9776 59.8148 83.473 59.5584 85.0185 59.0286C86.6747 58.4253 87.9252 57.7746 88.8207 57.103L88.8276 57.0978L88.8346 57.0927C89.8703 56.3331 91.0361 55.9116 92.2998 55.9019C93.6264 55.8381 94.8476 56.2229 95.8632 57.0823L95.8759 57.0931L95.8885 57.1041C97.0293 58.1108 97.7867 59.366 97.8697 60.8604C97.9581 62.4523 97.2041 63.7523 95.973 64.6985C93.9879 66.2725 91.5529 67.5204 88.707 68.4694C85.9037 69.4221 83.1738 69.9114 80.5255 69.9114C75.8732 69.9114 71.6648 68.9284 67.941 66.9233L67.9279 66.9163ZM88.1921 66.9394C90.9073 66.0344 93.17 64.8631 94.9801 63.4256C95.8852 62.7335 96.3111 61.9083 96.2579 60.95C96.2046 59.9917 95.7255 59.1132 94.8204 58.3146C94.1283 57.729 93.3031 57.4628 92.3447 57.516C91.4397 57.516 90.5878 57.8088 89.7892 58.3945C88.7244 59.1931 87.3136 59.9118 85.5567 60.5507C83.853 61.1363 82.176 61.4291 80.5255 61.4291C77.4909 61.4291 74.8023 60.7636 72.4597 59.4326C70.1172 58.1016 68.2804 56.2915 66.9494 54.0022C66.3277 52.9329 65.8513 51.794 65.52 50.5854C65.3761 50.0604 65.2596 49.5223 65.1704 48.971H95.5391C96.6039 48.971 97.4824 48.6516 98.1745 48.0127C98.8666 47.3206 99.2127 46.4688 99.2127 45.4572C99.2127 44.2629 99.1483 43.1094 99.0195 41.9967C98.9794 41.6498 98.933 41.3069 98.8803 40.968C98.507 38.565 97.8192 36.3613 96.8169 34.3567C95.2729 31.1091 93.0103 28.5802 90.0288 26.7701C87.0474 24.9067 83.4803 23.975 79.3276 23.975C75.1217 23.975 71.3949 24.9333 68.1473 26.8499C64.8997 28.7133 62.3442 31.3221 60.4808 34.6762C58.6706 37.977 57.7656 41.8103 57.7656 46.176C57.7656 50.4884 58.7239 54.3216 60.6405 57.6757C62.6104 60.9766 65.299 63.5853 68.7063 65.502C72.1669 67.3654 76.1066 68.2971 80.5255 68.2971C82.9746 68.2971 85.5301 67.8445 88.1921 66.9394ZM65.6337 40.968C65.4856 41.4922 65.3616 42.0304 65.2618 42.5823H91.8589C91.7857 42.0298 91.6889 41.4917 91.5686 40.968C91.3031 39.8122 90.9229 38.7265 90.4281 37.7108C89.4166 35.5812 87.9791 33.9042 86.1157 32.6797C84.2523 31.4552 81.9896 30.8429 79.3276 30.8429C76.293 30.8429 73.6842 31.5084 71.5014 32.8394C69.3718 34.1704 67.748 36.0072 66.63 38.3497C66.2243 39.1804 65.8922 40.0531 65.6337 40.968ZM72.3495 34.213C70.4931 35.3752 69.076 36.9726 68.0869 39.0451L68.0837 39.0516L68.0806 39.0581C67.7838 39.6658 67.5295 40.302 67.3187 40.968H89.9074C89.6747 40.0606 89.3635 39.2115 88.9769 38.4179L88.9734 38.4107L88.97 38.4035C88.0776 36.5249 86.8311 35.0815 85.2292 34.0288C83.6765 33.0085 81.7366 32.4572 79.3276 32.4572C76.5373 32.4572 74.2339 33.0662 72.3495 34.213ZM117.428 51.8632V64.0645C117.428 65.2358 117.055 66.1941 116.31 66.9394C115.618 67.6316 114.686 67.9776 113.515 67.9776C112.344 67.9776 111.385 67.6316 110.64 66.9394C109.948 66.1941 109.602 65.2358 109.602 64.0645V9.52041C109.602 8.34914 109.948 7.41745 110.64 6.72533C111.385 5.97997 112.344 5.6073 113.515 5.6073C114.686 5.6073 115.618 5.97997 116.31 6.72533C117.055 7.41745 117.428 8.34914 117.428 9.52041V42.0136L136.834 24.6937C137.633 23.9484 138.511 23.6023 139.469 23.6556C140.481 23.7088 141.333 24.1347 142.025 24.9333C142.77 25.7319 143.116 26.6104 143.063 27.5687C143.01 28.527 142.584 29.3788 141.785 30.1242L127.128 43.2056L142.584 62.2277C143.276 63.0796 143.569 64.0113 143.462 65.0228C143.409 65.9811 142.93 66.833 142.025 67.5783C141.173 68.2704 140.215 68.5633 139.15 68.4568C138.138 68.4035 137.287 67.951 136.594 67.0992L121.403 48.3156L117.428 51.8632ZM121.213 50.6485L119.042 52.5861V64.0645C119.042 65.6118 118.535 66.9979 117.452 68.0809C116.398 69.1341 115.024 69.5919 113.515 69.5919C112.002 69.5919 110.631 69.1338 109.542 68.1224L109.498 68.0817L109.457 68.0379C108.446 66.9488 107.988 65.5771 107.988 64.0645V9.52041C107.988 8.01119 108.445 6.63701 109.499 5.58384C110.582 4.50076 111.968 3.99298 113.515 3.99298C115.04 3.99298 116.412 4.48846 117.452 5.58327C118.547 6.62334 119.042 7.99494 119.042 9.52041V38.4091L135.747 23.5004C136.815 22.5093 138.104 21.9637 139.556 22.0436C141.016 22.1209 142.263 22.7538 143.225 23.8533C144.212 24.9207 144.755 26.2081 144.675 27.6582C144.595 29.0905 143.944 30.3173 142.887 31.3043L142.874 31.3166L129.353 43.3837L143.837 61.2098C144.768 62.3553 145.215 63.6937 145.072 65.1527C144.977 66.6407 144.211 67.8695 143.051 68.8245L143.047 68.8279L143.043 68.8312C141.879 69.7765 140.513 70.206 139.027 70.0667C137.535 69.9776 136.286 69.2801 135.342 68.1171L135.34 68.1157L135.339 68.1143L121.213 50.6485ZM163.055 40.6656V63.9846C163.055 65.2624 162.709 66.2473 162.017 66.9394C161.378 67.6316 160.393 67.9776 159.062 67.9776C157.784 67.9776 156.799 67.6582 156.107 67.0193C155.415 66.3272 155.069 65.3156 155.069 63.9846V28.2874C155.069 27.0097 155.415 26.0247 156.107 25.3326C156.799 24.6405 157.784 24.2944 159.062 24.2944C160.393 24.2944 161.378 24.6405 162.017 25.3326C162.563 25.8365 162.893 26.5558 163.008 27.4904C163.039 27.7406 163.055 28.0063 163.055 28.2874V29.7627C163.516 29.2411 164.007 28.7493 164.528 28.2874L164.603 28.2213L164.668 28.1643C165.584 27.3697 166.59 26.6654 167.687 26.0513C170.349 24.5606 173.277 23.8153 176.471 23.8153C179.666 23.8153 182.035 24.3477 183.579 25.4125C185.176 26.424 185.788 27.6485 185.415 29.086C185.256 29.8314 184.936 30.417 184.457 30.8429C184.031 31.2156 183.525 31.4552 182.94 31.5617C182.354 31.6681 181.715 31.6415 181.023 31.4818C177.616 30.7897 174.555 30.7364 171.839 31.3221C169.124 31.9077 166.968 32.9991 165.371 34.5963C165.116 34.86 164.882 35.1353 164.669 35.4223C163.593 36.8732 163.055 38.621 163.055 40.6656ZM164.669 40.6656V63.9846C164.669 65.5435 164.243 66.9815 163.181 68.0582C162.128 69.1814 160.642 69.5919 159.062 69.5919C157.525 69.5919 156.095 69.2052 155.012 68.2055L154.988 68.1836L154.965 68.1608C153.875 67.07 153.454 65.5857 153.454 63.9846V28.2874C153.454 26.7176 153.886 25.2703 154.965 24.1911C156.045 23.112 157.492 22.6801 159.062 22.6801C160.631 22.6801 162.108 23.085 163.159 24.1906C163.776 24.7773 164.175 25.4968 164.407 26.291C165.184 25.687 166.015 25.1374 166.898 24.6428C169.812 23.0107 173.014 22.201 176.471 22.201C179.772 22.201 182.526 22.7381 184.469 24.0655C185.413 24.6682 186.206 25.4196 186.68 26.3676C187.17 27.3489 187.252 28.4064 186.987 29.4571C186.766 30.4599 186.303 31.3621 185.53 32.0495L185.525 32.0537L185.52 32.0578C184.863 32.6328 184.086 32.9941 183.229 33.1499C182.397 33.3012 181.54 33.2553 180.682 33.0599C177.448 32.4051 174.625 32.3728 172.18 32.9001C169.704 33.4341 167.853 34.4012 166.522 35.7283C165.306 36.9909 164.669 38.5939 164.669 40.6656ZM201.603 67.4807L201.588 67.4722C198.436 65.7212 195.937 63.183 194.096 59.9035L194.091 59.894L194.086 59.8845C192.276 56.5561 191.414 52.5478 191.414 47.9329V28.2874C191.414 26.7401 191.922 25.3541 193.005 24.271C194.119 23.1573 195.519 22.6003 197.101 22.6003C198.665 22.6003 200.049 23.1466 201.118 24.2705C202.242 25.3399 202.788 26.7235 202.788 28.2874V47.9329C202.788 50.7159 203.31 52.8936 204.25 54.5545C205.212 56.2006 206.493 57.4088 208.109 58.2202C209.779 59.0059 211.69 59.4155 213.872 59.4155C215.945 59.4155 217.707 59.0071 219.202 58.2371L219.21 58.2327L219.219 58.2283C220.805 57.4351 222.026 56.3844 222.924 55.0822C223.799 53.814 224.236 52.4047 224.236 50.8078V28.2874C224.236 26.7096 224.73 25.2883 225.827 24.1911L225.847 24.1714L225.867 24.1524C226.987 23.1068 228.376 22.6003 229.923 22.6003C231.501 22.6003 232.923 23.0939 234.02 24.1911C235.117 25.2883 235.611 26.7096 235.611 28.2874V63.9048C235.611 65.4526 235.104 66.8407 234.058 67.9611L234.039 67.9814L234.02 68.0011C232.923 69.0983 231.501 69.5919 229.923 69.5919C228.376 69.5919 226.987 69.0854 225.867 68.0397L225.826 68.0018L225.788 67.9611C225.283 67.42 224.904 66.8165 224.647 66.1627C223.988 66.6355 223.291 67.0726 222.559 67.474C219.522 69.166 216.079 69.9912 212.274 69.9912C208.368 69.9912 204.804 69.1683 201.619 67.489L201.603 67.4807ZM221.778 66.061C222.665 65.5757 223.491 65.0352 224.257 64.4395C224.48 64.2659 224.698 64.0877 224.911 63.9048C225.236 63.6253 225.549 63.3349 225.851 63.0336V63.9048C225.851 64.3276 225.899 64.7262 225.996 65.1005C226.168 65.7629 226.492 66.3493 226.969 66.8596C227.767 67.6049 228.752 67.9776 229.923 67.9776C231.148 67.9776 232.133 67.6049 232.878 66.8596C233.624 66.061 233.996 65.0761 233.996 63.9048V28.2874C233.996 27.0629 233.624 26.078 232.878 25.3326C232.133 24.5873 231.148 24.2146 229.923 24.2146C228.752 24.2146 227.767 24.5873 226.969 25.3326C226.223 26.078 225.851 27.0629 225.851 28.2874V50.8078C225.851 52.7244 225.318 54.4547 224.253 55.9987L224.236 56.0234C223.173 57.5557 221.741 58.772 219.941 59.6722C218.184 60.5773 216.161 61.0298 213.872 61.0298C211.476 61.0298 209.32 60.5773 207.403 59.6722C205.486 58.7139 203.969 57.2764 202.851 55.3598C201.733 53.3899 201.174 50.9143 201.174 47.9329V28.2874C201.174 27.1161 200.775 26.1578 199.976 25.4125C199.231 24.6139 198.272 24.2146 197.101 24.2146C195.93 24.2146 194.945 24.6139 194.146 25.4125C193.401 26.1578 193.028 27.1161 193.028 28.2874V47.9329C193.028 52.3518 193.854 56.0785 195.504 59.1132C197.208 62.1479 199.497 64.4638 202.372 66.061C205.3 67.6049 208.601 68.3769 212.274 68.3769C215.842 68.3769 219.009 67.6049 221.778 66.061ZM210.174 17.4506L210.136 17.41C209.09 16.2896 208.584 14.9015 208.584 13.3537C208.584 11.9103 209.006 10.5881 209.97 9.54349L209.992 9.51977L217.841 1.67071C218.939 0.572831 220.307 0 221.858 0C223.47 0 224.903 0.543725 225.993 1.71073C227.038 2.83108 227.545 4.21918 227.545 5.76701C227.545 6.4635 227.44 7.14237 227.222 7.79484C226.968 8.5592 226.513 9.20689 225.919 9.7381L218.208 17.45C217.14 18.5179 215.788 19.0408 214.271 19.0408C212.723 19.0408 211.335 18.5343 210.215 17.4886L210.174 17.4506ZM224.812 8.5621C225.238 8.18942 225.531 7.7635 225.691 7.28434C225.851 6.80519 225.93 6.29941 225.93 5.76701C225.93 4.59574 225.558 3.6108 224.812 2.81221C224.067 2.01361 223.082 1.61432 221.858 1.61432C220.74 1.61432 219.781 2.01361 218.983 2.81221L211.156 10.6384C210.518 11.3306 210.198 12.2356 210.198 13.3537C210.198 14.5249 210.571 15.5099 211.316 16.3085C212.115 17.0538 213.1 17.4265 214.271 17.4265C215.389 17.4265 216.321 17.0538 217.066 16.3085L224.812 8.5621Z" fill="white"/>
<path fill-rule="evenodd" clip-rule="evenodd" d="M11.5681 66.8083L11.5812 66.8162L11.5944 66.8237C15.2107 68.8902 19.2437 69.9114 23.6556 69.9114C28.0672 69.9114 32.078 68.8902 35.6465 66.8182L35.6549 66.8133L35.6632 66.8083C39.2011 64.697 42.0055 61.8357 44.0589 58.2456C46.1829 54.6256 47.2313 50.562 47.2313 46.0961V9.68013C47.2313 8.10231 46.7376 6.68104 45.6404 5.58384C44.5432 4.48663 43.1219 3.99298 41.5441 3.99298C39.9963 3.99298 38.6082 4.49952 37.4878 5.54518L37.4675 5.56416L37.4478 5.58384C36.3506 6.68104 35.8569 8.10231 35.8569 9.68013V27.3196C34.5359 26.2239 33.0736 25.291 31.4734 24.5218C28.578 23.0764 25.4313 22.3607 22.0584 22.3607C17.8874 22.3607 14.0983 23.4215 10.737 25.5635C7.40196 27.6355 4.76454 30.4828 2.82905 34.0692L2.82684 34.0733L2.82465 34.0774C0.928629 37.6396 0 41.6591 0 46.0961C0 50.5573 1.01943 54.6177 3.08764 58.2371L3.0924 58.2454L3.09726 58.2537C5.20286 61.8389 8.03128 64.6977 11.5681 66.8083ZM45.6169 46.0961C45.6169 50.302 44.632 54.082 42.6621 57.4362C40.7455 60.7903 38.1368 63.4522 34.8359 65.4221C31.535 67.3387 27.8083 68.2971 23.6556 68.2971C19.5029 68.2971 15.7495 67.3387 12.3954 65.4221C9.0945 63.4522 6.45913 60.7903 4.48926 57.4362C2.57263 54.082 1.61432 50.302 1.61432 46.0961C1.61432 41.8902 2.49277 38.1368 4.24968 34.8359C6.05983 31.4818 8.50886 28.8464 11.5968 26.9298C14.6847 24.9599 18.1719 23.975 22.0584 23.975C25.1995 23.975 28.1011 24.6405 30.7631 25.9715C32.6825 26.8928 34.3804 28.0632 35.8569 29.4828C36.4282 30.032 36.9663 30.6184 37.4713 31.2422V9.68013C37.4713 8.45562 37.8439 7.47069 38.5893 6.72533C39.3879 5.97997 40.3728 5.6073 41.5441 5.6073C42.7686 5.6073 43.7535 5.97997 44.4989 6.72533C45.2443 7.47069 45.6169 8.45562 45.6169 9.68013V46.0961Z" fill="white"/>
<path fill-rule="evenodd" clip-rule="evenodd" d="M30.9228 59.1931C28.7932 60.4708 26.3708 61.1097 23.6556 61.1097C20.9936 61.1097 18.5712 60.4708 16.3883 59.1931C14.2587 57.8621 12.5551 56.0519 11.2773 53.7626C10.0528 51.4733 9.44055 48.9178 9.44055 46.0961C9.44055 43.2212 10.0528 40.6656 11.2773 38.4296C12.5551 36.1935 14.2587 34.4366 16.3883 33.1588C18.5712 31.8279 20.9936 31.1624 23.6556 31.1624C26.3708 31.1624 28.7932 31.8279 30.9228 33.1588C33.0524 34.4366 34.7294 36.1935 35.9539 38.4296C37.1784 40.6656 37.7907 43.2212 37.7907 46.0961C37.7907 48.9178 37.1784 51.4733 35.9539 53.7626C34.7294 56.0519 33.0524 57.8621 30.9228 59.1931ZM30.0796 34.5356L30.0672 34.5278C28.215 33.3702 26.0938 32.7767 23.6556 32.7767C21.2773 32.7767 19.1477 33.367 17.2288 34.5371L17.2238 34.5401L17.2189 34.5431C15.3395 35.6708 13.8312 37.2188 12.6862 39.2178C11.6124 41.1842 11.0549 43.4628 11.0549 46.0961C11.0549 48.6704 11.61 50.9566 12.694 52.9885C13.8403 55.0377 15.3486 56.6349 17.224 57.8117C19.1411 58.9291 21.2729 59.4954 23.6556 59.4954C26.1009 59.4954 28.2271 58.9247 30.0798 57.8162C31.956 56.6406 33.4367 55.0461 34.5304 53.0012C35.619 50.9661 36.1764 48.6758 36.1764 46.0961C36.1764 43.457 35.6165 41.1743 34.538 39.205C33.4473 37.2132 31.9694 35.6694 30.0922 34.5431L30.0796 34.5356Z" fill="white"/>
</svg>
