<svg width="1327" height="1327" viewBox="0 0 1327 1327" fill="none" xmlns="http://www.w3.org/2000/svg">
<rect width="1327" height="1327" fill="black"/>
<path d="M272.406 1015.48L1009.43 1015.48L1009.43 1190.73L272.406 1190.73L272.406 1015.48Z" fill="url(#paint0_linear_1162_1431)" fill-opacity="0.9"/>
<path d="M372.117 1103.11C372.117 1151.5 332.886 1190.73 284.492 1190.73C236.098 1190.73 196.867 1151.5 196.867 1103.11C196.867 1054.71 236.098 1015.48 284.492 1015.48C332.886 1015.48 372.117 1054.71 372.117 1103.11Z" fill="#0976DD"/>
<path d="M1084.96 1103.11C1084.96 1151.5 1045.73 1190.73 997.34 1190.73C948.946 1190.73 909.715 1151.5 909.715 1103.11C909.715 1054.71 948.946 1015.48 997.34 1015.48C1045.73 1015.48 1084.96 1054.71 1084.96 1103.11Z" fill="#00A48B"/>
<path d="M328.213 95.5703L1094.2 461.37L1017.52 621.942L251.532 256.142L328.213 95.5703Z" fill="url(#paint1_linear_1162_1431)" fill-opacity="0.5"/>
<path d="M363.583 218.51C339.386 260.42 285.796 274.78 243.885 250.583C201.975 226.386 187.616 172.795 211.813 130.885C236.01 88.975 289.6 74.6155 331.51 98.8124C373.42 123.009 387.78 176.6 363.583 218.51Z" fill="#FF28A7"/>
<path opacity="0.9" d="M255.393 715.844L1037.58 452.689L1093.18 617.971L310.999 881.126L255.393 715.844Z" fill="url(#paint2_linear_1162_1431)" fill-opacity="0.9"/>
<path d="M966.043 563.055C953.518 516.31 981.258 468.262 1028 455.737C1074.75 443.212 1122.8 470.952 1135.32 517.697C1147.85 564.442 1120.11 612.49 1073.36 625.015C1026.62 637.54 978.568 609.8 966.043 563.055Z" fill="#9227FF"/>
<path d="M200.813 821.668C188.287 774.923 216.028 726.875 262.773 714.35C309.518 701.825 357.565 729.565 370.091 776.31C382.616 823.055 354.875 871.103 308.131 883.628C261.386 896.153 213.338 868.413 200.813 821.668Z" fill="#FF914C"/>
<defs>
<linearGradient id="paint0_linear_1162_1431" x1="272.406" y1="1103.1" x2="1030.36" y2="1103.1" gradientUnits="userSpaceOnUse">
<stop stop-color="#0976DD"/>
<stop offset="1" stop-color="#00A48B"/>
</linearGradient>
<linearGradient id="paint1_linear_1162_1431" x1="291.529" y1="188.405" x2="969.272" y2="506.262" gradientUnits="userSpaceOnUse">
<stop stop-color="#FF28A7"/>
<stop offset="1" stop-color="#9227FF"/>
</linearGradient>
<linearGradient id="paint2_linear_1162_1431" x1="391.698" y1="770.664" x2="1101.94" y2="564.832" gradientUnits="userSpaceOnUse">
<stop stop-color="#FF914C"/>
<stop offset="1" stop-color="#9227FF"/>
</linearGradient>
</defs>
</svg>
