<svg width="1528" height="76" viewBox="0 0 1528 76" fill="none" xmlns="http://www.w3.org/2000/svg">
<rect x="143.778" y="35.8628" width="5.09959" height="5.86294" rx="2.54979" fill="#4F7BBD"/>
<rect x="165.877" y="25.8115" width="19.1235" height="5.86294" rx="2.93147" fill="#2756CE"/>
<rect x="143.779" y="25.8115" width="19.1235" height="5.86294" rx="2.93147" fill="#5168E3"/>
<rect x="151.853" y="35.8628" width="19.1235" height="5.86294" rx="2.93147" fill="#2A65AB"/>
<rect x="143.778" y="45.9136" width="14.4488" height="5.86294" rx="2.93147" fill="#4EC2C9"/>
<rect x="161.627" y="45.9136" width="16.1487" height="5.86294" rx="2.93147" fill="#269FAF"/>
<g style="mix-blend-mode:lighten">
<path d="M15.2026 52.6692C12.8638 52.6692 10.7498 52.1294 8.86071 51.05C7.00161 49.9405 5.51733 48.4412 4.40787 46.5521C3.32839 44.663 2.78865 42.5341 2.78865 40.1652C2.78865 37.7964 3.28341 35.6824 4.27293 33.8233C5.29244 31.9342 6.67177 30.4499 8.41093 29.3704C10.1501 28.261 12.1141 27.7063 14.3031 27.7063C16.0722 27.7063 17.7064 28.0811 19.2057 28.8307C20.705 29.5504 21.9644 30.5399 22.9839 31.7993V19.6551C22.9839 18.9655 23.1938 18.4108 23.6136 17.991C24.0634 17.5712 24.6181 17.3613 25.2778 17.3613C25.9674 17.3613 26.5222 17.5712 26.942 17.991C27.3618 18.4108 27.5717 18.9655 27.5717 19.6551V40.1652C27.5717 42.5341 27.0169 44.663 25.9075 46.5521C24.828 48.4412 23.3587 49.9405 21.4996 51.05C19.6405 52.1294 17.5415 52.6692 15.2026 52.6692ZM15.2026 48.6211C16.7319 48.6211 18.0962 48.2613 19.2957 47.5417C20.4951 46.792 21.4396 45.7725 22.1293 44.4831C22.819 43.1938 23.1638 41.7545 23.1638 40.1652C23.1638 38.546 22.819 37.1067 22.1293 35.8473C21.4396 34.5879 20.4951 33.5984 19.2957 32.8787C18.0962 32.1291 16.7319 31.7543 15.2026 31.7543C13.7034 31.7543 12.339 32.1291 11.1096 32.8787C9.9102 33.5984 8.95067 34.5879 8.23102 35.8473C7.54135 37.1067 7.19652 38.546 7.19652 40.1652C7.19652 41.7545 7.54135 43.1938 8.23102 44.4831C8.95067 45.7725 9.9102 46.792 11.1096 47.5417C12.339 48.2613 13.7034 48.6211 15.2026 48.6211ZM47.2328 52.6692C44.744 52.6692 42.525 52.1444 40.576 51.0949C38.6569 50.0155 37.1426 48.5462 36.0332 46.6871C34.9537 44.798 34.414 42.639 34.414 40.2102C34.414 37.7514 34.9237 35.5924 35.9432 33.7333C36.9927 31.8442 38.432 30.375 40.2611 29.3255C42.0903 28.246 44.1892 27.7063 46.5581 27.7063C48.897 27.7063 50.906 28.231 52.5852 29.2805C54.2644 30.3 55.5387 31.7243 56.4083 33.5534C57.3079 35.3526 57.7577 37.4365 57.7577 39.8054C57.7577 40.3751 57.5628 40.8549 57.173 41.2447C56.7831 41.6045 56.2884 41.7844 55.6887 41.7844H37.5624V38.1862H55.5537L53.7096 39.4456C53.6796 37.9463 53.3798 36.6119 52.8101 35.4425C52.2403 34.2431 51.4307 33.2985 50.3812 32.6089C49.3317 31.9192 48.0574 31.5744 46.5581 31.5744C44.8489 31.5744 43.3796 31.9492 42.1502 32.6988C40.9508 33.4485 40.0362 34.483 39.4066 35.8023C38.7769 37.0917 38.462 38.561 38.462 40.2102C38.462 41.8594 38.8368 43.3287 39.5865 44.6181C40.3361 45.9074 41.3706 46.9269 42.69 47.6766C44.0093 48.4262 45.5236 48.801 47.2328 48.801C48.1623 48.801 49.1069 48.6361 50.0664 48.3063C51.0559 47.9465 51.8505 47.5417 52.4502 47.0919C52.9 46.762 53.3798 46.5971 53.8895 46.5971C54.4293 46.5671 54.8941 46.7171 55.2839 47.0469C55.7936 47.4967 56.0635 47.9914 56.0935 48.5312C56.1235 49.0709 55.8836 49.5357 55.3738 49.9255C54.3543 50.7351 53.0799 51.3948 51.5507 51.9045C50.0514 52.4143 48.6121 52.6692 47.2328 52.6692ZM67.927 43.4936L65.1383 40.4351L78.9466 28.1111C79.3964 27.6913 79.8912 27.4964 80.4309 27.5263C81.0006 27.5563 81.4804 27.7962 81.8702 28.246C82.29 28.6958 82.4849 29.1905 82.4549 29.7303C82.4249 30.27 82.1851 30.7498 81.7353 31.1696L67.927 43.4936ZM65.813 52.4893C65.1533 52.4893 64.6136 52.2944 64.1938 51.9045C63.804 51.4847 63.6091 50.945 63.6091 50.2853V19.5652C63.6091 18.9055 63.804 18.3808 64.1938 17.991C64.6136 17.5712 65.1533 17.3613 65.813 17.3613C66.4727 17.3613 66.9974 17.5712 67.3872 17.991C67.807 18.3808 68.0169 18.9055 68.0169 19.5652V50.2853C68.0169 50.945 67.807 51.4847 67.3872 51.9045C66.9974 52.2944 66.4727 52.4893 65.813 52.4893ZM81.8702 52.2644C81.3905 52.6542 80.8507 52.8191 80.251 52.7591C79.6813 52.7291 79.2015 52.4743 78.8117 51.9945L69.6811 40.705L72.8296 37.7364L82.1851 49.2508C82.5749 49.7306 82.7398 50.2553 82.6798 50.8251C82.6498 51.3648 82.38 51.8446 81.8702 52.2644ZM91.4207 37.1067C91.4207 35.3076 91.8555 33.7033 92.7251 32.294C93.6246 30.8547 94.8241 29.7153 96.3233 28.8757C97.8226 28.0361 99.4718 27.6163 101.271 27.6163C103.07 27.6163 104.404 27.9161 105.274 28.5159C106.174 29.0856 106.518 29.7753 106.309 30.5849C106.219 31.0047 106.039 31.3345 105.769 31.5744C105.529 31.7843 105.244 31.9192 104.914 31.9792C104.584 32.0392 104.225 32.0242 103.835 31.9342C101.916 31.5444 100.191 31.5144 98.6622 31.8442C97.1329 32.1741 95.9185 32.7888 95.019 33.6884C94.1494 34.5879 93.7146 35.7274 93.7146 37.1067H91.4207ZM91.4657 52.4893C90.746 52.4893 90.1913 52.3093 89.8015 51.9495C89.4117 51.5597 89.2168 50.99 89.2168 50.2403V30.1351C89.2168 29.4154 89.4117 28.8607 89.8015 28.4709C90.1913 28.0811 90.746 27.8862 91.4657 27.8862C92.2153 27.8862 92.7701 28.0811 93.1299 28.4709C93.5197 28.8307 93.7146 29.3854 93.7146 30.1351V50.2403C93.7146 50.96 93.5197 51.5147 93.1299 51.9045C92.7701 52.2944 92.2153 52.4893 91.4657 52.4893ZM121.436 52.7141C119.367 52.7141 117.508 52.2794 115.859 51.4098C114.239 50.5102 112.95 49.2058 111.991 47.4967C111.061 45.7875 110.596 43.6885 110.596 41.1997V30.1351C110.596 29.4754 110.806 28.9357 111.226 28.5159C111.676 28.0661 112.23 27.8412 112.89 27.8412C113.55 27.8412 114.09 28.0661 114.509 28.5159C114.959 28.9357 115.184 29.4754 115.184 30.1351V41.1997C115.184 42.8789 115.499 44.2732 116.129 45.3827C116.758 46.4622 117.613 47.2718 118.692 47.8115C119.772 48.3213 120.986 48.5762 122.336 48.5762C123.625 48.5762 124.764 48.3213 125.754 47.8115C126.773 47.3018 127.583 46.6121 128.183 45.7425C128.782 44.8729 129.082 43.8984 129.082 42.8189H131.916C131.916 44.678 131.451 46.3572 130.522 47.8565C129.622 49.3558 128.378 50.5402 126.788 51.4098C125.229 52.2794 123.445 52.7141 121.436 52.7141ZM131.376 52.4893C130.716 52.4893 130.162 52.2794 129.712 51.8596C129.292 51.4098 129.082 50.855 129.082 50.1954V30.1351C129.082 29.4454 129.292 28.8907 129.712 28.4709C130.162 28.0511 130.716 27.8412 131.376 27.8412C132.066 27.8412 132.621 28.0511 133.04 28.4709C133.46 28.8907 133.67 29.4454 133.67 30.1351V50.1954C133.67 50.855 133.46 51.4098 133.04 51.8596C132.621 52.2794 132.066 52.4893 131.376 52.4893ZM122.56 24.018C121.901 24.018 121.346 23.8081 120.896 23.3883C120.476 22.9386 120.267 22.3838 120.267 21.7241C120.267 21.0945 120.446 20.5847 120.806 20.1949L125.214 15.787C125.664 15.3372 126.204 15.1123 126.833 15.1123C127.523 15.1123 128.078 15.3372 128.498 15.787C128.917 16.2368 129.127 16.7915 129.127 17.4512C129.127 17.7511 129.082 18.0359 128.992 18.3058C128.902 18.5757 128.737 18.8156 128.498 19.0255L124.135 23.3883C123.715 23.8081 123.19 24.018 122.56 24.018Z" fill="white"/>
<path d="M8.86071 51.05L8.34847 51.9083L8.35658 51.9132L8.36478 51.9178L8.86071 51.05ZM4.40787 46.5521L3.53992 47.0481L3.54594 47.0583L4.40787 46.5521ZM4.27293 33.8233L3.39326 33.3485L3.39055 33.3536L4.27293 33.8233ZM8.41093 29.3704L8.93811 30.2198L8.94852 30.2132L8.41093 29.3704ZM19.2057 28.8307L18.7587 29.7248L18.7659 29.7284L18.7732 29.7319L19.2057 28.8307ZM22.9839 31.7993L22.207 32.4282L23.9835 34.6227V31.7993H22.9839ZM23.6136 17.991L22.9315 17.2602L22.9189 17.272L22.9068 17.2841L23.6136 17.991ZM25.9075 46.5521L25.0455 46.0459L25.0396 46.0562L25.9075 46.5521ZM21.4996 51.05L22.0016 51.9144L22.0118 51.9083L21.4996 51.05ZM19.2957 47.5417L19.8099 48.3988L19.8177 48.3941L19.8254 48.3893L19.2957 47.5417ZM22.1293 44.4831L21.2479 44.0117H21.2479L22.1293 44.4831ZM22.1293 35.8473L21.2526 36.3274H21.2526L22.1293 35.8473ZM19.2957 32.8787L18.7659 33.7264L18.7736 33.7312L18.7814 33.7359L19.2957 32.8787ZM11.1096 32.8787L11.6239 33.7359L11.63 33.7322L11.1096 32.8787ZM8.23102 35.8473L7.36313 35.3514L7.35864 35.3592L7.35428 35.3672L8.23102 35.8473ZM8.23102 44.4831L7.3496 44.9546L7.35382 44.9625L7.35818 44.9703L8.23102 44.4831ZM11.1096 47.5417L10.5798 48.3893L10.5921 48.397L10.6047 48.4043L11.1096 47.5417ZM15.2026 51.6696C13.0243 51.6696 11.0834 51.1688 9.35664 50.1821L8.36478 51.9178C10.4162 53.0901 12.7033 53.6688 15.2026 53.6688V51.6696ZM9.37296 50.1916C7.65995 49.1693 6.29521 47.7919 5.26979 46.0459L3.54594 47.0583C4.73945 49.0905 6.34327 50.7117 8.34847 51.9083L9.37296 50.1916ZM5.27575 46.0562C4.29013 44.3314 3.78824 42.376 3.78824 40.1652H1.78906C1.78906 42.6921 2.36664 44.9947 3.53998 47.0481L5.27575 46.0562ZM3.78824 40.1652C3.78824 37.9394 4.25193 35.9902 5.15531 34.2929L3.39055 33.3536C2.31489 35.3746 1.78906 37.6533 1.78906 40.1652H3.78824ZM5.15259 34.298C6.09347 32.5546 7.35441 31.2027 8.93807 30.2197L7.88379 28.5212C5.98913 29.6971 4.49141 31.3138 3.39327 33.3486L5.15259 34.298ZM8.94852 30.2132C10.5171 29.2125 12.2924 28.7058 14.3031 28.7058V26.7067C11.9358 26.7067 9.78306 27.3095 7.87334 28.5277L8.94852 30.2132ZM14.3031 28.7058C15.9259 28.7058 17.4059 29.0484 18.7587 29.7248L19.6527 27.9367C18.007 27.1138 16.2186 26.7067 14.3031 26.7067V28.7058ZM18.7732 29.7319C20.1425 30.3892 21.2832 31.287 22.207 32.4282L23.7608 31.1703C22.6456 29.7927 21.2674 28.7116 19.6383 27.9296L18.7732 29.7319ZM23.9835 31.7993V19.6551H21.9843V31.7993H23.9835ZM23.9835 19.6551C23.9835 19.1842 24.1185 18.8997 24.3204 18.6978L22.9068 17.2841C22.2691 17.9218 21.9843 18.7467 21.9843 19.6551H23.9835ZM24.2956 18.7217C24.5462 18.4879 24.8513 18.3608 25.2778 18.3608V16.3617C24.3849 16.3617 23.5805 16.6545 22.9315 17.2602L24.2956 18.7217ZM25.2778 18.3608C25.7487 18.3608 26.0332 18.4958 26.2351 18.6978L27.6488 17.2841C27.0111 16.6465 26.1862 16.3617 25.2778 16.3617V18.3608ZM26.2351 18.6978C26.4371 18.8997 26.5721 19.1842 26.5721 19.6551H28.5712C28.5712 18.7467 28.2864 17.9218 27.6488 17.2841L26.2351 18.6978ZM26.5721 19.6551V40.1652H28.5712V19.6551H26.5721ZM26.5721 40.1652C26.5721 42.371 26.0576 44.3227 25.0455 46.0459L26.7694 47.0583C27.9763 45.0034 28.5712 42.6971 28.5712 40.1652H26.5721ZM25.0396 46.0562C24.045 47.7967 22.6979 49.1708 20.9873 50.1916L22.0118 51.9083C24.0195 50.7102 25.6109 49.0858 26.7753 47.0481L25.0396 46.0562ZM20.9977 50.1855C19.3043 51.1688 17.3812 51.6696 15.2026 51.6696V53.6688C17.7018 53.6688 19.9767 53.0901 22.0015 51.9144L20.9977 50.1855ZM15.2026 49.6207C16.8956 49.6207 18.4409 49.2202 19.8099 48.3988L18.7814 46.6845C17.7516 47.3024 16.5682 47.6215 15.2026 47.6215V49.6207ZM19.8254 48.3893C21.1781 47.5439 22.2416 46.3925 23.0107 44.9546L21.2479 44.0117C20.6376 45.1525 19.8121 46.0401 18.7659 46.694L19.8254 48.3893ZM23.0107 44.9546C23.7846 43.5078 24.1634 41.9043 24.1634 40.1652H22.1642C22.1642 41.6046 21.8533 42.8797 21.2479 44.0117L23.0107 44.9546ZM24.1634 40.1652C24.1634 38.4 23.7861 36.7917 23.006 35.3672L21.2526 36.3274C21.8518 37.4217 22.1642 38.6921 22.1642 40.1652H24.1634ZM23.006 35.3672C22.2335 33.9565 21.1657 32.835 19.8099 32.0216L18.7814 33.7359C19.8245 34.3618 20.6457 35.2193 21.2526 36.3274L23.006 35.3672ZM19.8254 32.0311C18.4543 31.1741 16.9034 30.7547 15.2026 30.7547V32.7539C16.5604 32.7539 17.7382 33.0841 18.7659 33.7264L19.8254 32.0311ZM15.2026 30.7547C13.5277 30.7547 11.982 31.176 10.5892 32.0253L11.63 33.7322C12.696 33.0822 13.879 32.7539 15.2026 32.7539V30.7547ZM10.5953 32.0216C9.2435 32.8327 8.16449 33.949 7.36313 35.3514L9.0989 36.3432C9.73685 35.2268 10.5769 34.3641 11.6239 33.7359L10.5953 32.0216ZM7.35428 35.3672C6.57417 36.7917 6.19693 38.4 6.19693 40.1652H8.1961C8.1961 38.6921 8.50853 37.4217 9.10775 36.3274L7.35428 35.3672ZM6.19693 40.1652C6.19693 41.9043 6.57573 43.5078 7.3496 44.9546L9.11244 44.0117C8.50697 42.8797 8.1961 41.6046 8.1961 40.1652H6.19693ZM7.35818 44.9703C8.15622 46.4001 9.23113 47.5464 10.5798 48.3893L11.6394 46.694C10.5893 46.0377 9.74512 45.1449 9.10385 43.996L7.35818 44.9703ZM10.6047 48.4043C11.9954 49.2184 13.5356 49.6207 15.2026 49.6207V47.6215C13.8712 47.6215 12.6827 47.3042 11.6146 46.679L10.6047 48.4043ZM40.576 51.0949L40.0859 51.9661L40.094 51.9707L40.1021 51.975L40.576 51.0949ZM36.0332 46.6871L35.1653 47.183L35.17 47.1912L35.1748 47.1993L36.0332 46.6871ZM35.9432 33.7333L35.0694 33.2479L35.0668 33.2527L35.9432 33.7333ZM40.2611 29.3255L40.7586 30.1925L40.7692 30.1863L40.2611 29.3255ZM52.5852 29.2805L52.0554 30.1282L52.0664 30.1349L52.5852 29.2805ZM56.4083 33.5534L55.5056 33.9826L55.5098 33.9916L55.5143 34.0005L56.4083 33.5534ZM57.173 41.2447L57.851 41.9792L57.8656 41.9656L57.8798 41.9515L57.173 41.2447ZM37.5624 41.7844H36.5629V42.784H37.5624V41.7844ZM37.5624 38.1862V37.1866H36.5629V38.1862H37.5624ZM55.5537 38.1862L56.1175 39.0116L58.7898 37.1866H55.5537V38.1862ZM53.7096 39.4456L52.7102 39.4656L52.7472 41.3133L54.2734 40.271L53.7096 39.4456ZM52.8101 35.4425L51.9071 35.8714L51.9114 35.8803L52.8101 35.4425ZM42.1502 32.6988L41.6298 31.8453L41.6204 31.8512L42.1502 32.6988ZM39.4066 35.8023L40.3048 36.241L40.3087 36.2329L39.4066 35.8023ZM39.5865 44.6181L38.7223 45.1205L39.5865 44.6181ZM42.69 47.6766L43.1838 46.8075L42.69 47.6766ZM50.0664 48.3063L50.3913 49.2516L50.3997 49.2487L50.408 49.2457L50.0664 48.3063ZM52.4502 47.0919L51.8591 46.2858L51.8505 46.2922L52.4502 47.0919ZM53.8895 46.5971V47.5967H53.9173L53.945 47.5952L53.8895 46.5971ZM55.2839 47.0469L55.9452 46.2974L55.9375 46.2905L55.9295 46.2838L55.2839 47.0469ZM56.0935 48.5312L57.0915 48.4757L56.0935 48.5312ZM55.3738 49.9255L54.7666 49.1315L54.7594 49.137L54.7522 49.1427L55.3738 49.9255ZM51.5507 51.9045L51.2346 50.9562L51.2289 50.9582L51.5507 51.9045ZM47.2328 51.6696C44.8885 51.6696 42.836 51.1766 41.0499 50.2148L40.1021 51.975C42.2141 53.1123 44.5994 53.6688 47.2328 53.6688V51.6696ZM41.066 50.2237C39.2962 49.2282 37.9101 47.8815 36.8915 46.1748L35.1748 47.1993C36.3752 49.2108 38.0176 50.8027 40.0859 51.9661L41.066 50.2237ZM36.9011 46.1911C35.9176 44.4701 35.4136 42.4857 35.4136 40.2102H33.4144C33.4144 42.7923 33.9898 45.1259 35.1653 47.183L36.9011 46.1911ZM35.4136 40.2102C35.4136 37.8924 35.893 35.9038 36.8197 34.214L35.0668 33.2527C33.9544 35.2811 33.4144 37.6104 33.4144 40.2102H35.4136ZM36.817 34.2188C37.7804 32.4846 39.0914 31.1491 40.7586 30.1925L39.7637 28.4585C37.7727 29.6008 36.205 31.2039 35.0694 33.2479L36.817 34.2188ZM40.7692 30.1863C42.4272 29.2078 44.3468 28.7058 46.5581 28.7058V26.7067C44.0317 26.7067 41.7533 27.2841 39.7531 28.4646L40.7692 30.1863ZM46.5581 28.7058C48.744 28.7058 50.5619 29.1947 52.0554 30.1281L53.115 28.4328C51.2501 27.2673 49.0499 26.7067 46.5581 26.7067V28.7058ZM52.0664 30.1349C53.5735 31.0499 54.717 32.3239 55.5056 33.9826L57.3111 33.1242C56.3605 31.1247 54.9553 29.5501 53.1039 28.4261L52.0664 30.1349ZM55.5143 34.0005C56.3331 35.6382 56.7581 37.5643 56.7581 39.8054H58.7573C58.7573 37.3088 58.2827 35.0669 57.3024 33.1064L55.5143 34.0005ZM56.7581 39.8054C56.7581 40.1199 56.6616 40.3424 56.4661 40.5379L57.8798 41.9515C58.4639 41.3673 58.7573 40.6303 58.7573 39.8054H56.7581ZM56.495 40.5102C56.3142 40.6771 56.0724 40.7849 55.6887 40.7849V42.784C56.5044 42.784 57.2521 42.532 57.851 41.9792L56.495 40.5102ZM55.6887 40.7849H37.5624V42.784H55.6887V40.7849ZM38.562 41.7844V38.1862H36.5629V41.7844H38.562ZM37.5624 39.1858H55.5537V37.1866H37.5624V39.1858ZM54.99 37.3607L53.1459 38.6201L54.2734 40.271L56.1175 39.0116L54.99 37.3607ZM54.709 39.4256C54.6766 37.8035 54.3509 36.323 53.7087 35.0047L51.9114 35.8803C52.4087 36.9009 52.6827 38.0891 52.7102 39.4656L54.709 39.4256ZM53.713 35.0136C53.0694 33.6588 52.1416 32.5696 50.9302 31.7735L49.8323 33.4442C50.7199 34.0275 51.4113 34.8274 51.9072 35.8714L53.713 35.0136ZM50.9302 31.7735C49.6883 30.9574 48.2141 30.5748 46.5581 30.5748V32.574C47.9007 32.574 48.9752 32.881 49.8323 33.4442L50.9302 31.7735ZM46.5581 30.5748C44.7 30.5748 43.0431 30.9836 41.6298 31.8454L42.6706 33.5523C43.7161 32.9148 44.9979 32.574 46.5581 32.574V30.5748ZM41.6204 31.8512C40.2542 32.7051 39.2132 33.8869 38.5044 35.3718L40.3087 36.2329C40.8593 35.0791 41.6475 34.1918 42.68 33.5465L41.6204 31.8512ZM38.5084 35.3637C37.8026 36.8087 37.4624 38.4317 37.4624 40.2102H39.4616C39.4616 38.6903 39.7511 37.3747 40.3047 36.241L38.5084 35.3637ZM37.4624 40.2102C37.4624 42.0167 37.8748 43.6628 38.7223 45.1205L40.4506 44.1157C39.7988 42.9946 39.4616 41.7021 39.4616 40.2102H37.4624ZM38.7223 45.1205C39.5624 46.5655 40.7259 47.7103 42.1962 48.5457L43.1838 46.8075C42.0153 46.1436 41.1098 45.2494 40.4506 44.1157L38.7223 45.1205ZM42.1962 48.5457C43.6843 49.3912 45.3728 49.8006 47.2328 49.8006V47.8015C45.6744 47.8015 44.3343 47.4612 43.1838 46.8075L42.1962 48.5457ZM47.2328 49.8006C48.2826 49.8006 49.3368 49.6141 50.3913 49.2516L49.7414 47.361C48.8769 47.6582 48.0421 47.8015 47.2328 47.8015V49.8006ZM50.408 49.2457C51.4557 48.8647 52.3469 48.4188 53.05 47.8915L51.8505 46.2922C51.3541 46.6645 50.6561 47.0282 49.7248 47.3669L50.408 49.2457ZM53.0414 47.8979C53.3367 47.6813 53.6126 47.5967 53.8895 47.5967V45.5975C53.147 45.5975 52.4633 45.8427 51.8591 46.2858L53.0414 47.8979ZM53.945 47.5952C54.246 47.5784 54.4557 47.6555 54.6382 47.81L55.9295 46.2838C55.3324 45.7786 54.6125 45.5558 53.8341 45.5991L53.945 47.5952ZM54.6225 47.7964C54.9863 48.1174 55.0839 48.3788 55.0954 48.5866L57.0915 48.4757C57.0431 47.6041 56.601 46.876 55.9452 46.2974L54.6225 47.7964ZM55.0954 48.5866C55.1034 48.7308 55.07 48.8995 54.7666 49.1315L55.981 50.7195C56.6971 50.1719 57.1435 49.411 57.0915 48.4757L55.0954 48.5866ZM54.7522 49.1427C53.8429 49.8648 52.6785 50.4749 51.2346 50.9562L51.8668 52.8528C53.4814 52.3146 54.8657 51.6054 55.9954 50.7083L54.7522 49.1427ZM51.2289 50.9582C49.8182 51.4378 48.4878 51.6696 47.2328 51.6696V53.6688C48.7364 53.6688 50.2846 53.3908 51.8724 52.8509L51.2289 50.9582ZM67.927 43.4936L67.1883 44.1671L67.8547 44.8979L68.5926 44.2394L67.927 43.4936ZM65.1383 40.4351L64.4727 39.6893L63.719 40.362L64.3997 41.1086L65.1383 40.4351ZM78.9466 28.1111L79.6122 28.8568L79.6205 28.8494L79.6287 28.8418L78.9466 28.1111ZM80.4309 27.5263L80.3755 28.5244L80.3784 28.5245L80.4309 27.5263ZM81.8702 28.246L81.1148 28.9007L81.1269 28.9146L81.1395 28.928L81.8702 28.246ZM82.4549 29.7303L81.4569 29.6748V29.6748L82.4549 29.7303ZM81.7353 31.1696L82.4009 31.9153L82.4092 31.9079L82.4173 31.9003L81.7353 31.1696ZM64.1938 51.9045L63.4613 52.5847L63.4865 52.6118L63.5136 52.637L64.1938 51.9045ZM64.1938 17.991L63.487 17.2841L64.1938 17.991ZM67.3872 17.991L66.6547 18.6711L66.6799 18.6983L66.7071 18.7234L67.3872 17.991ZM67.3872 51.9045L66.6804 51.1977L67.3872 51.9045ZM81.8702 52.2644L82.5006 53.0402L82.5057 53.036L81.8702 52.2644ZM80.251 52.7591L80.3505 51.7645L80.327 51.7622L80.3035 51.7609L80.251 52.7591ZM78.8117 51.9945L78.0345 52.6231L78.0359 52.6248L78.8117 51.9945ZM69.6811 40.705L68.9954 39.9777L68.3213 40.6132L68.9039 41.3335L69.6811 40.705ZM72.8296 37.7364L73.6054 37.1061L72.9268 36.2709L72.1439 37.0091L72.8296 37.7364ZM82.1851 49.2508L81.4093 49.8812L82.1851 49.2508ZM82.6798 50.8251L81.6857 50.7204L81.6832 50.745L81.6818 50.7696L82.6798 50.8251ZM68.6656 42.8201L65.877 39.7616L64.3997 41.1086L67.1883 44.1671L68.6656 42.8201ZM65.8039 41.1809L79.6122 28.8568L78.281 27.3653L64.4727 39.6893L65.8039 41.1809ZM79.6287 28.8418C79.9094 28.5798 80.1463 28.5117 80.3755 28.5244L80.4864 26.5283C79.6361 26.4811 78.8834 26.8028 78.2646 27.3803L79.6287 28.8418ZM80.3784 28.5245C80.664 28.5396 80.8943 28.6462 81.1148 28.9007L82.6256 27.5913C82.0665 26.9463 81.3373 26.5731 80.4835 26.5281L80.3784 28.5245ZM81.1395 28.928C81.4015 29.2088 81.4696 29.4456 81.4569 29.6748L83.453 29.7857C83.5002 28.9354 83.1785 28.1827 82.601 27.564L81.1395 28.928ZM81.4569 29.6748C81.4432 29.9211 81.3427 30.1687 81.0532 30.4388L82.4173 31.9003C83.0275 31.3309 83.4067 30.6189 83.453 29.7857L81.4569 29.6748ZM81.0697 30.4238L67.2614 42.7479L68.5926 44.2394L82.4009 31.9153L81.0697 30.4238ZM65.813 51.4897C65.3646 51.4897 65.0809 51.3642 64.8739 51.1721L63.5136 52.637C64.1463 53.2245 64.942 53.4888 65.813 53.4888V51.4897ZM64.9263 51.2244C64.7341 51.0175 64.6086 50.7337 64.6086 50.2853H62.6095C62.6095 51.1563 62.8738 51.952 63.4613 52.5847L64.9263 51.2244ZM64.6086 50.2853V19.5652H62.6095V50.2853H64.6086ZM64.6086 19.5652C64.6086 19.1148 64.7343 18.864 64.9006 18.6978L63.487 17.2841C62.8736 17.8975 62.6095 18.6963 62.6095 19.5652H64.6086ZM64.9006 18.6978C65.1113 18.4871 65.3861 18.3608 65.813 18.3608V16.3617C64.9205 16.3617 64.1159 16.6552 63.487 17.2841L64.9006 18.6978ZM65.813 18.3608C66.2409 18.3608 66.4834 18.4866 66.6547 18.6711L68.1197 17.3108C67.5115 16.6558 66.7044 16.3617 65.813 16.3617V18.3608ZM66.7071 18.7234C66.8916 18.8948 67.0173 19.1373 67.0173 19.5652H69.0165C69.0165 18.6738 68.7224 17.8667 68.0674 17.2585L66.7071 18.7234ZM67.0173 19.5652V50.2853H69.0165V19.5652H67.0173ZM67.0173 50.2853C67.0173 50.7122 66.8911 50.987 66.6804 51.1977L68.094 52.6114C68.723 51.9824 69.0165 51.1778 69.0165 50.2853H67.0173ZM66.6804 51.1977C66.5142 51.364 66.2634 51.4897 65.813 51.4897V53.4888C66.6819 53.4888 67.4807 53.2247 68.094 52.6114L66.6804 51.1977ZM81.2399 51.4886C80.9591 51.7167 80.6801 51.7975 80.3505 51.7645L80.1515 53.7538C81.0213 53.8407 81.8218 53.5916 82.5005 53.0402L81.2399 51.4886ZM80.3035 51.7609C80.0415 51.7471 79.8158 51.6451 79.5875 51.3642L78.0359 52.6248C78.5872 53.3034 79.3211 53.7112 80.1985 53.7573L80.3035 51.7609ZM79.5889 51.3659L70.4583 40.0764L68.9039 41.3335L78.0345 52.6231L79.5889 51.3659ZM70.3668 41.4322L73.5153 38.4637L72.1439 37.0091L68.9954 39.9777L70.3668 41.4322ZM72.0538 38.3667L81.4093 49.8812L82.9609 48.6205L73.6054 37.1061L72.0538 38.3667ZM81.4093 49.8812C81.6462 50.1727 81.7155 50.4372 81.6857 50.7204L83.6739 50.9297C83.764 50.0735 83.5036 49.2885 82.9609 48.6205L81.4093 49.8812ZM81.6818 50.7696C81.6706 50.9701 81.5804 51.2081 81.2348 51.4928L82.5057 53.036C83.1795 52.481 83.629 51.7595 83.6779 50.8805L81.6818 50.7696ZM91.4207 37.1067H90.4211V38.1063H91.4207V37.1067ZM92.7251 32.294L91.8774 31.7642L91.8744 31.7691L92.7251 32.294ZM96.3233 28.8757L95.8349 28.0035L96.3233 28.8757ZM105.274 28.5159L104.707 29.3387L104.723 29.3498L104.739 29.3603L105.274 28.5159ZM106.309 30.5849L105.341 30.334L105.336 30.3546L105.331 30.3754L106.309 30.5849ZM105.769 31.5744L106.427 32.3267L106.433 32.3215L105.769 31.5744ZM104.914 31.9792L104.735 30.9957H104.735L104.914 31.9792ZM103.835 31.9342L104.059 30.9602L104.047 30.9573L104.034 30.9546L103.835 31.9342ZM95.019 33.6884L94.3122 32.9815L94.3062 32.9875L94.3003 32.9936L95.019 33.6884ZM93.7146 37.1067V38.1063H94.7142V37.1067H93.7146ZM89.8015 51.9495L89.0947 52.6563L89.1088 52.6705L89.1235 52.684L89.8015 51.9495ZM89.8015 28.4709L90.5083 29.1777L89.8015 28.4709ZM93.1299 28.4709L92.3954 29.1489L92.4225 29.1783L92.4519 29.2054L93.1299 28.4709ZM93.1299 51.9045L92.4231 51.1977L92.4089 51.2119L92.3954 51.2265L93.1299 51.9045ZM92.4203 37.1067C92.4203 35.4763 92.8119 34.0569 93.5758 32.8189L91.8744 31.7691C90.8991 33.3498 90.4211 35.1388 90.4211 37.1067H92.4203ZM93.5727 32.8238C94.3821 31.5289 95.4572 30.5064 96.8117 29.7478L95.8349 28.0035C94.1909 28.9242 92.8672 30.1806 91.8774 31.7643L93.5727 32.8238ZM96.8117 29.7478C98.1547 28.9958 99.6345 28.6159 101.271 28.6159V26.6167C99.3091 26.6167 97.4905 27.0764 95.8349 28.0035L96.8117 29.7478ZM101.271 28.6159C102.995 28.6159 104.085 28.9098 104.707 29.3387L105.842 27.693C104.724 26.9225 103.145 26.6167 101.271 26.6167V28.6159ZM104.739 29.3603C105.091 29.5834 105.247 29.7759 105.313 29.9074C105.368 30.0172 105.391 30.1417 105.341 30.334L107.276 30.8357C107.436 30.2184 107.391 29.5933 107.101 29.0134C106.822 28.4552 106.356 28.018 105.809 27.6714L104.739 29.3603ZM105.331 30.3754C105.277 30.6277 105.187 30.7539 105.105 30.8273L106.433 32.3215C106.89 31.9151 107.16 31.3816 107.286 30.7943L105.331 30.3754ZM105.111 30.8221C105.014 30.9068 104.897 30.9663 104.735 30.9957L105.093 32.9626C105.591 32.8721 106.044 32.6618 106.427 32.3266L105.111 30.8221ZM104.735 30.9957C104.563 31.0271 104.342 31.0254 104.059 30.9602L103.61 32.9082C104.107 33.0229 104.606 33.0512 105.093 32.9626L104.735 30.9957ZM104.034 30.9546C102.012 30.544 100.145 30.5018 98.4515 30.8671L98.873 32.8214C100.238 32.527 101.819 32.5448 103.636 32.9138L104.034 30.9546ZM98.4515 30.8671C96.7776 31.2282 95.3759 31.9178 94.3122 32.9815L95.7258 34.3952C96.4612 33.6598 97.4883 33.12 98.873 32.8214L98.4515 30.8671ZM94.3003 32.9936C93.2313 34.0994 92.715 35.4971 92.715 37.1067H94.7142C94.7142 35.9576 95.0675 35.0764 95.7377 34.3831L94.3003 32.9936ZM93.7146 36.1071H91.4207V38.1063H93.7146V36.1071ZM91.4657 51.4897C90.9064 51.4897 90.6273 51.3514 90.4795 51.215L89.1235 52.684C89.7554 53.2673 90.5856 53.4888 91.4657 53.4888V51.4897ZM90.5083 51.2427C90.3654 51.0998 90.2164 50.8227 90.2164 50.2403H88.2172C88.2172 51.1572 88.458 52.0197 89.0947 52.6563L90.5083 51.2427ZM90.2164 50.2403V30.1351H88.2172V50.2403H90.2164ZM90.2164 30.1351C90.2164 29.5963 90.3582 29.3279 90.5083 29.1777L89.0947 27.7641C88.4652 28.3935 88.2172 29.2346 88.2172 30.1351H90.2164ZM90.5083 29.1777C90.6585 29.0275 90.9269 28.8857 91.4657 28.8857V26.8866C90.5652 26.8866 89.7241 27.1346 89.0947 27.7641L90.5083 29.1777ZM91.4657 28.8857C92.0544 28.8857 92.2922 29.0371 92.3954 29.1489L93.8644 27.7929C93.2479 27.125 92.3763 26.8866 91.4657 26.8866V28.8857ZM92.4519 29.2054C92.5636 29.3085 92.715 29.5464 92.715 30.1351H94.7142C94.7142 29.2245 94.4758 28.3529 93.8079 27.7364L92.4519 29.2054ZM92.715 30.1351V50.2403H94.7142V30.1351H92.715ZM92.715 50.2403C92.715 50.7792 92.5732 51.0476 92.4231 51.1977L93.8367 52.6114C94.4662 51.9819 94.7142 51.1408 94.7142 50.2403H92.715ZM92.3954 51.2265C92.2922 51.3383 92.0544 51.4897 91.4657 51.4897V53.4888C92.3763 53.4888 93.2479 53.2504 93.8644 52.5825L92.3954 51.2265ZM115.859 51.4098L115.373 52.2836L115.383 52.2889L115.392 52.294L115.859 51.4098ZM111.991 47.4967L111.112 47.9743L111.119 47.986L111.991 47.4967ZM111.226 28.5159L110.519 27.809H110.519L111.226 28.5159ZM114.509 28.5159L113.779 29.1979L113.802 29.2231L113.827 29.2466L114.509 28.5159ZM116.129 45.3827L115.259 45.8761L115.265 45.8864L116.129 45.3827ZM118.692 47.8115L118.245 48.7056L118.255 48.7106L118.265 48.7154L118.692 47.8115ZM125.754 47.8115L125.307 46.9174L125.296 46.9229L125.754 47.8115ZM128.183 45.7425L129.006 46.31L128.183 45.7425ZM129.082 42.8189V41.8194H128.083V42.8189H129.082ZM131.916 42.8189H132.915V41.8194H131.916V42.8189ZM130.522 47.8565L129.672 47.3298L129.668 47.336L129.664 47.3422L130.522 47.8565ZM126.788 51.4098L126.309 50.5329L126.301 50.5368L126.788 51.4098ZM129.712 51.8596L128.981 52.5416L129.005 52.5668L129.03 52.5903L129.712 51.8596ZM129.712 28.4709L129.03 27.7401L129.017 27.7519L129.005 27.7641L129.712 28.4709ZM133.04 51.8596L133.747 52.5664L133.759 52.5542L133.771 52.5416L133.04 51.8596ZM120.896 23.3883L120.165 24.0704L120.189 24.0956L120.214 24.1191L120.896 23.3883ZM120.806 20.1949L120.099 19.4881L120.085 19.5022L120.072 19.5169L120.806 20.1949ZM125.214 15.787L124.507 15.0802V15.0802L125.214 15.787ZM128.992 18.3058L129.941 18.6219V18.6219L128.992 18.3058ZM128.498 19.0255L127.839 18.2732L127.814 18.2951L127.791 18.3186L128.498 19.0255ZM124.135 23.3883L123.428 22.6815L124.135 23.3883ZM121.436 51.7146C119.511 51.7146 117.815 51.3114 116.325 50.5256L115.392 52.294C117.201 53.2474 119.223 53.7137 121.436 53.7137V51.7146ZM116.344 50.536C114.896 49.7316 113.737 48.5649 112.862 47.0073L111.119 47.986C112.164 49.8468 113.583 51.2888 115.373 52.2836L116.344 50.536ZM112.869 47.0191C112.038 45.4918 111.596 43.5671 111.596 41.1997H109.597C109.597 43.8099 110.084 46.0832 111.112 47.9742L112.869 47.0191ZM111.596 41.1997V30.1351H109.597V41.1997H111.596ZM111.596 30.1351C111.596 29.7082 111.722 29.4334 111.933 29.2227L110.519 27.809C109.89 28.438 109.597 29.2426 109.597 30.1351H111.596ZM111.933 29.2227C112.187 28.968 112.485 28.8408 112.89 28.8408V26.8416C111.976 26.8416 111.164 27.1642 110.519 27.809L111.933 29.2227ZM112.89 28.8408C113.295 28.8408 113.563 28.9665 113.779 29.1979L115.24 27.8338C114.616 27.1657 113.804 26.8416 112.89 26.8416V28.8408ZM113.827 29.2466C114.059 29.4626 114.184 29.7301 114.184 30.1351H116.184C116.184 29.2207 115.859 28.4087 115.191 27.7851L113.827 29.2466ZM114.184 30.1351V41.1997H116.184V30.1351H114.184ZM114.184 41.1997C114.184 42.9988 114.521 44.576 115.259 45.8761L116.998 44.8893C116.476 43.9705 116.184 42.759 116.184 41.1997H114.184ZM115.265 45.8864C115.989 47.1274 116.986 48.0757 118.245 48.7056L119.139 46.9175C118.24 46.4678 117.527 45.797 116.992 44.879L115.265 45.8864ZM118.265 48.7154C119.495 49.2959 120.858 49.5757 122.336 49.5757V47.5766C121.114 47.5766 120.049 47.3466 119.119 46.9076L118.265 48.7154ZM122.336 49.5757C123.759 49.5757 125.06 49.2936 126.212 48.7001L125.296 46.9229C124.469 47.349 123.491 47.5766 122.336 47.5766V49.5757ZM126.201 48.7056C127.359 48.1265 128.303 47.3293 129.006 46.31L127.36 45.175C126.863 45.8949 126.188 46.477 125.307 46.9175L126.201 48.7056ZM129.006 46.31C129.723 45.2697 130.082 44.0964 130.082 42.8189H128.083C128.083 43.7004 127.842 44.4762 127.36 45.175L129.006 46.31ZM129.082 43.8185H131.916V41.8194H129.082V43.8185ZM130.916 42.8189C130.916 44.5024 130.498 45.9974 129.672 47.3298L131.371 48.3832C132.404 46.7171 132.915 44.8537 132.915 42.8189H130.916ZM129.664 47.3422C128.86 48.6836 127.748 49.7453 126.309 50.5329L127.268 52.2867C129.007 51.3351 130.384 50.0279 131.379 48.3708L129.664 47.3422ZM126.301 50.5368C124.909 51.3134 123.296 51.7146 121.436 51.7146V53.7137C123.594 53.7137 125.549 53.2453 127.275 52.2828L126.301 50.5368ZM131.376 51.4897C130.95 51.4897 130.645 51.3627 130.394 51.1288L129.03 52.5903C129.679 53.1961 130.483 53.4888 131.376 53.4888V51.4897ZM130.443 51.1775C130.209 50.927 130.082 50.6219 130.082 50.1954H128.083C128.083 51.0882 128.375 51.8926 128.981 52.5416L130.443 51.1775ZM130.082 50.1954V30.1351H128.083V50.1954H130.082ZM130.082 30.1351C130.082 29.6642 130.217 29.3796 130.419 29.1777L129.005 27.7641C128.367 28.4017 128.083 29.2266 128.083 30.1351H130.082ZM130.394 29.2016C130.645 28.9678 130.95 28.8408 131.376 28.8408V26.8416C130.483 26.8416 129.679 27.1344 129.03 27.7401L130.394 29.2016ZM131.376 28.8408C131.847 28.8408 132.132 28.9758 132.334 29.1777L133.747 27.7641C133.109 27.1264 132.285 26.8416 131.376 26.8416V28.8408ZM132.334 29.1777C132.535 29.3796 132.67 29.6642 132.67 30.1351H134.67C134.67 29.2266 134.385 28.4017 133.747 27.7641L132.334 29.1777ZM132.67 30.1351V50.1954H134.67V30.1351H132.67ZM132.67 50.1954C132.67 50.6219 132.543 50.927 132.31 51.1775L133.771 52.5416C134.377 51.8926 134.67 51.0882 134.67 50.1954H132.67ZM132.334 51.1527C132.132 51.3547 131.847 51.4897 131.376 51.4897V53.4888C132.285 53.4888 133.109 53.204 133.747 52.5664L132.334 51.1527ZM122.56 23.0185C122.134 23.0185 121.829 22.8914 121.578 22.6576L120.214 24.1191C120.863 24.7248 121.668 25.0176 122.56 25.0176V23.0185ZM121.627 22.7063C121.393 22.4558 121.266 22.1507 121.266 21.7241H119.267C119.267 22.617 119.56 23.4214 120.165 24.0704L121.627 22.7063ZM121.266 21.7241C121.266 21.2959 121.382 21.0444 121.541 20.8729L120.072 19.5169C119.51 20.125 119.267 20.893 119.267 21.7241H121.266ZM121.513 20.9017L125.921 16.4938L124.507 15.0802L120.099 19.4881L121.513 20.9017ZM125.921 16.4938C126.185 16.2294 126.472 16.1119 126.833 16.1119V14.1128C125.936 14.1128 125.142 14.4451 124.507 15.0802L125.921 16.4938ZM126.833 16.1119C127.283 16.1119 127.56 16.2474 127.767 16.4691L129.228 15.105C128.596 14.4271 127.763 14.1128 126.833 14.1128V16.1119ZM127.767 16.4691C128.001 16.7196 128.128 17.0247 128.128 17.4512H130.127C130.127 16.5584 129.834 15.754 129.228 15.105L127.767 16.4691ZM128.128 17.4512C128.128 17.6495 128.098 17.8272 128.044 17.9897L129.941 18.6219C130.066 18.2447 130.127 17.8527 130.127 17.4512H128.128ZM128.044 17.9897C128.017 18.0713 127.962 18.1659 127.839 18.2732L129.156 19.7777C129.513 19.4652 129.788 19.08 129.941 18.6219L128.044 17.9897ZM127.791 18.3186L123.428 22.6815L124.841 24.0952L129.204 19.7323L127.791 18.3186ZM123.428 22.6815C123.208 22.9016 122.943 23.0185 122.56 23.0185V25.0176C123.437 25.0176 124.222 24.7147 124.841 24.0952L123.428 22.6815Z" fill="white"/>
</g>
<path d="M897.761 33.132C897.761 29.884 900.309 27.784 904.229 27.784C907.645 27.784 909.913 29.688 910.305 32.88H908.905C908.625 30.416 906.945 29.016 904.229 29.016C901.149 29.016 899.105 30.64 899.105 33.132C899.105 35.036 900.253 36.296 902.521 36.884L906.049 37.78C909.045 38.536 910.641 40.328 910.641 42.876C910.641 46.208 908.065 48.336 904.089 48.336C900.365 48.336 897.845 46.404 897.537 43.296H898.965C899.077 45.564 901.121 47.076 904.089 47.076C907.253 47.076 909.297 45.452 909.297 42.904C909.297 40.944 908.149 39.628 905.797 39.04L902.353 38.172C899.357 37.416 897.761 35.708 897.761 33.132ZM919.483 48.336C915.591 48.336 913.015 45.536 913.015 41.308C913.015 37.108 915.563 34.224 919.315 34.224C922.815 34.224 925.223 36.744 925.223 40.412V41.308H914.303C914.415 44.976 916.319 47.16 919.483 47.16C921.863 47.16 923.375 46.124 923.907 44.136H925.223C924.439 46.908 922.507 48.336 919.483 48.336ZM919.315 35.4C916.571 35.4 914.639 37.304 914.331 40.244H923.907C923.907 37.332 922.087 35.4 919.315 35.4ZM934.872 34.364V35.484H933.864C931.372 35.484 929.748 37.304 929.748 39.824V48H928.46V34.56H929.664L929.776 36.716C930.308 35.204 931.792 34.224 933.696 34.224C934.116 34.224 934.424 34.252 934.872 34.364ZM941.7 48L936.128 34.56H937.5L941.504 44.332C941.784 45.032 942.064 45.732 942.372 46.684C942.652 45.732 942.932 45.088 943.24 44.332L947.244 34.56H948.588L943.016 48H941.7ZM951.635 30.444C950.991 30.444 950.459 29.912 950.459 29.296C950.459 28.652 950.991 28.092 951.635 28.092C952.251 28.092 952.811 28.652 952.811 29.296C952.811 29.912 952.251 30.444 951.635 30.444ZM950.991 48V34.56H952.279V48H950.991ZM955.534 41.336C955.534 37.08 958.054 34.224 961.918 34.224C964.802 34.224 966.958 35.932 967.574 38.48H966.258C965.698 36.492 963.906 35.372 961.918 35.372C958.922 35.372 956.794 37.668 956.794 41.308C956.794 44.78 958.754 47.16 961.75 47.16C963.906 47.16 965.698 45.928 966.314 44.108H967.63C966.902 46.656 964.606 48.336 961.75 48.336C958.054 48.336 955.534 45.536 955.534 41.336ZM971.377 30.444C970.733 30.444 970.201 29.912 970.201 29.296C970.201 28.652 970.733 28.092 971.377 28.092C971.993 28.092 972.553 28.652 972.553 29.296C972.553 29.912 971.993 30.444 971.377 30.444ZM970.733 48V34.56H972.021V48H970.733ZM975.276 41.28C975.276 37.22 978.104 34.224 981.94 34.224C985.776 34.224 988.604 37.22 988.604 41.28C988.604 45.34 985.776 48.336 981.94 48.336C978.104 48.336 975.276 45.34 975.276 41.28ZM976.592 41.28C976.592 44.724 978.804 47.16 981.94 47.16C985.076 47.16 987.288 44.724 987.288 41.28C987.288 37.836 985.076 35.4 981.94 35.4C978.804 35.4 976.592 37.836 976.592 41.28ZM990.639 44.36H991.899C991.899 46.096 993.187 47.16 995.259 47.16C997.527 47.16 998.927 46.152 998.927 44.5C998.927 43.184 998.283 42.512 996.547 42.064L994.279 41.476C991.983 40.888 990.891 39.6 990.891 37.948C990.891 35.708 992.739 34.224 995.511 34.224C998.283 34.224 1000.02 35.708 1000.1 38.144H998.843C998.759 36.408 997.527 35.4 995.511 35.4C993.355 35.4 992.179 36.296 992.179 37.948C992.179 39.096 992.963 39.908 994.587 40.328L996.827 40.916C999.179 41.532 1000.21 42.624 1000.21 44.5C1000.21 46.796 998.255 48.336 995.315 48.336C992.459 48.336 990.639 46.796 990.639 44.36Z" fill="#FFFEFE"/>
<path d="M1110.48 48.308C1105.05 48.308 1101.27 44.108 1101.27 38.06C1101.27 31.984 1105.08 27.784 1110.6 27.784C1114.66 27.784 1117.96 30.304 1118.83 34.084H1117.34C1116.45 31.004 1113.82 29.072 1110.51 29.072C1105.84 29.072 1102.64 32.712 1102.64 38.06C1102.64 43.408 1105.84 47.02 1110.51 47.02C1113.82 47.02 1116.53 45.172 1117.46 42.316H1118.94C1117.99 45.9 1114.57 48.308 1110.48 48.308ZM1121.17 41.28C1121.17 37.22 1124 34.224 1127.84 34.224C1131.67 34.224 1134.5 37.22 1134.5 41.28C1134.5 45.34 1131.67 48.336 1127.84 48.336C1124 48.336 1121.17 45.34 1121.17 41.28ZM1122.49 41.28C1122.49 44.724 1124.7 47.16 1127.84 47.16C1130.97 47.16 1133.19 44.724 1133.19 41.28C1133.19 37.836 1130.97 35.4 1127.84 35.4C1124.7 35.4 1122.49 37.836 1122.49 41.28ZM1139.03 48H1137.74V34.56H1138.78L1139.06 37.164C1139.95 35.288 1141.8 34.224 1143.82 34.224C1147.63 34.224 1149.05 36.464 1149.05 39.824V48H1147.77V40.076C1147.77 36.52 1146.23 35.4 1143.79 35.4C1140.74 35.4 1139.03 37.668 1139.03 41.056V48ZM1155.57 48H1154.28V35.68H1151.57V34.56H1154.28V30.304H1155.57V34.56H1158.29V35.68H1155.57V48ZM1168.38 30.052L1166.51 33.02H1165.33L1166.84 30.052H1168.38ZM1164.52 48.336C1161.63 48.336 1159.98 46.74 1159.98 44.444C1159.98 41.98 1161.89 40.412 1165.02 40.16L1169.64 39.796V39.292C1169.64 36.268 1167.85 35.4 1165.72 35.4C1163.23 35.4 1161.75 36.576 1161.75 38.536H1160.46C1160.46 35.904 1162.59 34.224 1165.75 34.224C1168.63 34.224 1170.93 35.624 1170.93 39.096V48H1169.89L1169.64 45.48C1168.72 47.3 1166.84 48.336 1164.52 48.336ZM1164.69 47.188C1167.85 47.188 1169.64 44.892 1169.64 41.588V40.86L1165.13 41.224C1162.42 41.448 1161.27 42.764 1161.27 44.416C1161.27 46.264 1162.67 47.188 1164.69 47.188ZM1174 41.336C1174 37.08 1176.52 34.224 1180.39 34.224C1183.27 34.224 1185.43 35.932 1186.04 38.48H1184.73C1184.17 36.492 1182.37 35.372 1180.39 35.372C1177.39 35.372 1175.26 37.668 1175.26 41.308C1175.26 44.78 1177.22 47.16 1180.22 47.16C1182.37 47.16 1184.17 45.928 1184.78 44.108H1186.1C1185.37 46.656 1183.07 48.336 1180.22 48.336C1176.52 48.336 1174 45.536 1174 41.336ZM1191.64 48H1190.35V35.68H1187.63V34.56H1190.35V30.304H1191.64V34.56H1194.35V35.68H1191.64V48ZM1202.37 48.336C1198.48 48.336 1195.91 45.536 1195.91 41.308C1195.91 37.108 1198.45 34.224 1202.21 34.224C1205.71 34.224 1208.11 36.744 1208.11 40.412V41.308H1197.19C1197.31 44.976 1199.21 47.16 1202.37 47.16C1204.75 47.16 1206.27 46.124 1206.8 44.136H1208.11C1207.33 46.908 1205.4 48.336 1202.37 48.336ZM1202.21 35.4C1199.46 35.4 1197.53 37.304 1197.22 40.244H1206.8C1206.8 37.332 1204.98 35.4 1202.21 35.4ZM1212.64 48H1211.35V34.56H1212.39L1212.67 37.164C1213.56 35.288 1215.41 34.224 1217.43 34.224C1221.23 34.224 1222.66 36.464 1222.66 39.824V48H1221.37V40.076C1221.37 36.52 1219.83 35.4 1217.4 35.4C1214.35 35.4 1212.64 37.668 1212.64 41.056V48ZM1225.74 41.28C1225.74 37.22 1228.57 34.224 1232.4 34.224C1236.24 34.224 1239.07 37.22 1239.07 41.28C1239.07 45.34 1236.24 48.336 1232.4 48.336C1228.57 48.336 1225.74 45.34 1225.74 41.28ZM1227.05 41.28C1227.05 44.724 1229.27 47.16 1232.4 47.16C1235.54 47.16 1237.75 44.724 1237.75 41.28C1237.75 37.836 1235.54 35.4 1232.4 35.4C1229.27 35.4 1227.05 37.836 1227.05 41.28ZM1241.1 44.36H1242.36C1242.36 46.096 1243.65 47.16 1245.72 47.16C1247.99 47.16 1249.39 46.152 1249.39 44.5C1249.39 43.184 1248.74 42.512 1247.01 42.064L1244.74 41.476C1242.44 40.888 1241.35 39.6 1241.35 37.948C1241.35 35.708 1243.2 34.224 1245.97 34.224C1248.74 34.224 1250.48 35.708 1250.56 38.144H1249.3C1249.22 36.408 1247.99 35.4 1245.97 35.4C1243.82 35.4 1242.64 36.296 1242.64 37.948C1242.64 39.096 1243.42 39.908 1245.05 40.328L1247.29 40.916C1249.64 41.532 1250.68 42.624 1250.68 44.5C1250.68 46.796 1248.72 48.336 1245.78 48.336C1242.92 48.336 1241.1 46.796 1241.1 44.36Z" fill="#FFFEFE"/>
<g filter="url(#filter0_b_797_299)">
<rect x="1350" width="178" height="76" rx="20" fill="#A5A5A5" fill-opacity="0.22"/>
<path d="M1388.39 40.776H1383.27V48H1380.53V27.756H1388.39C1392.37 27.756 1394.92 30.36 1394.92 34.252C1394.92 38.032 1392.34 40.776 1388.39 40.776ZM1387.92 30.22H1383.27V38.312H1387.81C1390.52 38.312 1392.03 36.716 1392.03 34.224C1392.03 31.676 1390.49 30.22 1387.92 30.22ZM1396.05 41.14C1396.05 36.912 1399.08 33.944 1403.19 33.944C1407.28 33.944 1410.3 36.912 1410.3 41.14C1410.3 45.368 1407.28 48.336 1403.19 48.336C1399.08 48.336 1396.05 45.368 1396.05 41.14ZM1398.71 41.14C1398.71 43.996 1400.53 45.984 1403.19 45.984C1405.82 45.984 1407.67 43.996 1407.67 41.14C1407.67 38.284 1405.82 36.296 1403.19 36.296C1400.53 36.296 1398.71 38.284 1398.71 41.14ZM1421.06 34.196V36.604H1419.88C1417.39 36.604 1415.85 38.116 1415.85 40.748V48H1413.22V34.336H1415.68L1415.85 36.408C1416.41 34.98 1417.78 34.028 1419.66 34.028C1420.13 34.028 1420.53 34.084 1421.06 34.196ZM1427.94 48H1425.31V36.52H1422.62V34.308H1425.31V30.024H1427.94V34.308H1430.63V36.52H1427.94V48ZM1436.83 48.336C1433.89 48.336 1432.15 46.684 1432.15 44.192C1432.15 41.672 1434.03 40.104 1437.25 39.852L1441.56 39.516V39.124C1441.56 36.828 1440.19 36.016 1438.34 36.016C1436.13 36.016 1434.87 36.996 1434.87 38.648H1432.57C1432.57 35.792 1434.92 33.916 1438.45 33.916C1441.84 33.916 1444.14 35.708 1444.14 39.404V48H1441.9L1441.62 45.788C1440.92 47.356 1439.04 48.336 1436.83 48.336ZM1437.58 46.292C1440.08 46.292 1441.59 44.668 1441.59 42.092V41.364L1438.09 41.644C1435.76 41.868 1434.81 42.764 1434.81 44.108C1434.81 45.564 1435.88 46.292 1437.58 46.292ZM1446.24 34.308H1448.26V32.124C1448.26 28.764 1450.11 27.392 1452.6 27.392C1453.1 27.392 1453.69 27.42 1454.22 27.504V29.772H1453.05C1451.34 29.772 1450.89 30.64 1450.89 32.124V34.308H1454.14V36.52H1450.89V48H1448.26V36.52H1446.24V34.308ZM1455.28 41.14C1455.28 36.912 1458.3 33.944 1462.42 33.944C1466.51 33.944 1469.53 36.912 1469.53 41.14C1469.53 45.368 1466.51 48.336 1462.42 48.336C1458.3 48.336 1455.28 45.368 1455.28 41.14ZM1457.94 41.14C1457.94 43.996 1459.76 45.984 1462.42 45.984C1465.05 45.984 1466.9 43.996 1466.9 41.14C1466.9 38.284 1465.05 36.296 1462.42 36.296C1459.76 36.296 1457.94 38.284 1457.94 41.14ZM1475.13 48H1472.5V27.392H1475.13V48ZM1480.3 31.06C1479.34 31.06 1478.56 30.276 1478.56 29.324C1478.56 28.344 1479.34 27.588 1480.3 27.588C1481.25 27.588 1482.03 28.344 1482.03 29.324C1482.03 30.276 1481.25 31.06 1480.3 31.06ZM1479.01 48V34.308H1481.64V48H1479.01ZM1484.56 41.14C1484.56 36.912 1487.59 33.944 1491.7 33.944C1495.79 33.944 1498.82 36.912 1498.82 41.14C1498.82 45.368 1495.79 48.336 1491.7 48.336C1487.59 48.336 1484.56 45.368 1484.56 41.14ZM1487.22 41.14C1487.22 43.996 1489.04 45.984 1491.7 45.984C1494.34 45.984 1496.18 43.996 1496.18 41.14C1496.18 38.284 1494.34 36.296 1491.7 36.296C1489.04 36.296 1487.22 38.284 1487.22 41.14Z" fill="#FFFEFE"/>
</g>
<defs>
<filter id="filter0_b_797_299" x="1332" y="-18" width="214" height="112" filterUnits="userSpaceOnUse" color-interpolation-filters="sRGB">
<feFlood flood-opacity="0" result="BackgroundImageFix"/>
<feGaussianBlur in="BackgroundImageFix" stdDeviation="9"/>
<feComposite in2="SourceAlpha" operator="in" result="effect1_backgroundBlur_797_299"/>
<feBlend mode="normal" in="SourceGraphic" in2="effect1_backgroundBlur_797_299" result="shape"/>
</filter>
</defs>
</svg>
