<svg width="4181" height="956" viewBox="0 0 4181 956" fill="none" xmlns="http://www.w3.org/2000/svg">
<path fill-rule="evenodd" clip-rule="evenodd" d="M1127.65 910.468L1127.83 910.574L1128.01 910.677C1177.29 938.839 1232.25 952.756 1292.38 952.756C1352.5 952.756 1407.16 938.839 1455.79 910.601L1455.91 910.535L1456.02 910.468C1504.23 881.694 1542.45 842.701 1570.44 793.774C1599.38 744.441 1613.67 689.062 1613.67 628.2V131.921C1613.67 110.419 1606.94 91.0495 1591.99 76.0968C1577.04 61.1441 1557.67 54.4165 1536.17 54.4165C1515.07 54.4165 1496.15 61.3197 1480.89 75.5699L1480.61 75.8287L1480.34 76.0968C1465.39 91.0495 1458.66 110.419 1458.66 131.921V372.313C1440.66 357.381 1420.73 344.668 1398.92 334.184C1359.46 314.486 1316.58 304.733 1270.61 304.733C1213.77 304.733 1162.13 319.189 1116.32 348.38C1070.87 376.618 1034.93 415.422 1008.55 464.297L1008.52 464.353L1008.49 464.409C982.655 512.955 970 567.732 970 628.2C970 688.998 983.893 744.333 1012.08 793.658L1012.14 793.771L1012.21 793.884C1040.9 842.744 1079.45 881.703 1127.65 910.468ZM1379.76 470.546L1379.93 470.652L1380.1 470.755C1405.68 486.104 1425.82 507.144 1440.69 534.287C1455.38 561.125 1463.01 592.235 1463.01 628.2C1463.01 663.356 1455.42 694.569 1440.58 722.303C1425.68 750.171 1405.5 771.901 1379.93 787.923C1354.68 803.029 1325.7 810.806 1292.38 810.806C1259.91 810.806 1230.86 803.089 1204.73 787.86C1179.17 771.824 1158.62 750.056 1142.99 722.13C1128.22 694.439 1120.66 663.283 1120.66 628.2C1120.66 592.313 1128.25 561.26 1142.89 534.462C1158.49 507.219 1179.05 486.123 1204.66 470.755L1204.73 470.715L1204.79 470.674C1230.95 454.728 1259.97 446.682 1292.38 446.682C1325.61 446.682 1354.52 454.77 1379.76 470.546ZM1895.55 911.839L1895.72 911.938L1895.9 912.035C1946.65 939.36 2004 952.756 2067.41 952.756C2103.5 952.756 2140.7 946.088 2178.9 933.105C2217.69 920.171 2250.87 903.165 2277.93 881.715C2294.7 868.82 2304.98 851.103 2303.77 829.409C2302.64 809.044 2292.32 791.937 2276.77 778.218L2276.6 778.067L2276.43 777.92C2262.59 766.209 2245.95 760.964 2227.87 761.834C2210.65 761.967 2194.76 767.711 2180.64 778.062L2180.55 778.132L2180.45 778.203C2168.25 787.355 2151.21 796.223 2128.64 804.445C2107.58 811.665 2087.19 815.159 2067.41 815.159C2029.37 815.159 1996.56 806.851 1968.35 790.823C1939.75 774.571 1917.56 752.661 1901.41 724.887C1894.93 713.749 1889.73 701.927 1885.83 689.38H2272.01C2291.28 689.38 2308.82 683.439 2322.85 670.486L2323.17 670.187L2323.48 669.876C2337.19 656.167 2344.08 638.895 2344.08 619.493C2344.08 598.359 2342.66 577.994 2339.81 558.424L2339.97 558.313H2339.79C2334.54 522.324 2324.4 489.023 2309.2 458.571C2286.4 410.7 2252.76 373.019 2208.46 346.092C2163.76 318.195 2110.99 304.733 2051.08 304.733C1990.34 304.733 1935.65 318.601 1887.65 346.897C1839.88 374.332 1802.27 412.805 1775 461.885L1774.97 461.937L1774.95 461.99C1748.23 510.701 1735.23 566.69 1735.23 629.288C1735.23 691.432 1749.08 747.515 1777.31 796.923L1777.41 797.104L1777.52 797.282C1806.37 845.62 1845.83 883.871 1895.55 911.839ZM1897.89 532.108C1911.37 503.865 1930.68 482.095 1955.98 466.257C1981.66 450.627 2013.05 442.329 2051.08 442.329C2083.91 442.329 2110.35 449.841 2131.51 463.746C2153.34 478.092 2170.33 497.764 2182.49 523.365L2182.53 523.463L2182.58 523.561C2187.85 534.376 2192.09 545.948 2195.26 558.313H1887.42C1890.3 549.238 1893.76 540.567 1897.81 532.286L1897.85 532.197L1897.89 532.108ZM2592.32 716.647L2621.9 690.24L2814.41 928.265L2814.43 928.285L2814.44 928.304C2827.32 944.153 2844.34 953.658 2864.66 954.873C2884.92 956.771 2903.54 950.917 2919.4 938.035L2919.45 937.99L2919.51 937.943C2935.31 924.929 2945.75 908.183 2947.05 887.905C2949 868.021 2942.9 849.782 2930.22 834.17L2732.83 591.236L2917.09 426.784L2917.27 426.617C2931.68 413.166 2940.55 396.446 2941.64 376.928C2942.73 357.166 2935.34 339.62 2921.88 325.075C2908.76 310.09 2891.77 301.465 2871.88 300.411C2852.09 299.322 2834.52 306.758 2819.96 320.265L2592.32 523.441V129.745C2592.32 108.956 2585.56 90.2632 2570.64 76.0891C2556.47 61.1689 2537.78 54.4165 2516.99 54.4165C2495.9 54.4165 2477.01 61.3366 2462.25 76.0968C2447.9 90.4495 2441.66 109.177 2441.66 129.745V873.074C2441.66 893.688 2447.9 912.381 2461.69 927.224L2462.24 927.821L2462.84 928.376C2477.68 942.158 2496.38 948.403 2516.99 948.403C2537.56 948.403 2556.28 942.163 2570.64 927.811C2585.4 913.05 2592.32 894.161 2592.32 873.074V716.647ZM3212.2 385.502C3212.83 384.94 3213.47 384.381 3214.11 383.825C3213.47 384.381 3212.83 384.94 3212.2 385.502ZM3214.12 871.986V554.194C3214.12 525.96 3222.8 504.114 3239.37 486.907C3257.51 468.821 3282.73 455.642 3316.47 448.364C3349.79 441.178 3388.28 441.619 3432.35 450.542C3444.04 453.205 3455.71 453.831 3467.05 451.769C3478.73 449.645 3489.32 444.721 3498.28 436.886L3498.34 436.829L3498.41 436.772C3508.95 427.405 3515.26 415.109 3518.27 401.443C3521.88 387.124 3520.77 372.712 3514.08 359.339C3507.62 346.42 3496.82 336.18 3483.95 327.965C3457.48 309.876 3419.95 302.556 3374.96 302.556C3327.85 302.556 3284.21 313.592 3244.49 335.834C3232.46 342.574 3221.14 350.063 3210.54 358.296C3207.38 347.472 3201.95 337.666 3193.54 329.671C3179.22 314.603 3159.08 309.086 3137.7 309.086C3116.31 309.086 3096.58 314.971 3081.88 329.678C3067.17 344.384 3061.29 364.109 3061.29 385.502V871.986C3061.29 893.806 3067.01 914.034 3081.88 928.899L3082.19 929.21L3082.51 929.508C3097.27 943.132 3116.76 948.403 3137.7 948.403C3159.23 948.403 3179.5 942.808 3193.83 927.501C3208.32 912.828 3214.12 893.23 3214.12 871.986ZM3717.25 919.514L3717.46 919.631L3717.67 919.743C3761.08 942.629 3809.65 953.844 3862.89 953.844C3914.74 953.844 3961.66 942.598 4003.04 919.539C4013.03 914.069 4022.52 908.112 4031.5 901.668C4035.01 910.578 4040.18 918.803 4047.06 926.177L4047.57 926.732L4048.13 927.249C4063.4 941.499 4082.31 948.403 4103.41 948.403C4124.91 948.403 4144.28 941.675 4159.23 926.722L4159.5 926.454L4159.76 926.177C4174.01 910.909 4180.91 891.992 4180.91 870.898V385.502C4180.91 364 4174.19 344.63 4159.23 329.678C4144.28 314.725 4124.91 307.997 4103.41 307.997C4082.31 307.997 4063.4 314.901 4048.13 329.151L4047.85 329.41L4047.58 329.678C4032.63 344.631 4025.9 364 4025.9 385.502V692.411C4025.9 714.174 4019.95 733.379 4008.03 750.663C3995.79 768.41 3979.15 782.729 3957.53 793.539L3957.41 793.598L3957.29 793.659C3936.92 804.151 3912.9 809.718 3884.65 809.718C3854.93 809.718 3828.89 804.136 3806.12 793.428C3784.1 782.37 3766.64 765.904 3753.53 743.471C3740.72 720.836 3733.61 691.159 3733.61 653.232V385.502C3733.61 364.19 3726.16 345.333 3710.85 330.76C3696.28 315.444 3677.42 307.997 3656.11 307.997C3634.55 307.997 3615.46 315.589 3600.28 330.766C3585.52 345.526 3578.6 364.416 3578.6 385.502V653.232C3578.6 716.124 3590.34 770.749 3615.01 816.109L3615.08 816.239L3615.15 816.368C3640.25 861.062 3674.3 895.652 3717.25 919.514ZM3833.74 237.264L3834.26 237.818L3834.82 238.336C3850.08 252.586 3869 259.489 3890.1 259.489C3910.77 259.489 3929.19 252.362 3943.74 237.809L4048.84 132.711C4056.93 125.472 4063.13 116.645 4066.6 106.228C4069.56 97.3366 4070.99 88.085 4070.99 78.5932C4070.99 57.4992 4064.09 38.5821 4049.84 23.3139C4035 7.40991 4015.46 0 3993.49 0C3972.35 0 3953.71 7.80657 3938.75 22.7686L3831.78 129.736L3831.49 130.059C3818.34 144.295 3812.59 162.315 3812.59 181.985C3812.59 203.078 3819.49 221.996 3833.74 237.264Z" fill="white"/>
<path d="M82.4336 816.352L664.352 816.352L664.352 954.721L82.4336 954.721L82.4336 816.352Z" fill="url(#paint0_linear_1162_1443)" fill-opacity="0.9"/>
<path d="M161.16 885.536C161.16 923.746 130.185 954.721 91.9755 954.721C53.7659 954.721 22.791 923.746 22.791 885.536C22.791 847.327 53.766 816.352 91.9755 816.352C130.185 816.352 161.16 847.327 161.16 885.536Z" fill="#0976DD"/>
<path d="M723.992 885.536C723.992 923.746 693.017 954.721 654.808 954.721C616.598 954.721 585.623 923.746 585.623 885.536C585.623 847.327 616.598 816.352 654.808 816.352C693.017 816.352 723.992 847.327 723.992 885.536Z" fill="#00A48B"/>
<path d="M126.496 90.0312L731.288 378.85L670.745 505.63L65.9522 216.811L126.496 90.0312Z" fill="url(#paint1_linear_1162_1443)" fill-opacity="0.5"/>
<path d="M154.422 187.1C135.318 220.19 93.005 231.528 59.9146 212.423C26.8242 193.318 15.4866 151.006 34.5913 117.916C53.6961 84.8251 96.0087 73.4875 129.099 92.5922C162.19 111.697 173.527 154.01 154.422 187.1Z" fill="#FF28A7"/>
<path opacity="0.9" d="M69 579.773L686.578 371.998L730.483 502.497L112.905 710.273L69 579.773Z" fill="url(#paint2_linear_1162_1443)" fill-opacity="0.9"/>
<path d="M630.098 459.138C620.208 422.23 642.111 384.294 679.019 374.404C715.926 364.515 753.863 386.418 763.752 423.325C773.641 460.233 751.739 498.169 714.831 508.059C677.924 517.948 639.987 496.045 630.098 459.138Z" fill="#9227FF"/>
<path d="M25.9064 663.325C16.017 626.418 37.9196 588.481 74.8272 578.592C111.735 568.703 149.671 590.605 159.561 627.513C169.45 664.42 147.547 702.357 110.64 712.246C73.7321 722.135 35.7957 700.233 25.9064 663.325Z" fill="#FF914C"/>
<defs>
<linearGradient id="paint0_linear_1162_1443" x1="82.4336" y1="885.536" x2="680.879" y2="885.536" gradientUnits="userSpaceOnUse">
<stop stop-color="#0976DD"/>
<stop offset="1" stop-color="#00A48B"/>
</linearGradient>
<linearGradient id="paint1_linear_1162_1443" x1="97.5319" y1="163.329" x2="632.647" y2="414.295" gradientUnits="userSpaceOnUse">
<stop stop-color="#FF28A7"/>
<stop offset="1" stop-color="#9227FF"/>
</linearGradient>
<linearGradient id="paint2_linear_1162_1443" x1="176.621" y1="623.057" x2="737.399" y2="460.541" gradientUnits="userSpaceOnUse">
<stop stop-color="#FF914C"/>
<stop offset="1" stop-color="#9227FF"/>
</linearGradient>
</defs>
</svg>
