<svg width="3036" height="879" viewBox="0 0 3036 879" fill="none" xmlns="http://www.w3.org/2000/svg">
<path d="M344.352 861C328.389 861 314.967 855.558 304.083 844.675C293.2 833.792 287.758 820.369 287.758 804.407V11.014H400.945V804.407C400.945 820.369 395.503 833.792 384.62 844.675C373.737 855.558 360.314 861 344.352 861ZM52.6791 115.494C37.4424 115.494 24.7453 110.778 14.5875 101.345C5.15531 91.1877 0.439213 78.4905 0.439213 63.2538C0.439213 48.0172 5.15531 35.6828 14.5875 26.2506C24.7453 16.0929 37.4424 11.014 52.6791 11.014H634.936C650.172 11.014 662.507 16.0929 671.939 26.2506C682.097 35.6828 687.176 48.0172 687.176 63.2538C687.176 78.4905 682.097 91.1877 671.939 101.345C662.507 110.778 650.172 115.494 634.936 115.494H52.6791ZM1139.19 871.883C1080.42 871.883 1025.28 861 973.764 839.233C922.975 816.741 878.353 785.905 839.899 746.725C802.17 706.82 772.423 660.384 750.656 607.419C729.615 554.454 719.094 497.135 719.094 435.463C719.094 374.516 729.615 317.923 750.656 265.683C772.423 212.718 802.17 166.645 839.899 127.465C878.353 87.5599 922.975 56.3611 973.764 33.8689C1024.55 11.3768 1079.69 0.130706 1139.19 0.130706C1195.06 0.130706 1242.94 7.38623 1282.85 21.8973C1323.48 36.4083 1364.11 60.3516 1404.74 93.7271C1410.55 98.0804 1414.9 102.796 1417.8 107.875C1421.43 112.229 1423.61 116.945 1424.33 122.024C1425.78 126.377 1426.51 131.819 1426.51 138.349C1426.51 152.134 1421.43 163.743 1411.27 173.175C1401.84 182.607 1389.87 187.686 1375.36 188.412C1361.57 189.137 1348.51 184.421 1336.18 174.264C1309.33 151.046 1281.4 133.27 1252.38 120.935C1224.08 108.601 1186.35 102.434 1139.19 102.434C1096.38 102.434 1056.11 111.14 1018.39 128.554C980.656 145.967 947.281 169.91 918.259 200.383C889.962 230.857 867.833 266.409 851.871 307.04C835.908 346.945 827.927 389.753 827.927 435.463C827.927 481.898 835.908 525.431 851.871 566.062C867.833 605.968 889.962 641.157 918.259 671.631C947.281 702.104 980.656 726.047 1018.39 743.46C1056.11 760.148 1096.38 768.492 1139.19 768.492C1176.19 768.492 1211.02 762.325 1243.67 749.99C1277.05 736.93 1308.97 719.154 1339.44 696.662C1352.5 687.23 1365.2 683.239 1377.53 684.69C1390.59 685.416 1401.48 690.495 1410.18 699.927C1418.89 708.634 1423.24 720.968 1423.24 736.93C1423.24 744.186 1421.79 751.441 1418.89 758.697C1416.71 765.227 1412.36 771.394 1405.83 777.199C1367.38 809.123 1325.66 833.066 1280.67 849.028C1235.69 864.265 1188.53 871.883 1139.19 871.883ZM1423.24 736.93L1314.41 715.164V520.353H1164.22C1148.26 520.353 1134.84 515.636 1123.95 506.204C1113.07 496.772 1107.63 484.8 1107.63 470.289C1107.63 455.778 1113.07 443.807 1123.95 434.374C1134.84 424.942 1148.26 420.226 1164.22 420.226H1367.74C1384.43 420.226 1397.85 425.668 1408.01 436.551C1418.17 446.709 1423.24 460.132 1423.24 476.819V736.93ZM1858.95 861C1843.71 861 1830.65 855.558 1819.77 844.675C1808.89 833.792 1803.45 820.369 1803.45 804.407V550.826L1512.86 99.1687C1503.43 83.9321 1499.8 69.7838 1501.98 56.7239C1504.15 42.9384 1510.32 32.055 1520.48 24.0739C1531.36 15.3673 1543.7 11.014 1557.48 11.014C1569.82 11.014 1579.61 13.9162 1586.87 19.7206C1594.12 24.7995 1601.02 32.4178 1607.55 42.5756L1883.98 481.173H1840.45L2121.24 38.2222C2127.04 29.5156 2133.94 22.9856 2141.92 18.6323C2149.9 13.5534 2159.69 11.014 2171.3 11.014C2184.36 11.014 2195.24 15.7301 2203.95 25.1623C2212.66 33.8689 2217.74 45.115 2219.19 58.9005C2220.64 71.9605 2217.01 85.3832 2208.3 99.1687L1915.54 550.826V804.407C1915.54 820.369 1910.1 833.792 1899.22 844.675C1888.34 855.558 1874.91 861 1858.95 861ZM2689.26 878.413C2619.61 878.413 2557.94 865.716 2504.25 840.322C2450.55 814.202 2408.47 778.287 2378 732.577C2348.25 686.867 2333.38 634.627 2333.38 575.857V67.6072C2333.38 50.9194 2338.82 37.4967 2349.7 27.3389C2360.59 16.4556 2374.01 11.014 2389.97 11.014C2406.66 11.014 2420.08 16.4556 2430.24 27.3389C2441.12 37.4967 2446.56 50.9194 2446.56 67.6072V575.857C2446.56 615.037 2456.72 649.864 2477.04 680.337C2498.08 710.085 2526.74 733.665 2563.02 751.079C2600.02 767.766 2642.1 776.11 2689.26 776.11C2734.97 776.11 2775.24 767.766 2810.07 751.079C2845.62 733.665 2873.19 710.085 2892.78 680.337C2913.09 649.864 2923.25 615.037 2923.25 575.857V67.6072C2923.25 50.9194 2928.69 37.4967 2939.58 27.3389C2950.46 16.4556 2963.88 11.014 2979.85 11.014C2996.53 11.014 3009.96 16.4556 3020.11 27.3389C3030.27 37.4967 3035.35 50.9194 3035.35 67.6072V575.857C3035.35 634.627 3020.48 686.867 2990.73 732.577C2961.71 778.287 2921.08 814.202 2868.84 840.322C2816.6 865.716 2756.74 878.413 2689.26 878.413Z" fill="black"/>
<path d="M304.083 844.675L280.749 868.01L280.749 868.01L304.083 844.675ZM287.758 11.014V-21.986H254.758V11.014H287.758ZM400.945 11.014H433.945V-21.986H400.945V11.014ZM384.62 844.675L407.954 868.01L407.954 868.01L384.62 844.675ZM14.5875 101.345L-9.59468 123.8L-8.76299 124.696L-7.86733 125.528L14.5875 101.345ZM14.5875 26.2506L-8.74701 2.91609L-8.74703 2.91611L14.5875 26.2506ZM671.939 26.2506L647.757 48.7055L648.589 49.6011L649.484 50.4328L671.939 26.2506ZM671.939 101.345L695.274 124.68L695.274 124.68L671.939 101.345ZM344.352 828C336.779 828 331.861 825.783 327.418 821.341L280.749 868.01C298.073 885.333 320 894 344.352 894V828ZM327.418 821.341C322.975 816.898 320.758 811.979 320.758 804.407H254.758C254.758 828.759 263.425 850.686 280.749 868.01L327.418 821.341ZM320.758 804.407V11.014H254.758V804.407H320.758ZM287.758 44.014H400.945V-21.986H287.758V44.014ZM367.945 11.014V804.407H433.945V11.014H367.945ZM367.945 804.407C367.945 811.979 365.728 816.898 361.285 821.341L407.954 868.01C425.278 850.686 433.945 828.759 433.945 804.407H367.945ZM361.285 821.341C356.842 825.783 351.924 828 344.352 828V894C368.704 894 390.631 885.333 407.954 868.01L361.285 821.341ZM52.6791 82.4937C44.8743 82.4937 40.4688 80.3449 37.0423 77.1632L-7.86733 125.528C9.02174 141.21 30.0106 148.494 52.6791 148.494V82.4937ZM38.7697 78.8905C35.588 75.4641 33.4392 71.0586 33.4392 63.2538H-32.5608C-32.5608 85.9223 -25.2774 106.911 -9.59468 123.8L38.7697 78.8905ZM33.4392 63.2538C33.4392 55.4165 35.5737 51.9335 37.922 49.5851L-8.74703 2.91611C-25.2631 19.4322 -32.5608 40.618 -32.5608 63.2538H33.4392ZM37.922 49.5851C41.4865 46.0206 45.6054 44.014 52.6791 44.014V-21.986C29.2795 -21.986 8.00399 -13.8349 -8.74701 2.91609L37.922 49.5851ZM52.6791 44.014H634.936V-21.986H52.6791V44.014ZM634.936 44.014C642.008 44.014 645.226 45.9796 647.757 48.7055L696.121 3.79572C679.788 -13.7938 658.337 -21.986 634.936 -21.986V44.014ZM649.484 50.4328C652.21 52.964 654.176 56.1813 654.176 63.2538H720.176C720.176 39.8532 711.984 18.4016 694.394 2.06845L649.484 50.4328ZM654.176 63.2538C654.176 70.3276 652.169 74.4464 648.605 78.0109L695.274 124.68C712.025 107.929 720.176 86.6534 720.176 63.2538H654.176ZM648.605 78.0108C646.256 80.3592 642.773 82.4937 634.936 82.4937V148.494C657.572 148.494 678.757 141.196 695.274 124.68L648.605 78.0108ZM634.936 82.4937H52.6791V148.494H634.936V82.4937ZM973.764 839.233L960.401 869.407L960.659 869.521L960.92 869.631L973.764 839.233ZM839.899 746.725L815.92 769.397L816.132 769.621L816.347 769.841L839.899 746.725ZM750.656 607.419L719.987 619.602L720.059 619.783L720.133 619.963L750.656 607.419ZM750.656 265.683L720.133 253.14L720.089 253.247L720.046 253.354L750.656 265.683ZM839.899 127.465L816.136 104.567L816.128 104.575L839.899 127.465ZM973.764 33.8689L960.401 3.69536L960.401 3.69537L973.764 33.8689ZM1282.85 21.8973L1271.57 52.9105L1271.66 52.9429L1271.75 52.9748L1282.85 21.8973ZM1404.74 93.7271L1383.8 119.227L1384.36 119.69L1384.94 120.127L1404.74 93.7271ZM1417.8 107.875L1389.15 124.248L1390.59 126.77L1392.45 129.001L1417.8 107.875ZM1424.33 122.024L1391.66 126.691L1392.08 129.636L1393.03 132.459L1424.33 122.024ZM1411.27 173.175L1388.82 148.993L1388.37 149.409L1387.94 149.841L1411.27 173.175ZM1375.36 188.412L1373.71 155.453L1373.67 155.455L1373.62 155.457L1375.36 188.412ZM1336.18 174.264L1314.59 199.224L1314.89 199.484L1315.2 199.737L1336.18 174.264ZM1252.38 120.935L1239.19 151.186L1239.33 151.247L1239.47 151.306L1252.38 120.935ZM918.259 200.383L894.362 177.625L894.218 177.776L894.077 177.929L918.259 200.383ZM851.871 307.04L882.51 319.296L882.548 319.201L882.585 319.106L851.871 307.04ZM851.871 566.062L821.156 578.129L821.193 578.224L821.231 578.318L851.871 566.062ZM918.259 671.631L894.077 694.085L894.218 694.238L894.362 694.389L918.259 671.631ZM1018.39 743.46L1004.56 773.423L1004.8 773.533L1005.04 773.64L1018.39 743.46ZM1243.67 749.99L1255.33 780.861L1255.51 780.792L1255.69 780.721L1243.67 749.99ZM1339.44 696.662L1320.12 669.91L1319.98 670.01L1319.85 670.111L1339.44 696.662ZM1377.53 684.69L1373.68 717.464L1374.69 717.583L1375.7 717.64L1377.53 684.69ZM1410.18 699.927L1385.94 722.31L1386.38 722.795L1386.85 723.262L1410.18 699.927ZM1418.89 758.697L1388.25 746.441L1387.89 747.341L1387.58 748.262L1418.89 758.697ZM1405.83 777.199L1426.91 802.589L1427.34 802.233L1427.75 801.863L1405.83 777.199ZM1280.67 849.028L1291.26 880.284L1291.48 880.208L1291.71 880.128L1280.67 849.028ZM1423.24 736.93L1416.77 769.289L1456.24 777.184V736.93H1423.24ZM1314.41 715.164H1281.41V742.217L1307.94 747.523L1314.41 715.164ZM1314.41 520.353H1347.41V487.353H1314.41V520.353ZM1123.95 506.204L1102.34 531.142L1102.34 531.142L1123.95 506.204ZM1123.95 434.374L1102.34 409.437L1102.34 409.437L1123.95 434.374ZM1408.01 436.551L1383.88 459.068L1384.27 459.483L1384.67 459.886L1408.01 436.551ZM1139.19 838.883C1084.6 838.883 1033.85 828.798 986.608 808.836L960.92 869.631C1016.7 893.202 1076.24 904.883 1139.19 904.883V838.883ZM987.126 809.06C940.103 788.235 898.95 759.779 863.451 723.61L816.347 769.841C857.757 812.032 905.847 845.247 960.401 869.407L987.126 809.06ZM863.878 724.054C829.053 687.219 801.472 644.254 781.179 594.875L720.133 619.963C743.373 676.515 775.288 726.421 815.92 769.397L863.878 724.054ZM781.325 595.236C761.946 546.455 752.094 493.308 752.094 435.463H686.094C686.094 500.962 697.284 562.452 719.987 619.602L781.325 595.236ZM752.094 435.463C752.094 378.391 761.929 326.022 781.266 278.012L720.046 253.354C697.301 309.825 686.094 370.641 686.094 435.463H752.094ZM781.179 278.227C801.451 228.899 828.973 186.386 863.67 150.356L816.128 104.575C775.367 146.904 743.394 196.537 720.133 253.14L781.179 278.227ZM863.662 150.364C899.146 113.541 940.233 84.8095 987.126 64.0424L960.401 3.69537C905.717 27.9127 857.561 61.579 816.136 104.567L863.662 150.364ZM987.126 64.0424C1033.41 43.544 1083.96 33.1307 1139.19 33.1307V-32.8693C1075.42 -32.8693 1015.69 -20.7904 960.401 3.69536L987.126 64.0424ZM1139.19 33.1307C1192.36 33.1307 1236.22 40.0555 1271.57 52.9105L1294.13 -9.1159C1249.67 -25.283 1197.76 -32.8693 1139.19 -32.8693V33.1307ZM1271.75 52.9748C1308.12 65.9626 1345.48 87.7536 1383.8 119.227L1425.69 68.2271C1382.74 32.9496 1338.84 6.85412 1293.95 -9.18019L1271.75 52.9748ZM1384.94 120.127C1387.98 122.408 1388.95 123.9 1389.15 124.248L1446.45 91.5028C1440.85 81.6927 1433.11 73.753 1424.54 67.327L1384.94 120.127ZM1392.45 129.001C1392.58 129.158 1392.42 128.998 1392.19 128.506C1391.96 127.994 1391.76 127.36 1391.66 126.691L1457 117.357C1455.32 105.597 1450.28 95.297 1443.15 86.7493L1392.45 129.001ZM1393.03 132.459C1392.98 132.32 1393.12 132.687 1393.25 133.731C1393.39 134.766 1393.51 136.278 1393.51 138.349H1459.51C1459.51 129.644 1458.58 120.399 1455.64 111.588L1393.03 132.459ZM1393.51 138.349C1393.51 142.9 1392.29 145.766 1388.82 148.993L1433.73 197.357C1450.57 181.72 1459.51 161.368 1459.51 138.349H1393.51ZM1387.94 149.841C1384.83 152.95 1380.84 155.096 1373.71 155.453L1377.01 221.371C1398.9 220.276 1418.85 212.264 1434.61 196.51L1387.94 149.841ZM1373.62 155.457C1369.37 155.682 1364.19 154.584 1357.16 148.79L1315.2 199.737C1332.83 214.258 1353.78 222.593 1377.09 221.366L1373.62 155.457ZM1357.76 149.304C1328.65 124.12 1297.83 104.397 1265.28 90.5644L1239.47 151.306C1264.97 162.142 1290.02 177.972 1314.59 199.224L1357.76 149.304ZM1265.56 90.6844C1231.5 75.8372 1188.73 69.4337 1139.19 69.4337V135.434C1183.97 135.434 1216.66 141.365 1239.19 151.186L1265.56 90.6844ZM1139.19 69.4337C1091.76 69.4337 1046.75 79.1155 1004.56 98.591L1032.21 158.516C1065.47 143.165 1101.01 135.434 1139.19 135.434V69.4337ZM1004.56 98.591C962.998 117.772 926.218 144.176 894.362 177.625L942.155 223.142C968.344 195.644 998.315 174.162 1032.21 158.516L1004.56 98.591ZM894.077 177.929C862.834 211.575 838.551 250.695 821.156 294.973L882.585 319.106C897.115 282.122 917.091 250.139 942.441 222.838L894.077 177.929ZM821.231 294.784C803.612 338.83 794.927 385.824 794.927 435.463H860.927C860.927 393.681 868.205 355.06 882.51 319.296L821.231 294.784ZM794.927 435.463C794.927 485.762 803.589 533.414 821.156 578.129L882.585 553.996C868.228 517.449 860.927 478.034 860.927 435.463H794.927ZM821.231 578.318C838.649 621.863 862.926 660.539 894.077 694.085L942.441 649.176C916.998 621.776 897.017 590.073 882.51 553.807L821.231 578.318ZM894.362 694.389C926.218 727.838 962.998 754.242 1004.56 773.423L1032.21 713.498C998.315 697.852 968.344 676.369 942.155 648.872L894.362 694.389ZM1005.04 773.64C1047.13 792.258 1091.96 801.492 1139.19 801.492V735.492C1100.8 735.492 1065.1 728.038 1031.73 713.281L1005.04 773.64ZM1139.19 801.492C1179.94 801.492 1218.73 794.686 1255.33 780.861L1232.01 719.12C1203.3 729.963 1172.45 735.492 1139.19 735.492V801.492ZM1255.69 780.721C1291.92 766.548 1326.37 747.327 1359.04 723.213L1319.85 670.111C1291.57 690.981 1262.17 707.313 1231.64 719.259L1255.69 780.721ZM1358.76 723.415C1367.17 717.34 1371.76 717.238 1373.68 717.464L1381.39 651.917C1358.64 649.24 1337.83 657.12 1320.12 669.91L1358.76 723.415ZM1375.7 717.64C1380.38 717.9 1383.17 719.311 1385.94 722.31L1434.43 677.544C1419.79 661.679 1400.8 652.932 1379.36 651.741L1375.7 717.64ZM1386.85 723.262C1387.69 724.098 1390.24 727.014 1390.24 736.93H1456.24C1456.24 714.922 1450.1 693.17 1433.52 676.593L1386.85 723.262ZM1390.24 736.93C1390.24 739.674 1389.72 742.781 1388.25 746.441L1449.53 770.953C1453.87 760.102 1456.24 748.698 1456.24 736.93H1390.24ZM1387.58 748.262C1387.66 748.02 1387.26 749.553 1383.91 752.534L1427.75 801.863C1437.46 793.235 1445.76 782.434 1450.2 769.132L1387.58 748.262ZM1384.75 751.808C1349.14 781.371 1310.79 803.324 1269.64 817.928L1291.71 880.128C1340.52 862.808 1385.61 836.874 1426.91 802.589L1384.75 751.808ZM1270.09 817.773C1228.64 831.81 1185.07 838.883 1139.19 838.883V904.883C1191.99 904.883 1242.73 896.72 1291.26 880.284L1270.09 817.773ZM1429.72 704.571L1320.88 682.805L1307.94 747.523L1416.77 769.289L1429.72 704.571ZM1347.41 715.164V520.353H1281.41V715.164H1347.41ZM1314.41 487.353H1164.22V553.353H1314.41V487.353ZM1164.22 487.353C1155.28 487.353 1149.79 484.925 1145.57 481.267L1102.34 531.142C1119.89 546.348 1141.24 553.353 1164.22 553.353V487.353ZM1145.57 481.267C1141.98 478.157 1140.63 475.314 1140.63 470.289H1074.63C1074.63 494.287 1084.16 515.387 1102.34 531.142L1145.57 481.267ZM1140.63 470.289C1140.63 465.265 1141.98 462.422 1145.57 459.312L1102.34 409.437C1084.16 425.192 1074.63 446.291 1074.63 470.289H1140.63ZM1145.57 459.312C1149.79 455.654 1155.28 453.226 1164.22 453.226V387.226C1141.24 387.226 1119.89 394.23 1102.34 409.437L1145.57 459.312ZM1164.22 453.226H1367.74V387.226H1164.22V453.226ZM1367.74 453.226C1376.5 453.226 1380.75 455.715 1383.88 459.068L1432.13 414.035C1414.95 395.62 1392.35 387.226 1367.74 387.226V453.226ZM1384.67 459.886C1387.64 462.851 1390.24 467.354 1390.24 476.819H1456.24C1456.24 452.909 1448.69 430.567 1431.34 413.217L1384.67 459.886ZM1390.24 476.819V736.93H1456.24V476.819H1390.24ZM1819.77 844.675L1796.44 868.01L1796.44 868.01L1819.77 844.675ZM1803.45 550.826H1836.45V541.127L1831.2 532.971L1803.45 550.826ZM1512.86 99.1687L1484.8 116.538L1484.95 116.782L1485.11 117.024L1512.86 99.1687ZM1501.98 56.7239L1534.53 62.149L1534.55 62.0099L1534.57 61.8706L1501.98 56.7239ZM1520.48 24.0739L1540.87 50.0224L1540.98 49.933L1541.09 49.8426L1520.48 24.0739ZM1586.87 19.7206L1566.25 45.4893L1567.08 46.1493L1567.94 46.7552L1586.87 19.7206ZM1607.55 42.5756L1635.46 24.9799L1635.38 24.8549L1635.3 24.7306L1607.55 42.5756ZM1883.98 481.173V514.173H1943.79L1911.9 463.577L1883.98 481.173ZM1840.45 481.173L1812.58 463.505L1780.46 514.173H1840.45V481.173ZM2121.24 38.2222L2093.78 19.9172L2093.57 20.2332L2093.37 20.5541L2121.24 38.2222ZM2141.92 18.6323L2157.72 47.6028L2158.69 47.0702L2159.63 46.4731L2141.92 18.6323ZM2203.95 25.1623L2179.7 47.5455L2180.15 48.0303L2180.62 48.4969L2203.95 25.1623ZM2219.19 58.9005L2186.37 62.3551L2186.38 62.45L2186.39 62.5448L2219.19 58.9005ZM2208.3 99.1687L2236 117.118L2236.1 116.955L2236.21 116.791L2208.3 99.1687ZM1915.54 550.826L1887.85 532.876L1882.54 541.066V550.826H1915.54ZM1899.22 844.675L1922.55 868.01L1922.55 868.01L1899.22 844.675ZM1858.95 828C1852.57 828 1847.87 826.106 1843.1 821.341L1796.44 868.01C1813.44 885.011 1834.86 894 1858.95 894V828ZM1843.1 821.341C1838.66 816.898 1836.45 811.979 1836.45 804.407H1770.45C1770.45 828.759 1779.11 850.686 1796.44 868.01L1843.1 821.341ZM1836.45 804.407V550.826H1770.45V804.407H1836.45ZM1831.2 532.971L1540.61 81.3136L1485.11 117.024L1775.69 568.681L1831.2 532.971ZM1540.92 81.799C1534.2 70.9418 1534.07 64.8987 1534.53 62.149L1469.43 51.2987C1465.53 74.669 1472.66 96.9225 1484.8 116.538L1540.92 81.799ZM1534.57 61.8706C1535.57 55.5893 1537.81 52.4241 1540.87 50.0224L1500.09 -1.87455C1482.83 11.686 1472.74 30.2874 1469.38 51.5771L1534.57 61.8706ZM1541.09 49.8426C1546.2 45.7609 1551.28 44.014 1557.48 44.014V-21.986C1536.11 -21.986 1516.53 -15.0263 1499.86 -1.69478L1541.09 49.8426ZM1557.48 44.014C1561.11 44.014 1563.4 44.4456 1564.7 44.831C1565.34 45.0192 1565.73 45.1939 1565.94 45.3015C1566.15 45.406 1566.23 45.4732 1566.25 45.4893L1607.48 -6.04814C1592.71 -17.8685 1574.85 -21.986 1557.48 -21.986V44.014ZM1567.94 46.7552C1570.66 48.6559 1574.79 52.6419 1579.79 60.4206L1635.3 24.7306C1627.25 12.1937 1617.59 0.943122 1605.79 -7.31402L1567.94 46.7552ZM1579.63 60.1713L1856.06 498.768L1911.9 463.577L1635.46 24.9799L1579.63 60.1713ZM1883.98 448.173H1840.45V514.173H1883.98V448.173ZM1868.32 498.841L2149.11 55.8904L2093.37 20.5541L1812.58 463.505L1868.32 498.841ZM2148.7 56.5273C2151.99 51.5917 2155.09 49.0348 2157.72 47.6028L2126.11 -10.3383C2112.78 -3.06357 2102.1 7.43953 2093.78 19.9172L2148.7 56.5273ZM2159.63 46.4731C2161.23 45.4569 2164.54 44.014 2171.3 44.014V-21.986C2154.85 -21.986 2138.56 -18.35 2124.2 -9.20857L2159.63 46.4731ZM2171.3 44.014C2175.33 44.014 2177.37 45.0139 2179.7 47.5455L2228.2 2.77911C2213.12 -13.5537 2193.39 -21.986 2171.3 -21.986V44.014ZM2180.62 48.4969C2183.31 51.1879 2185.6 55.086 2186.37 62.3551L2252.01 55.4459C2249.87 35.144 2242.01 16.55 2227.29 1.82772L2180.62 48.4969ZM2186.39 62.5448C2186.83 66.516 2186.1 72.5268 2180.4 81.5469L2236.21 116.791C2247.92 98.2396 2254.45 77.4049 2251.99 55.2562L2186.39 62.5448ZM2180.61 81.2193L1887.85 532.876L1943.23 568.775L2236 117.118L2180.61 81.2193ZM1882.54 550.826V804.407H1948.54V550.826H1882.54ZM1882.54 804.407C1882.54 811.979 1880.33 816.898 1875.88 821.341L1922.55 868.01C1939.88 850.686 1948.54 828.759 1948.54 804.407H1882.54ZM1875.88 821.341C1871.44 825.783 1866.52 828 1858.95 828V894C1883.3 894 1905.23 885.333 1922.55 868.01L1875.88 821.341ZM2504.25 840.322L2489.81 869.996L2489.97 870.076L2490.14 870.153L2504.25 840.322ZM2378 732.577L2350.34 750.577L2350.44 750.73L2350.54 750.882L2378 732.577ZM2349.7 27.3389L2372.22 51.4638L2372.63 51.0757L2373.04 50.6735L2349.7 27.3389ZM2430.24 27.3389L2406.11 49.8555L2406.89 50.6873L2407.72 51.4638L2430.24 27.3389ZM2477.04 680.337L2449.58 698.642L2449.83 699.021L2450.1 699.393L2477.04 680.337ZM2563.02 751.079L2548.74 780.829L2549.09 780.999L2549.45 781.161L2563.02 751.079ZM2810.07 751.079L2824.33 780.839L2824.45 780.777L2824.58 780.715L2810.07 751.079ZM2892.78 680.337L2865.32 662.032L2865.27 662.11L2865.22 662.187L2892.78 680.337ZM2939.58 27.3389L2962.09 51.4638L2962.51 51.0757L2962.91 50.6735L2939.58 27.3389ZM3020.11 27.3389L2995.99 49.8555L2996.38 50.2713L2996.78 50.6735L3020.11 27.3389ZM2990.73 732.577L2963.07 714.577L2962.97 714.732L2962.87 714.889L2990.73 732.577ZM2868.84 840.322L2883.26 870.001L2883.43 869.92L2883.59 869.838L2868.84 840.322ZM2689.26 845.413C2623.65 845.413 2566.94 833.468 2518.35 810.49L2490.14 870.153C2548.94 897.964 2615.57 911.413 2689.26 911.413V845.413ZM2518.68 810.647C2469.79 786.863 2432.4 754.683 2405.46 714.272L2350.54 750.882C2384.55 801.891 2431.32 841.541 2489.81 869.996L2518.68 810.647ZM2405.66 714.577C2379.67 674.642 2366.38 628.755 2366.38 575.857H2300.38C2300.38 640.5 2316.83 699.093 2350.34 750.577L2405.66 714.577ZM2366.38 575.857V67.6072H2300.38V575.857H2366.38ZM2366.38 67.6072C2366.38 58.844 2368.87 54.5925 2372.22 51.4638L2327.19 3.21411C2308.77 20.4008 2300.38 42.9948 2300.38 67.6072H2366.38ZM2373.04 50.6735C2377.48 46.2305 2382.4 44.014 2389.97 44.014V-21.986C2365.62 -21.986 2343.69 -13.3192 2326.37 4.0044L2373.04 50.6735ZM2389.97 44.014C2398.73 44.014 2402.99 46.5032 2406.11 49.8555L2454.36 4.82243C2437.18 -13.5919 2414.58 -21.986 2389.97 -21.986V44.014ZM2407.72 51.4638C2411.07 54.5925 2413.56 58.844 2413.56 67.6072H2479.56C2479.56 42.9948 2471.17 20.4008 2452.76 3.21411L2407.72 51.4638ZM2413.56 67.6072V575.857H2479.56V67.6072H2413.56ZM2413.56 575.857C2413.56 621.075 2425.39 662.364 2449.58 698.642L2504.49 662.032C2488.05 637.363 2479.56 608.999 2479.56 575.857H2413.56ZM2450.1 699.393C2474.71 734.191 2507.94 761.245 2548.74 780.829L2577.3 721.328C2545.54 706.085 2521.45 685.979 2503.98 661.281L2450.1 699.393ZM2549.45 781.161C2591.35 800.059 2638.17 809.11 2689.26 809.11V743.11C2646.03 743.11 2608.69 735.474 2576.58 720.996L2549.45 781.161ZM2689.26 809.11C2739.01 809.11 2784.3 800.016 2824.33 780.839L2795.81 721.319C2766.18 735.517 2730.93 743.11 2689.26 743.11V809.11ZM2824.58 780.715C2864.82 761.004 2897.15 733.695 2920.34 698.487L2865.22 662.187C2849.22 686.475 2826.41 706.327 2795.55 721.443L2824.58 780.715ZM2920.24 698.642C2944.42 662.364 2956.25 621.075 2956.25 575.857H2890.25C2890.25 608.999 2881.77 637.363 2865.32 662.032L2920.24 698.642ZM2956.25 575.857V67.6072H2890.25V575.857H2956.25ZM2956.25 67.6072C2956.25 58.844 2958.74 54.5925 2962.09 51.4638L2917.06 3.21412C2898.65 20.4009 2890.25 42.9948 2890.25 67.6072H2956.25ZM2962.91 50.6735C2967.35 46.2305 2972.27 44.014 2979.85 44.014V-21.986C2955.49 -21.986 2933.57 -13.3192 2916.24 4.00437L2962.91 50.6735ZM2979.85 44.014C2988.61 44.014 2992.86 46.5032 2995.99 49.8555L3044.24 4.82243C3027.05 -13.5919 3004.46 -21.986 2979.85 -21.986V44.014ZM2996.78 50.6735C2999.74 53.6388 3002.35 58.1418 3002.35 67.6072H3068.35C3068.35 43.6971 3060.8 21.3546 3043.45 4.00436L2996.78 50.6735ZM3002.35 67.6072V575.857H3068.35V67.6072H3002.35ZM3002.35 575.857C3002.35 628.755 2989.06 674.642 2963.07 714.577L3018.39 750.577C3051.89 699.093 3068.35 640.5 3068.35 575.857H3002.35ZM2962.87 714.889C2937.31 755.142 2901.4 787.147 2854.08 810.806L2883.59 869.838C2940.76 841.257 2986.1 801.432 3018.59 750.265L2962.87 714.889ZM2854.41 810.643C2807.34 833.525 2752.55 845.413 2689.26 845.413V911.413C2760.93 911.413 2825.86 897.908 2883.26 870.001L2854.41 810.643Z" fill="black"/>
</svg>
