<svg width="191" height="112" viewBox="0 0 191 112" fill="none" xmlns="http://www.w3.org/2000/svg">
<path fill-rule="evenodd" clip-rule="evenodd" d="M43.3791 19.5937H45.3648L45.0526 17.6327C43.4036 7.27688 34.8521 0.724609 23.7591 0.724609C16.9242 0.724609 11.1061 3.14609 7.00258 7.48767C2.90708 11.8207 0.644531 17.9318 0.644531 25.0992C0.644531 32.3074 2.82071 38.4051 6.8366 42.7166C10.8638 47.0403 16.5995 49.4137 23.3991 49.4137C34.4668 49.4137 43.3175 42.8307 45.1663 32.6623L45.5295 30.6646H43.4991H35.5191H34.2538L33.8944 31.8778C32.7056 35.8897 28.9118 38.6446 23.5791 38.6446C20.0104 38.6446 17.1944 37.3289 15.2476 35.0703C13.2784 32.7857 12.0737 29.3866 12.0737 25.0392C12.0737 20.6549 13.2669 17.2756 15.2223 15.0189C17.1542 12.7892 19.9667 11.4937 23.5791 11.4937C28.7579 11.4937 32.3951 14.0992 33.6534 18.3773L34.0112 19.5937H35.2791H43.3791ZM23.3991 47.7192C33.1306 47.7192 40.8053 42.34 43.1107 34.0537C43.2644 33.5015 43.3941 32.9364 43.4991 32.3592H41.774H35.5191C34.0791 37.2192 29.5191 40.3392 23.5791 40.3392C15.5391 40.3392 10.3791 34.3392 10.3791 25.0392C10.3791 15.6792 15.4791 9.79917 23.5791 9.79917C29.3991 9.79917 33.7791 12.7992 35.2791 17.8992H41.6612H43.3791C43.2871 17.3215 43.1716 16.7564 43.0336 16.2046C40.9198 7.75868 33.5025 2.41917 23.7591 2.41917C10.9191 2.41917 2.33909 11.4792 2.33909 25.0992C2.33909 38.8392 10.6191 47.7192 23.3991 47.7192ZM76.851 35.5537L78.541 35.5492V33.8592V31.6392C78.541 26.6746 77.0207 22.4297 74.1422 19.4141C71.2556 16.3901 67.157 14.7646 62.3264 14.7646C57.5413 14.7646 53.3937 16.5399 50.4495 19.6708C47.5125 22.794 45.8719 27.1582 45.8719 32.1792C45.8719 37.1552 47.5523 41.4926 50.5376 44.5964C53.5275 47.7049 57.7297 49.4737 62.5664 49.4737C66.7154 49.4737 70.3674 48.4276 73.1877 46.3936C76.0256 44.3468 77.9208 41.3692 78.6298 37.7226L79.0222 35.7046H76.9664H70.1864H68.9231L68.5624 36.9154C68.0187 38.7408 66.2915 40.0846 62.6864 40.0846C60.566 40.0846 59.1285 39.5155 58.1609 38.5852C57.4645 37.9155 56.8999 36.9516 56.5428 35.6083L76.851 35.5537ZM54.5264 33.9192C54.5884 34.5177 54.6795 35.0824 54.7996 35.613C55.727 39.7099 58.3837 41.7792 62.6864 41.7792C66.7064 41.7792 69.3464 40.2192 70.1864 37.3992H75.2357H76.9664C76.8524 37.9855 76.7045 38.5507 76.5241 39.0937C74.7101 44.553 69.6061 47.7792 62.5664 47.7792C53.7464 47.7792 47.5664 41.3592 47.5664 32.1792C47.5664 22.8792 53.6264 16.4592 62.3264 16.4592C71.2064 16.4592 76.8464 22.3992 76.8464 31.6392V33.8592L56.2305 33.9146L54.5264 33.9192ZM56.4264 29.2392H54.7064C54.8044 28.6353 54.9378 28.0702 55.1062 27.5446C56.1757 24.2059 58.654 22.4592 62.3864 22.4592C66.127 22.4592 68.7298 24.4284 69.41 27.5446C69.5263 28.0773 69.5864 28.6435 69.5864 29.2392H67.8919H56.4264ZM66.4643 25.5501C67.0039 26.0606 67.422 26.7252 67.6626 27.5446H56.9051C57.2675 26.6382 57.752 25.9546 58.3186 25.454C59.2301 24.6484 60.5377 24.1537 62.3864 24.1537C64.2277 24.1537 65.5829 24.7162 66.4643 25.5501ZM102.999 17.2392V15.9161L101.716 15.5952C100.39 15.2636 99.2315 15.1246 98.0649 15.1246C95.3658 15.1246 93.0573 15.934 91.2991 17.3335L91.2915 17.2552L91.1427 15.7246H89.6049H82.7049H81.0103V17.4192V46.9992V48.6937H82.7049H90.0249H91.7194V46.9992V32.5992C91.7194 30.0418 92.4446 28.3924 93.5082 27.3719C94.5839 26.3395 96.2524 25.7137 98.6049 25.7137H101.305H102.84C102.177 27.6784 101.829 29.8333 101.829 32.1192C101.829 37.1826 103.414 41.5414 106.359 44.6475C109.311 47.7624 113.496 49.4737 118.403 49.4737C126.877 49.4737 133.459 44.2138 134.484 36.3583L134.733 34.4446H132.803H125.423H124.088L123.776 35.7426C123.473 36.9997 122.85 37.8958 122.01 38.4941C121.155 39.1033 119.96 39.4846 118.403 39.4846C116.518 39.4846 115.124 38.8022 114.171 37.6575C113.188 36.4764 112.538 34.6348 112.538 32.1192C112.538 29.6355 113.231 27.7802 114.272 26.5735C115.292 25.3907 116.76 24.6937 118.643 24.6937C120.102 24.6937 121.211 25.056 122.015 25.6512C122.81 26.2392 123.44 27.1533 123.78 28.5102L124.1 29.7937H125.423H132.743H134.633L134.428 27.9151C133.993 23.9332 132.217 20.6036 129.355 18.285C126.508 15.9782 122.704 14.7646 118.343 14.7646C113.527 14.7646 109.366 16.5557 106.416 19.684C104.932 21.2572 103.779 23.1425 102.999 25.2616V24.0192V17.2392ZM90.0249 21.7392C90.3903 20.8864 90.887 20.1145 91.5047 19.4482C93.0166 17.8172 95.2534 16.8192 98.0649 16.8192C99.0849 16.8192 100.105 16.9392 101.305 17.2392V22.3246V24.0192H99.6103H98.6049C93.3249 24.0192 90.0249 26.8392 90.0249 32.5992V45.3046V46.9992H88.3303H84.3994H82.7049V45.3046V19.1137V17.4192H84.3994H89.6049L89.7486 18.8978L90.0249 21.7392ZM118.403 47.7792C125.492 47.7792 130.92 43.8034 132.475 37.8337C132.618 37.2852 132.728 36.7198 132.803 36.1392H131.093H125.423C124.643 39.3792 122.063 41.1792 118.403 41.1792C113.723 41.1792 110.843 37.6992 110.843 32.1192C110.843 26.5392 113.963 22.9992 118.643 22.9992C122.123 22.9992 124.583 24.7392 125.423 28.0992H131.038H132.743C132.68 27.5164 132.585 26.9512 132.459 26.4046C131.045 20.2546 125.782 16.4592 118.343 16.4592C109.583 16.4592 103.523 22.9392 103.523 32.1192C103.523 41.5392 109.403 47.7792 118.403 47.7792ZM147.786 27.4293L147.782 27.4296C147.046 27.4862 146.333 27.5731 145.646 27.6908V27.0792C145.646 26.0082 146.029 25.3058 146.697 24.8134C147.438 24.2671 148.712 23.8537 150.672 23.8537C152.323 23.8537 153.39 24.2183 154.028 24.7615C154.497 25.1611 154.899 25.8003 155.042 26.89L147.786 27.4293ZM137.712 28.7737H141.844C140.654 29.2774 139.594 29.9177 138.685 30.699C136.411 32.6533 135.237 35.3588 135.237 38.5392C135.237 41.7344 136.348 44.5205 138.49 46.497C140.618 48.4609 143.598 49.4737 147.072 49.4737C150.311 49.4737 153.496 48.5185 155.776 46.7665L155.83 47.2065L156.013 48.6937H157.512H163.932H165.626V46.9992V28.9992C165.626 24.5465 164.285 20.919 161.639 18.4157C159.008 15.9265 155.315 14.7646 151.032 14.7646C146.733 14.7646 142.999 15.8868 140.301 18.0364C137.567 20.2144 136.017 23.3597 136.017 27.0792V28.7737H137.712ZM156.972 42.6192C156.654 43.3914 156.16 44.1026 155.525 44.7342C153.644 46.6054 150.526 47.7792 147.072 47.7792C140.772 47.7792 136.932 44.1192 136.932 38.5392C136.932 33.0792 140.892 29.6592 147.912 29.1192L156.792 28.4592V27.7992C156.792 23.7792 154.392 22.1592 150.672 22.1592C146.352 22.1592 143.952 23.9592 143.952 27.0792H142.257H139.406H137.712C137.712 26.4955 137.755 25.9301 137.841 25.3846C138.695 19.9302 143.723 16.4592 151.032 16.4592C159.012 16.4592 163.932 20.7792 163.932 28.9992V45.3046V46.9992H162.237H157.512L157.303 45.3047L156.972 42.6192ZM156.852 33.4392L155.157 33.5708L150.672 33.9192C146.112 34.3392 144.372 35.8392 144.372 38.2392C144.372 40.9392 146.172 42.2592 149.472 42.2592C153.926 42.2592 156.792 39.6143 156.851 35.1389C156.851 35.0925 156.852 35.0459 156.852 34.9992V33.4392ZM150.827 35.6066L155.153 35.2708C155.099 37.0422 154.518 38.2987 153.669 39.1233C152.77 39.9962 151.384 40.5646 149.472 40.5646C148.005 40.5646 147.164 40.2642 146.721 39.9216C146.356 39.6391 146.066 39.1793 146.066 38.2392C146.066 37.5264 146.284 37.0866 146.805 36.7093C147.444 36.2471 148.654 35.8079 150.815 35.6077L150.827 35.6066ZM2.03909 96.2992C2.03909 105.479 7.37909 111.779 15.9591 111.779C20.4591 111.779 24.2991 109.799 26.0991 106.379L26.5791 110.999H33.2991V66.3592H26.0391V85.1392C24.1791 82.1992 20.5191 80.4592 16.3791 80.4592C7.43909 80.4592 2.03909 87.0592 2.03909 96.2992ZM25.9791 96.0592C25.9791 101.399 22.6791 105.059 17.5791 105.059C12.4791 105.059 9.35909 101.339 9.35909 96.0592C9.35909 90.7792 12.4791 86.9992 17.5791 86.9992C22.6791 86.9992 25.9791 90.7192 25.9791 96.0592ZM39.1875 96.1792C39.1875 105.359 45.3675 111.779 54.1875 111.779C61.9275 111.779 67.3275 107.879 68.5875 101.399H61.8075C60.9675 104.219 58.3275 105.779 54.3075 105.779C49.4475 105.779 46.6875 103.139 46.1475 97.9192L68.4675 97.8592V95.6392C68.4675 86.3992 62.8275 80.4592 53.9475 80.4592C45.2475 80.4592 39.1875 86.8792 39.1875 96.1792ZM46.3275 93.2392C47.0475 88.7992 49.6875 86.4592 54.0075 86.4592C58.3875 86.4592 61.2075 89.1592 61.2075 93.2392H46.3275ZM90.6178 110.999H97.8778V66.3592H90.6178V110.999ZM104.236 102.539C104.236 108.119 108.076 111.779 114.376 111.779C118.996 111.779 123.016 109.679 124.276 106.619L124.816 110.999H131.236V92.9992C131.236 84.7792 126.316 80.4592 118.336 80.4592C110.296 80.4592 105.016 84.6592 105.016 91.0792H111.256C111.256 87.9592 113.656 86.1592 117.976 86.1592C121.696 86.1592 124.096 87.7792 124.096 91.7992V92.4592L115.216 93.1192C108.196 93.6592 104.236 97.0792 104.236 102.539ZM124.156 98.9992C124.156 103.559 121.276 106.259 116.776 106.259C113.476 106.259 111.676 104.939 111.676 102.239C111.676 99.8392 113.416 98.3392 117.976 97.9192L124.156 97.4392V98.9992ZM155.379 67.1392V94.9792C155.379 105.299 162.099 111.719 172.719 111.719C183.399 111.719 190.119 105.239 190.119 94.9792V67.1392H182.439V94.4992C182.439 100.739 178.959 104.279 172.719 104.279C166.479 104.279 163.059 100.799 163.059 94.4992V67.1392H155.379Z" fill="white"/>
</svg>
