<svg width="173" height="125" viewBox="0 0 173 125" fill="none" xmlns="http://www.w3.org/2000/svg">
<path fill-rule="evenodd" clip-rule="evenodd" d="M25.8606 29.7544H27.5551V28.0599V21.1599V19.4653H25.8606H11.2351V10.9144H28.9806H30.6751V9.21987V2.13987V0.445312H28.9806H1.86058H0.166016V2.13987V45.9999V47.6944H1.86058H9.54058H11.2351V45.9999V29.7544H25.8606ZM9.54058 21.1599H11.2351H24.166H25.8606V22.8544V26.3653V28.0599H24.166H11.2351H9.54058V29.7544V44.3053V45.9999H7.84602H3.55514H1.86058V44.3053V3.83443V2.13987H3.55514H27.286H28.9806V3.83443V7.52531V9.21987H27.286H11.2351H9.54058V10.9144V19.4653V21.1599ZM41.9556 26.43L41.9512 26.4303C41.2153 26.4869 40.5027 26.5738 39.8158 26.6915V26.0799C39.8158 25.0089 40.1982 24.3065 40.8664 23.8141C41.6078 23.2678 42.8818 22.8544 44.8412 22.8544C46.4926 22.8544 47.5597 23.219 48.1971 23.7622C48.6661 24.1618 49.0687 24.801 49.2114 25.8907L41.9556 26.43ZM31.8812 27.7744H36.0134C34.8233 28.2781 33.7634 28.9184 32.8542 29.6997C30.5803 31.654 29.4066 34.3596 29.4066 37.5399C29.4066 40.7351 30.5175 43.5212 32.6595 45.4977C34.7878 47.4616 37.7675 48.4744 41.2412 48.4744C44.4809 48.4744 47.6658 47.5192 49.9451 45.7672L49.9994 46.2072L50.1827 47.6944H51.6812H58.1012H59.7958V45.9999V27.9999C59.7958 23.5472 58.4542 19.9198 55.8083 17.4164C53.1774 14.9272 49.4845 13.7653 45.2012 13.7653C40.9023 13.7653 37.1681 14.8875 34.4702 17.0371C31.7367 19.2151 30.1866 22.3604 30.1866 26.0799V27.7744H31.8812ZM51.1412 41.6199C50.8232 42.3921 50.3294 43.1033 49.6946 43.7349C47.8139 45.6061 44.6952 46.7799 41.2412 46.7799C34.9412 46.7799 31.1012 43.1199 31.1012 37.5399C31.1012 32.0799 35.0612 28.6599 42.0812 28.1199L50.9612 27.4599V26.7999C50.9612 22.7799 48.5612 21.1599 44.8412 21.1599C40.5212 21.1599 38.1212 22.9599 38.1212 26.0799H36.4266H33.5758H31.8812C31.8812 25.4962 31.9248 24.9308 32.0102 24.3853C32.8641 18.9309 37.8922 15.4599 45.2012 15.4599C53.1812 15.4599 58.1012 19.7799 58.1012 27.9999V44.3053V45.9999H56.4066H51.6812L51.4723 44.3054L51.1412 41.6199ZM51.0212 32.4399L49.3266 32.5715L44.8412 32.9199C40.2812 33.3399 38.5412 34.8399 38.5412 37.2399C38.5412 39.9399 40.3412 41.2599 43.6412 41.2599C48.095 41.2599 50.9619 38.615 51.0203 34.1396C51.0209 34.0932 51.0212 34.0466 51.0212 33.9999V32.4399ZM44.9849 34.6084L49.3226 34.2715C49.2688 36.0429 48.6879 37.2994 47.8384 38.124C46.9392 38.9969 45.5537 39.5653 43.6412 39.5653C42.1743 39.5653 41.3336 39.2649 40.8908 38.9223C40.5259 38.6398 40.2358 38.18 40.2358 37.2399C40.2358 36.5271 40.4537 36.0873 40.9748 35.71C41.6133 35.2478 42.8236 34.8086 44.9849 34.6084ZM85.5869 16.2399V14.9168L84.3033 14.5959C82.9769 14.2643 81.8189 14.1253 80.6523 14.1253C77.9533 14.1253 75.6448 14.9347 73.8865 16.3342L73.8789 16.2559L73.7301 14.7253H72.1923H65.2923H63.5977V16.4199V45.9999V47.6944H65.2923H72.6123H74.3069V45.9999V31.5999C74.3069 29.0425 75.032 27.3931 76.0956 26.3726C77.1714 25.3402 78.8399 24.7144 81.1923 24.7144H83.8923H85.5869V23.0199V16.2399ZM72.6123 20.7399C72.9778 19.8871 73.4744 19.1152 74.0921 18.4489C75.604 16.8179 77.8409 15.8199 80.6523 15.8199C81.6723 15.8199 82.6923 15.9399 83.8923 16.2399V21.3253V23.0199H82.1977H81.1923C75.9123 23.0199 72.6123 25.8399 72.6123 31.5999V44.3053V45.9999H70.9177H66.9869H65.2923V44.3053V18.1144V16.4199H66.9869H72.1923L72.3361 17.8985L72.6123 20.7399ZM112.344 4.86877L114.064 2.24531H110.927H104.147H103.106L102.635 3.17388L98.1354 12.0539L96.8885 14.5144H99.647H105.107H106.022L106.524 13.7488L112.344 4.86877ZM108.947 14.6653H107.252V16.3599V31.8999C107.252 34.5464 106.723 36.1672 105.95 37.1099C105.232 37.9838 104.078 38.5453 102.107 38.5453C100.385 38.5453 99.3685 38.0759 98.7275 37.3085C98.0316 36.4754 97.5015 34.9684 97.5015 32.3199V16.3599V14.6653H95.807H88.487H86.7924V16.3599V34.8999C86.7924 38.8318 87.8831 42.2461 90.0936 44.6972C92.3242 47.1708 95.5262 48.4744 99.347 48.4744C102.388 48.4744 105.432 47.4705 107.742 45.7423L107.808 46.2288L108.008 47.6944H109.487H116.267H117.962V45.9999V16.3599V14.6653H116.267H108.947ZM108.947 42.0399C108.549 42.6641 108.05 43.2443 107.473 43.7692C105.441 45.6158 102.43 46.7799 99.347 46.7799C92.507 46.7799 88.487 42.1599 88.487 34.8999V18.0544V16.3599H90.1815H94.1124H95.807V18.0544V32.3199C95.807 37.9599 98.027 40.2399 102.107 40.2399C106.727 40.2399 108.947 37.5399 108.947 31.8999V18.0544V16.3599H110.642H114.572H116.267V18.0544V44.3053V45.9999H114.572H109.487L109.266 44.379L108.947 42.0399ZM108.901 3.93987H110.927L109.816 5.63443L105.107 12.8199H101.547H99.647L100.506 11.1253L104.147 3.93987H108.901ZM1.86058 110H17.6406C30.3606 110 39.1206 101.06 39.1206 88.1599C39.1206 75.0799 30.1806 66.1399 17.2206 66.1399H1.86058V110ZM9.54058 73.2199H16.5006C25.5606 73.2199 31.0206 78.8599 31.0206 88.1599C31.0206 97.2799 25.6806 102.92 16.9206 102.92H9.54058V73.2199ZM44.3546 69.9799C44.3546 72.4399 46.3346 74.4199 48.8546 74.4199C51.2546 74.4199 53.2346 72.4399 53.2346 69.9799C53.2346 67.5199 51.2546 65.5999 48.8546 65.5999C46.3346 65.5999 44.3546 67.5199 44.3546 69.9799ZM45.1946 80.3599V110H52.5146V80.3599H45.1946ZM72.4975 79.3999C64.0375 79.3999 58.3974 85.8799 58.3974 94.5199C58.3974 103.1 63.9174 109.4 72.3175 109.4C76.5775 109.4 80.2374 107.66 82.0975 104.9V109.82C82.0975 114.74 78.8575 117.92 73.8175 117.92C69.3175 117.92 66.3774 115.64 65.8975 111.8H58.5774C59.4775 119.72 65.2975 124.58 73.8175 124.58C83.4174 124.58 89.3575 118.4 89.3575 108.5V80.3599H82.5775L82.1575 84.4399C80.4174 81.2599 76.9375 79.3999 72.4975 79.3999ZM73.7575 103.04C68.9575 103.04 65.7775 99.3199 65.7775 94.3399C65.7775 89.4799 68.8975 85.8199 73.7575 85.8199C78.8575 85.8199 81.9174 89.2999 81.9174 94.3399C81.9174 99.4999 78.7975 103.04 73.7575 103.04ZM96.0929 69.9799C96.0929 72.4399 98.0729 74.4199 100.593 74.4199C102.993 74.4199 104.973 72.4399 104.973 69.9799C104.973 67.5199 102.993 65.5999 100.593 65.5999C98.0729 65.5999 96.0929 67.5199 96.0929 69.9799ZM96.9329 80.3599V110H104.253V80.3599H96.9329ZM114.576 110H121.896V86.4799H127.656V80.3599H121.896V71.1199H114.576V80.3599H108.876V86.4799H114.576V110ZM130.711 101.54C130.711 107.12 134.551 110.78 140.851 110.78C145.471 110.78 149.491 108.68 150.751 105.62L151.291 110H157.711V91.9999C157.711 83.7799 152.791 79.4599 144.811 79.4599C136.771 79.4599 131.491 83.6599 131.491 90.0799H137.731C137.731 86.9599 140.131 85.1599 144.451 85.1599C148.171 85.1599 150.571 86.7799 150.571 90.7999V91.4599L141.691 92.1199C134.671 92.6599 130.711 96.0799 130.711 101.54ZM150.631 97.9999C150.631 102.56 147.751 105.26 143.251 105.26C139.951 105.26 138.151 103.94 138.151 101.24C138.151 98.8399 139.891 97.3399 144.451 96.9199L150.631 96.4399V97.9999ZM165.022 110H172.282V65.3599H165.022V110Z" fill="white"/>
</svg>
