<svg width="407" height="124" viewBox="0 0 407 124" fill="none" xmlns="http://www.w3.org/2000/svg">
<path fill-rule="evenodd" clip-rule="evenodd" d="M2.56544 47.2491H13.6346V28.6491H29.6854V47.2491H40.7546V0H29.6854V18.12H13.6346V0H2.56544V47.2491ZM31.38 45.5546V26.9546H11.94V45.5546H4.26V1.69456H11.94V19.8146H31.38V1.69456H39.06V45.5546H31.38ZM57.2457 25.9847L57.2413 25.985C56.5053 26.0416 55.7927 26.1285 55.1058 26.2462V25.6346C55.1058 24.5636 55.4882 23.8612 56.1565 23.3688C56.8979 22.8225 58.1718 22.4091 60.1312 22.4091C61.7826 22.4091 62.8498 22.7737 63.4872 23.3169C63.9561 23.7165 64.3587 24.3557 64.5014 25.4454L57.2457 25.9847ZM45.4767 27.3291H51.3035C50.1134 27.8328 49.0534 28.473 48.1442 29.2544C45.8703 31.2087 44.6967 33.9142 44.6967 37.0946C44.6967 40.2898 45.8075 43.0758 47.9496 45.0524C50.0779 47.0163 53.0575 48.0291 56.5312 48.0291C59.7709 48.0291 62.9558 47.0739 65.2352 45.3219L65.4728 47.2491H75.0858V27.5546C75.0858 23.1019 73.7442 19.4744 71.0984 16.9711C68.4674 14.4819 64.7745 13.32 60.4912 13.32C56.1924 13.32 52.4581 14.4422 49.7603 16.5917C47.0267 18.7698 45.4767 21.9151 45.4767 25.6346V27.3291ZM66.4313 41.1746C66.1133 41.9468 65.6195 42.6579 64.9846 43.2896C63.1039 45.1608 59.9853 46.3346 56.5312 46.3346C50.2312 46.3346 46.3913 42.6746 46.3913 37.0946C46.3913 31.6346 50.3512 28.2146 57.3712 27.6746L66.2513 27.0146V26.3546C66.2513 22.3346 63.8512 20.7146 60.1312 20.7146C55.8112 20.7146 53.4112 22.5146 53.4112 25.6346H47.1712C47.1712 25.0509 47.2149 24.4855 47.3003 23.94C48.1542 18.4856 53.1822 15.0146 60.4912 15.0146C68.4712 15.0146 73.3913 19.3346 73.3913 27.5546V45.5546H66.9713L66.4313 41.1746ZM66.3113 33.5546V31.9946L60.1312 32.4746C55.5713 32.8946 53.8313 34.3946 53.8313 36.7946C53.8313 39.4946 55.6312 40.8146 58.9313 40.8146C63.3851 40.8146 66.252 38.1697 66.3103 33.6943C66.311 33.6479 66.3113 33.6013 66.3113 33.5546ZM60.2749 34.1631L64.6126 33.8262C64.5588 35.5976 63.9779 36.854 63.1284 37.6787C62.2292 38.5516 60.8438 39.12 58.9313 39.12C57.4643 39.12 56.6237 38.8196 56.1809 38.477C55.8159 38.1945 55.5258 37.7347 55.5258 36.7946C55.5258 36.0818 55.7438 35.6419 56.2649 35.2647C56.9034 34.8025 58.1136 34.3633 60.2749 34.1631ZM78.8878 14.22V60.9891H89.5969V45.6815C91.9286 47.2344 94.9165 48.0291 98.0423 48.0291C102.921 48.0291 106.876 46.1511 109.582 42.9044C112.257 39.6935 113.597 35.2869 113.597 30.3746C113.597 25.3935 112.115 21.1195 109.356 18.0702C106.583 15.0048 102.645 13.32 98.0423 13.32C94.6739 13.32 91.4831 14.3315 89.1043 16.2684L88.8858 14.22H78.8878ZM89.5969 43.5581C88.9276 42.9832 88.3561 42.3264 87.9023 41.5946V59.2946H80.5823V15.9146H87.3623L87.8423 20.4146C88.2403 19.6585 88.7408 18.9729 89.3277 18.3634C91.3959 16.2159 94.5371 15.0146 98.0423 15.0146C106.382 15.0146 111.902 21.0746 111.902 30.3746C111.902 39.6146 106.862 46.3346 98.0423 46.3346C94.6854 46.3346 91.6715 45.3399 89.5969 43.5581ZM96.3023 38.04C94.2139 38.04 92.5962 37.2935 91.4898 36.0901C90.3709 34.8732 89.6569 33.0574 89.6569 30.7346C89.6569 28.411 90.3715 26.5768 91.4952 25.3431C92.6052 24.1244 94.2226 23.3691 96.3023 23.3691C98.4395 23.3691 100.014 24.1364 101.074 25.343C102.156 26.5747 102.828 28.4122 102.828 30.7346C102.828 33.0564 102.157 34.8753 101.079 36.0902C100.023 37.2813 98.4483 38.04 96.3023 38.04ZM116.036 14.22V60.9891H126.745V45.6815C129.077 47.2344 132.065 48.0291 135.191 48.0291C140.07 48.0291 144.025 46.1511 146.73 42.9044C149.406 39.6935 150.745 35.2869 150.745 30.3746C150.745 25.3935 149.264 21.1195 146.505 18.0702C143.731 15.0048 139.793 13.32 135.191 13.32C131.822 13.32 128.632 14.3315 126.253 16.2684L126.034 14.22H116.036ZM126.745 43.5581C126.076 42.9832 125.504 42.3264 125.051 41.5946V59.2946H117.731V15.9146H124.511L124.991 20.4146C125.389 19.6585 125.889 18.9729 126.476 18.3634C128.544 16.2159 131.686 15.0146 135.191 15.0146C143.531 15.0146 149.051 21.0746 149.051 30.3746C149.051 39.6146 144.011 46.3346 135.191 46.3346C131.834 46.3346 128.82 45.3399 126.745 43.5581ZM133.451 38.04C131.362 38.04 129.745 37.2935 128.638 36.0901C127.519 34.8732 126.805 33.0574 126.805 30.7346C126.805 28.411 127.52 26.5768 128.644 25.3431C129.754 24.1244 131.371 23.3691 133.451 23.3691C135.588 23.3691 137.163 24.1364 138.223 25.343C139.305 26.5747 139.976 28.4122 139.976 30.7346C139.976 33.0564 139.305 34.8753 138.228 36.0902C137.172 37.2813 135.597 38.04 133.451 38.04ZM149.491 51.48V60.6058L150.761 60.9349C152.527 61.3929 154.471 61.6491 156.646 61.6491C159.356 61.6491 161.736 61.0067 163.759 59.4758C165.754 57.9656 167.242 55.7124 168.418 52.7868L168.419 52.7848L183.87 14.22H172.629L165.809 32.5421L159.345 14.22H147.934L160.532 46.8209L159.917 48.4462L159.913 48.4577C159.355 49.9983 158.775 50.6441 158.25 50.9695C157.694 51.3145 156.917 51.48 155.566 51.48H149.491ZM158.146 15.9146L165.766 37.5146L173.806 15.9146H181.366L166.846 52.1546C164.626 57.6746 161.506 59.9546 156.646 59.9546C154.606 59.9546 152.806 59.7146 151.186 59.2946V53.1746H155.566C158.446 53.1746 160.246 52.5146 161.506 49.0346L162.346 46.8146L150.406 15.9146H158.146ZM87.9623 30.7346C87.9623 36.0746 91.2623 39.7346 96.3023 39.7346C101.462 39.7346 104.522 36.0146 104.522 30.7346C104.522 25.4546 101.462 21.6746 96.3023 21.6746C91.2623 21.6746 87.9623 25.3946 87.9623 30.7346ZM125.111 30.7346C125.111 36.0746 128.411 39.7346 133.451 39.7346C138.611 39.7346 141.671 36.0146 141.671 30.7346C141.671 25.4546 138.611 21.6746 133.451 21.6746C128.411 21.6746 125.111 25.3946 125.111 30.7346ZM261.149 69.5346C261.149 71.9946 263.129 73.9746 265.649 73.9746C268.049 73.9746 270.029 71.9946 270.029 69.5346C270.029 67.0746 268.049 65.1546 265.649 65.1546C263.129 65.1546 261.149 67.0746 261.149 69.5346ZM0 65.6946L16.56 109.555H24.48L40.8 65.6946H32.82L23.34 90.9546C22.5 93.1746 21.6 95.8746 20.52 99.7146C19.56 96.1746 18.72 93.5946 17.76 90.9546L8.16 65.6946H0ZM46.2717 109.555H53.9517V93.1746H63.3717L70.8117 109.555H79.2117L70.8717 91.5546C76.0317 89.4546 78.7917 85.2546 78.7917 79.3746C78.7917 70.7346 72.9717 65.6946 63.0117 65.6946H46.2717V109.555ZM53.9517 86.3946V72.5346H63.0117C67.8717 72.5346 70.7517 74.9946 70.7517 79.3746C70.7517 83.8146 67.8717 86.3946 63.0117 86.3946H53.9517ZM129.879 109.555H102.639V65.6946H129.879V72.7746H110.319V84.0546H127.839V90.8346H110.319V102.475H129.879V109.555ZM133.945 109.555H142.285L148.525 99.7746L154.825 109.555H163.225L153.445 94.9146L163.525 79.9146H155.305L149.005 89.9946L142.465 79.9146H133.945L144.145 95.0346L133.945 109.555ZM167.887 123.295V79.9146H174.667L175.147 84.4146C176.947 80.9946 180.847 79.0146 185.347 79.0146C193.687 79.0146 199.207 85.0746 199.207 94.3746C199.207 103.615 194.167 110.335 185.347 110.335C180.907 110.335 177.067 108.595 175.207 105.595V123.295H167.887ZM175.267 94.7346C175.267 100.075 178.567 103.735 183.607 103.735C188.767 103.735 191.827 100.015 191.827 94.7346C191.827 89.4546 188.767 85.6746 183.607 85.6746C178.567 85.6746 175.267 89.3946 175.267 94.7346ZM203.295 94.7346C203.295 103.915 209.475 110.335 218.295 110.335C226.035 110.335 231.435 106.435 232.695 99.9546H225.915C225.075 102.775 222.435 104.335 218.415 104.335C213.555 104.335 210.795 101.695 210.255 96.4746L232.575 96.4146V94.1946C232.575 84.9546 226.935 79.0146 218.055 79.0146C209.355 79.0146 203.295 85.4346 203.295 94.7346ZM210.435 91.7946C211.155 87.3546 213.795 85.0146 218.115 85.0146C222.495 85.0146 225.315 87.7146 225.315 91.7946H210.435ZM257.034 79.7946V86.5746H254.334C249.054 86.5746 245.754 89.3946 245.754 95.1546V109.555H238.434V79.9746H245.334L245.754 84.2946C247.014 81.3546 249.834 79.3746 253.794 79.3746C254.814 79.3746 255.834 79.4946 257.034 79.7946ZM290.131 110.335C281.311 110.335 275.131 103.915 275.131 94.7346C275.131 85.4346 281.191 79.0146 289.891 79.0146C298.771 79.0146 304.411 84.9546 304.411 94.1946V96.4146L282.091 96.4746C282.631 101.695 285.391 104.335 290.251 104.335C294.271 104.335 296.911 102.775 297.751 99.9546H304.531C303.271 106.435 297.871 110.335 290.131 110.335ZM261.989 79.9146V109.555H269.309V79.9146H261.989ZM289.951 85.0146C285.631 85.0146 282.991 87.3546 282.271 91.7946H297.151C297.151 87.7146 294.331 85.0146 289.951 85.0146ZM310.27 109.555H317.59V93.5946C317.59 88.7946 320.35 85.6746 324.85 85.6746C328.63 85.6746 331.09 88.0746 331.09 93.0546V109.555H338.41V91.3146C338.41 83.6346 334.57 79.0146 327.13 79.0146C323.11 79.0146 319.51 80.7546 317.65 83.7546L317.05 79.9146H310.27V109.555ZM343.862 94.6746C343.862 85.4946 349.922 79.0146 358.682 79.0146C366.782 79.0146 372.302 83.5146 373.082 90.6546H365.762C364.922 87.2946 362.462 85.5546 358.982 85.5546C354.302 85.5546 351.182 89.0946 351.182 94.6746C351.182 100.255 354.062 103.735 358.742 103.735C362.402 103.735 364.982 101.935 365.762 98.6946H373.142C372.242 105.595 366.482 110.335 358.742 110.335C349.742 110.335 343.862 104.095 343.862 94.6746ZM376.85 94.7346C376.85 103.915 383.03 110.335 391.85 110.335C399.59 110.335 404.99 106.435 406.25 99.9546H399.47C398.63 102.775 395.99 104.335 391.97 104.335C387.11 104.335 384.35 101.695 383.81 96.4746L406.13 96.4146V94.1946C406.13 84.9546 400.49 79.0146 391.61 79.0146C382.91 79.0146 376.85 85.4346 376.85 94.7346ZM383.99 91.7946C384.71 87.3546 387.35 85.0146 391.67 85.0146C396.05 85.0146 398.87 87.7146 398.87 91.7946H383.99Z" fill="white"/>
</svg>
