<svg width="378" height="124" viewBox="0 0 378 124" fill="none" xmlns="http://www.w3.org/2000/svg">
<path fill-rule="evenodd" clip-rule="evenodd" d="M9.30058 47.6944H10.9951V45.9999V30.2799C10.9951 29.5313 10.9941 28.8043 10.9911 28.0997L18.3456 46.6251L18.7701 47.6944H19.9206H27.0006H28.1497L28.5749 46.6269L36.0493 27.8605C36.046 29.1403 36.046 30.5982 36.046 32.2824V32.4999V45.9999V47.6944H37.7406H45.1806H46.8751V45.9999V2.13987V0.445312H45.1806H37.6206H36.4791L36.0502 1.50309L23.4606 32.5504L10.8709 1.50309L10.442 0.445312H9.30058H1.86058H0.166016V2.13987V45.9999V47.6944H1.86058H9.30058ZM8.82058 18.0399L10.9207 23.3299L19.9206 45.9999H27.0006L36.0966 23.1621L38.1606 17.9799C37.9377 19.6358 37.8331 21.1397 37.784 23.5051C37.7406 25.5964 37.7406 28.3611 37.7406 32.4999V44.3053V45.9999H39.4351H43.486H45.1806V44.3053V3.83443V2.13987H43.486H37.6206L24.3749 34.8051L23.4606 37.0599L22.5463 34.8051L9.30058 2.13987H3.55514H1.86058V3.83443V44.3053V45.9999H3.55514H7.60602H9.30058V44.3053V30.2799C9.30058 27.8014 9.28821 25.595 9.23543 23.6774C9.17193 21.3705 9.04993 19.4815 8.82058 18.0399ZM81.3525 34.5544L83.0425 34.5499V32.8599V30.6399C83.0425 25.6753 81.5222 21.4304 78.6437 18.4148C75.7571 15.3908 71.6585 13.7653 66.8279 13.7653C62.0427 13.7653 57.8952 15.5406 54.951 18.6715C52.014 21.7947 50.3734 26.1589 50.3734 31.1799C50.3734 36.1559 52.0538 40.4933 55.0391 43.5971C58.029 46.7056 62.2312 48.4744 67.0679 48.4744C71.2169 48.4744 74.8689 47.4283 77.6892 45.3943C80.5271 43.3475 82.4223 40.3699 83.1313 36.7233L83.5237 34.7053H81.4679H74.6879H73.4245L73.0639 35.9161C72.5202 37.7415 70.793 39.0853 67.1879 39.0853C65.0675 39.0853 63.63 38.5162 62.6624 37.5859C61.966 36.9162 61.4014 35.9523 61.0443 34.609L81.3525 34.5544ZM59.0279 32.9199C59.0898 33.5184 59.181 34.0831 59.3011 34.6137C60.2285 38.7106 62.8852 40.7799 67.1879 40.7799C71.2079 40.7799 73.8479 39.2199 74.6879 36.3999H79.7372H81.4679C81.3539 36.9862 81.206 37.5514 81.0256 38.0944C79.2116 43.5537 74.1076 46.7799 67.0679 46.7799C58.2479 46.7799 52.0679 40.3599 52.0679 31.1799C52.0679 21.8799 58.1279 15.4599 66.8279 15.4599C75.7079 15.4599 81.3479 21.3999 81.3479 30.6399V32.8599L60.732 32.9153L59.0279 32.9199ZM60.9279 28.2399H59.2079C59.3059 27.636 59.4393 27.0709 59.6077 26.5453C60.6772 23.2066 63.1555 21.4599 66.8879 21.4599C70.6285 21.4599 73.2313 23.4291 73.9115 26.5453C74.0278 27.078 74.0879 27.6442 74.0879 28.2399H72.3934H60.9279ZM70.9658 24.5508C71.5054 25.0613 71.9235 25.7259 72.164 26.5453H61.4066C61.769 25.6389 62.2535 24.9553 62.8201 24.4547C63.7316 23.6491 65.0392 23.1544 66.8879 23.1544C68.7292 23.1544 70.0844 23.7169 70.9658 24.5508ZM96.4478 26.43L96.4434 26.4303C95.7075 26.4869 94.9949 26.5738 94.308 26.6915V26.0799C94.308 25.0089 94.6904 24.3065 95.3586 23.8141C96.1 23.2678 97.374 22.8544 99.3334 22.8544C100.985 22.8544 102.052 23.219 102.689 23.7622C103.158 24.1618 103.561 24.801 103.704 25.8907L96.4478 26.43ZM86.3734 27.7744H90.5056C89.3155 28.2781 88.2555 28.9184 87.3464 29.6997C85.0725 31.654 83.8988 34.3596 83.8988 37.5399C83.8988 40.7351 85.0097 43.5212 87.1517 45.4977C89.28 47.4616 92.2597 48.4744 95.7334 48.4744C98.973 48.4744 102.158 47.5192 104.437 45.7672L104.492 46.2072L104.675 47.6944H106.173H112.593H114.288V45.9999V27.9999C114.288 23.5472 112.946 19.9198 110.301 17.4164C107.67 14.9272 103.977 13.7653 99.6934 13.7653C95.3945 13.7653 91.6602 14.8875 88.9624 17.0371C86.2289 19.2151 84.6788 22.3604 84.6788 26.0799V27.7744H86.3734ZM105.633 41.6199C105.315 42.3921 104.822 43.1033 104.187 43.7349C102.306 45.6061 99.1874 46.7799 95.7334 46.7799C89.4334 46.7799 85.5934 43.1199 85.5934 37.5399C85.5934 32.0799 89.5534 28.6599 96.5734 28.1199L105.453 27.4599V26.7999C105.453 22.7799 103.053 21.1599 99.3334 21.1599C95.0134 21.1599 92.6134 22.9599 92.6134 26.0799H90.9188H88.068H86.3734C86.3734 25.4962 86.417 24.9308 86.5024 24.3853C87.3563 18.9309 92.3844 15.4599 99.6934 15.4599C107.673 15.4599 112.593 19.7799 112.593 27.9999V44.3053V45.9999H110.899H106.173L105.964 44.3054L105.633 41.6199ZM105.513 32.4399L103.819 32.5715L99.3334 32.9199C94.7734 33.3399 93.0334 34.8399 93.0334 37.2399C93.0334 39.9399 94.8334 41.2599 98.1334 41.2599C102.587 41.2599 105.454 38.615 105.512 34.1396C105.513 34.0932 105.513 34.0466 105.513 33.9999V32.4399ZM99.4771 34.6084L103.815 34.2715C103.761 36.0429 103.18 37.2994 102.331 38.124C101.431 38.9969 100.046 39.5653 98.1334 39.5653C96.6665 39.5653 95.8258 39.2649 95.383 38.9223C95.0181 38.6398 94.728 38.18 94.728 37.2399C94.728 36.5271 94.9459 36.0873 95.467 35.71C96.1055 35.2478 97.3158 34.8086 99.4771 34.6084ZM117.504 35.3053H115.81V36.9999C115.81 40.4024 117.196 43.3335 119.692 45.3822C122.158 47.4063 125.585 48.4744 129.564 48.4744C133.492 48.4744 136.991 47.4782 139.551 45.5144C142.153 43.5182 143.679 40.5941 143.679 37.0599C143.679 34.4434 142.943 32.271 141.314 30.6034C139.738 28.9889 137.501 28.0326 134.868 27.4293L134.863 27.428L129.537 26.1714L129.536 26.1711C128.401 25.9008 127.739 25.5648 127.385 25.2604C127.096 25.0118 126.999 24.7831 126.999 24.4599C126.999 23.8219 127.216 23.4509 127.546 23.1943C127.931 22.8944 128.656 22.6144 129.864 22.6144C130.953 22.6144 131.632 22.9227 132.03 23.29C132.418 23.6485 132.709 24.2192 132.73 25.1002L132.77 26.7544H134.424H141.384H143.097L143.079 25.0422C143.044 21.6942 141.703 18.8234 139.351 16.8119C137.019 14.8187 133.813 13.7653 130.164 13.7653C126.478 13.7653 123.144 14.7013 120.689 16.5822C118.19 18.4971 116.71 21.3171 116.71 24.7599C116.71 27.4581 117.456 29.7304 119.137 31.4885C120.773 33.1991 123.117 34.2349 125.944 34.8712L125.953 34.8732L131.275 36.1292L131.289 36.1323C132.468 36.4003 132.96 36.721 133.158 36.9221C133.294 37.0598 133.39 37.2327 133.39 37.6599C133.39 38.1813 133.2 38.5451 132.765 38.8445C132.258 39.1944 131.32 39.5053 129.804 39.5053C128.377 39.5053 127.474 39.1598 126.957 38.7452C126.48 38.3632 126.178 37.8046 126.159 36.9605L126.12 35.3053H124.464H117.504ZM129.144 27.8199L134.484 29.0799C139.464 30.2199 141.984 32.4999 141.984 37.0599C141.984 43.0599 136.884 46.7799 129.564 46.7799C122.925 46.7799 118.471 43.5751 117.644 38.6944C117.552 38.1497 117.504 37.5842 117.504 36.9999H119.199H124.464C124.524 39.5799 126.444 41.1999 129.804 41.1999C133.224 41.1999 135.084 39.8199 135.084 37.6599C135.084 36.1599 134.304 35.0799 131.664 34.4799L126.324 33.2199C120.984 32.0199 118.404 29.4999 118.404 24.7599C118.404 18.9399 123.324 15.4599 130.164 15.4599C136.148 15.4599 140.388 18.5591 141.231 23.3653C141.326 23.909 141.378 24.4745 141.384 25.0599H139.69H134.424C134.364 22.5399 132.684 20.9199 129.864 20.9199C126.984 20.9199 125.304 22.2399 125.304 24.4599C125.304 26.1399 126.624 27.2199 129.144 27.8199ZM167.658 14.6653H165.963V16.3599V31.8999C165.963 34.5464 165.434 36.1672 164.66 37.1099C163.943 37.9838 162.789 38.5453 160.818 38.5453C159.096 38.5453 158.079 38.0759 157.438 37.3085C156.743 36.4754 156.212 34.9684 156.212 32.3199V16.3599V14.6653H154.518H147.198H145.503V16.3599V34.8999C145.503 38.8318 146.594 42.2461 148.805 44.6972C151.035 47.1708 154.237 48.4744 158.058 48.4744C161.099 48.4744 164.142 47.4705 166.453 45.7423L166.519 46.2288L166.719 47.6944H168.198H174.978H176.672V45.9999V16.3599V14.6653H174.978H167.658ZM167.658 42.0399C167.259 42.6641 166.761 43.2443 166.184 43.7692C164.152 45.6158 161.141 46.7799 158.058 46.7799C151.218 46.7799 147.198 42.1599 147.198 34.8999V18.0544V16.3599H148.892H152.823H154.518V18.0544V32.3199C154.518 37.9599 156.738 40.2399 160.818 40.2399C165.438 40.2399 167.658 37.5399 167.658 31.8999V18.0544V16.3599H169.352H173.283H174.978V18.0544V44.3053V45.9999H173.283H168.198L167.977 44.379L167.658 42.0399ZM202.833 16.2399V14.9168L201.549 14.5959C200.223 14.2643 199.065 14.1253 197.898 14.1253C195.199 14.1253 192.891 14.9347 191.133 16.3342L191.125 16.2559L190.976 14.7253H189.438H182.538H180.844V16.4199V45.9999V47.6944H182.538H189.858H191.553V45.9999V31.5999C191.553 29.0425 192.278 27.3931 193.342 26.3726C194.417 25.3402 196.086 24.7144 198.438 24.7144H201.138H202.674C202.011 26.692 201.662 28.8662 201.662 31.1799C201.662 36.1559 203.343 40.4933 206.328 43.5971C209.318 46.7056 213.52 48.4744 218.357 48.4744C222.506 48.4744 226.158 47.4283 228.978 45.3943C231.816 43.3475 233.711 40.3699 234.42 36.7233L234.813 34.7053H232.757H225.977H224.714L224.353 35.9161C223.809 37.7415 222.082 39.0853 218.477 39.0853C216.357 39.0853 214.919 38.5162 213.952 37.5859C213.255 36.9162 212.69 35.9523 212.333 34.609L232.642 34.5544L234.332 34.5499V32.8599V30.6399C234.332 25.6753 232.811 21.4304 229.933 18.4148C227.046 15.3908 222.948 13.7653 218.117 13.7653C213.332 13.7653 209.184 15.5406 206.24 18.6715C204.761 20.2445 203.611 22.1322 202.833 24.26V23.0199V16.2399ZM189.858 20.7399C190.224 19.8871 190.721 19.1152 191.338 18.4489C192.85 16.8179 195.087 15.8199 197.898 15.8199C198.918 15.8199 199.938 15.9399 201.138 16.2399V21.3253V23.0199H199.444H198.438C193.158 23.0199 189.858 25.8399 189.858 31.5999V44.3053V45.9999H188.164H184.233H182.538V44.3053V18.1144V16.4199H184.233H189.438L189.582 17.8985L189.858 20.7399ZM210.317 32.9199C210.379 33.5184 210.47 34.0831 210.59 34.6137C211.518 38.7106 214.174 40.7799 218.477 40.7799C222.497 40.7799 225.137 39.2199 225.977 36.3999H231.026H232.757C232.643 36.9862 232.495 37.5514 232.315 38.0944C230.501 43.5537 225.397 46.7799 218.357 46.7799C209.537 46.7799 203.357 40.3599 203.357 31.1799C203.357 21.8799 209.417 15.4599 218.117 15.4599C226.997 15.4599 232.637 21.3999 232.637 30.6399V32.8599L212.021 32.9153L210.317 32.9199ZM212.217 28.2399H210.497C210.595 27.636 210.728 27.0709 210.897 26.5453C211.966 23.2066 214.445 21.4599 218.177 21.4599C221.918 21.4599 224.52 23.4291 225.201 26.5453C225.317 27.078 225.377 27.6442 225.377 28.2399H223.682H212.217ZM222.255 24.5508C222.794 25.0613 223.213 25.7259 223.453 26.5453H212.696C213.058 25.6389 213.543 24.9553 214.109 24.4547C215.021 23.6491 216.328 23.1544 218.177 23.1544C220.018 23.1544 221.373 23.7169 222.255 24.5508ZM245.815 47.6944H247.51V45.9999V29.1999C247.51 27.1344 248.11 25.8267 248.874 25.0424C249.64 24.2561 250.747 23.8144 252.115 23.8144C253.485 23.8144 254.42 24.2407 255.025 24.8968C255.646 25.5697 256.121 26.7013 256.121 28.4799V45.9999V47.6944H257.815H265.135H266.83V45.9999V29.1999C266.83 27.0789 267.415 25.7562 268.157 24.9739C268.894 24.1976 269.974 23.7544 271.375 23.7544C272.746 23.7544 273.695 24.1811 274.316 24.8525C274.951 25.54 275.441 26.7009 275.441 28.5399V45.9999V47.6944H277.135H284.395H286.09V45.9999V26.6199C286.09 22.8777 285.002 19.6191 282.728 17.2908C280.447 14.9558 277.178 13.7653 273.235 13.7653C269.299 13.7653 265.923 15.289 263.762 17.8909C261.696 15.321 258.563 13.7653 254.575 13.7653C251.451 13.7653 248.846 14.6915 246.902 16.1679L246.885 16.072L246.643 14.6653H245.215H238.495H236.801V16.3599V45.9999V47.6944H238.495H245.815ZM263.755 21.0999C264.028 20.4781 264.366 19.8959 264.764 19.3595C266.555 16.946 269.554 15.4599 273.235 15.4599C280.435 15.4599 284.395 19.7799 284.395 26.6199V44.3053V45.9999H282.701H278.83H277.135V44.3053V28.5399C277.135 24.2799 274.855 22.0599 271.375 22.0599C267.835 22.0599 265.135 24.3399 265.135 29.1999V44.3053V45.9999H263.441H259.51H257.815V44.3053V28.4799C257.815 24.3399 255.595 22.1199 252.115 22.1199C248.635 22.1199 245.815 24.3999 245.815 29.1999V44.3053V45.9999H244.121H240.19H238.495V44.3053V18.0544V16.3599H240.19H245.215L245.419 17.5393L245.815 19.8399C246.194 19.2185 246.669 18.6316 247.235 18.1014C248.911 16.5325 251.391 15.4599 254.575 15.4599C258.253 15.4599 261.009 16.9424 262.745 19.3508C263.133 19.8896 263.47 20.4747 263.755 21.0999ZM319.126 34.5544L320.816 34.5499V32.8599V30.6399C320.816 25.6753 319.296 21.4304 316.417 18.4148C313.531 15.3908 309.432 13.7653 304.601 13.7653C299.816 13.7653 295.669 15.5406 292.724 18.6715C289.787 21.7947 288.147 26.1589 288.147 31.1799C288.147 36.1559 289.827 40.4933 292.813 43.5971C295.802 46.7056 300.005 48.4744 304.841 48.4744C308.99 48.4744 312.642 47.4283 315.463 45.3943C318.301 43.3475 320.196 40.3699 320.905 36.7233L321.297 34.7053H319.241H312.461H311.198L310.837 35.9161C310.294 37.7415 308.566 39.0853 304.961 39.0853C302.841 39.0853 301.403 38.5162 300.436 37.5859C299.739 36.9162 299.175 35.9523 298.818 34.609L319.126 34.5544ZM296.801 32.9199C296.863 33.5184 296.954 34.0831 297.075 34.6137C298.002 38.7106 300.659 40.7799 304.961 40.7799C308.981 40.7799 311.621 39.2199 312.461 36.3999H317.511H319.241C319.127 36.9862 318.979 37.5514 318.799 38.0944C316.985 43.5537 311.881 46.7799 304.841 46.7799C296.021 46.7799 289.841 40.3599 289.841 31.1799C289.841 21.8799 295.901 15.4599 304.601 15.4599C313.481 15.4599 319.121 21.3999 319.121 30.6399V32.8599L298.505 32.9153L296.801 32.9199ZM298.701 28.2399H296.981C297.079 27.636 297.213 27.0709 297.381 26.5453C298.451 23.2066 300.929 21.4599 304.661 21.4599C308.402 21.4599 311.005 23.4291 311.685 26.5453C311.801 27.078 311.861 27.6442 311.861 28.2399H310.167H298.701ZM308.739 24.5508C309.279 25.0613 309.697 25.7259 309.937 26.5453H299.18C299.542 25.6389 300.027 24.9553 300.594 24.4547C301.505 23.6491 302.813 23.1544 304.661 23.1544C306.503 23.1544 307.858 23.7169 308.739 24.5508ZM332.3 47.6944H333.994V45.9999V30.0399C333.994 27.9573 334.59 26.4179 335.497 25.4187C336.387 24.4387 337.722 23.8144 339.56 23.8144C341.079 23.8144 342.134 24.2846 342.831 25.0687C343.554 25.881 344.105 27.2684 344.105 29.4999V45.9999V47.6944H345.8H353.12H354.814V45.9999V27.7599C354.814 23.6589 353.79 20.1255 351.533 17.6007C349.25 15.0454 345.923 13.7653 341.84 13.7653C338.74 13.7653 335.767 14.6965 333.491 16.464L333.434 16.0983L333.21 14.6653H331.76H324.98H323.285V16.3599V45.9999V47.6944H324.98H332.3ZM332.36 20.1999C332.762 19.5504 333.247 18.9601 333.799 18.4336C335.798 16.5281 338.69 15.4599 341.84 15.4599C349.28 15.4599 353.12 20.0799 353.12 27.7599V44.3053V45.9999H351.425H347.494H345.8V44.3053V29.4999C345.8 24.5199 343.34 22.1199 339.56 22.1199C335.06 22.1199 332.3 25.2399 332.3 30.0399V44.3053V45.9999H330.605H326.674H324.98V44.3053V18.0544V16.3599H326.674H331.76L331.995 17.8637L332.36 20.1999ZM370.392 47.6944H372.086V45.9999V24.1744H376.152H377.846V22.4799V16.3599V14.6653H376.152H372.086V7.11987V5.42531H370.392H363.072H361.377V7.11987V14.6653H357.372H355.677V16.3599V22.4799V24.1744H357.372H361.377V45.9999V47.6944H363.072H370.392ZM370.392 16.3599H372.086H374.457H376.152V18.0544V20.7853V22.4799H374.457H372.086H370.392V24.1744V44.3053V45.9999H368.697H364.766H363.072V44.3053V24.1744V22.4799H361.377H359.066H357.372V20.7853V18.0544V16.3599H359.066H361.377H363.072V14.6653V8.81443V7.11987H364.766H368.697H370.392V8.81443V14.6653V16.3599ZM1.86058 110H29.1006V102.92H9.54058V91.2799H27.0606V84.4999H9.54058V73.2199H29.1006V66.1399H1.86058V110ZM48.467 79.4599C40.127 79.4599 34.607 85.5199 34.607 94.8199C34.607 104.06 39.647 110.78 48.467 110.78C52.847 110.78 56.747 109.04 58.607 106.04V123.74H65.867V80.3599H59.147L58.667 84.8599C56.867 81.4399 52.967 79.4599 48.467 79.4599ZM50.147 104.18C45.047 104.18 41.927 100.46 41.927 95.1799C41.927 89.8999 45.047 86.1199 50.147 86.1199C55.247 86.1199 58.547 89.8399 58.547 95.1799C58.547 100.52 55.247 104.18 50.147 104.18ZM100.915 80.3599H93.5954V95.8999C93.5954 101.54 91.3754 104.24 86.7554 104.24C82.6754 104.24 80.4554 101.96 80.4554 96.3199V80.3599H73.1354V98.8999C73.1354 106.16 77.1554 110.78 83.9954 110.78C87.9554 110.78 91.7954 108.86 93.5954 106.04L94.1354 110H100.915V80.3599ZM107.636 69.9799C107.636 72.4399 109.616 74.4199 112.136 74.4199C114.536 74.4199 116.516 72.4399 116.516 69.9799C116.516 67.5199 114.536 65.5999 112.136 65.5999C109.616 65.5999 107.636 67.5199 107.636 69.9799ZM115.796 80.3599H108.476V110H115.796V80.3599ZM123.359 80.3599V123.74H130.679V106.04C132.539 109.04 136.379 110.78 140.819 110.78C149.639 110.78 154.679 104.06 154.679 94.8199C154.679 85.5199 149.159 79.4599 140.819 79.4599C136.319 79.4599 132.419 81.4399 130.619 84.8599L130.139 80.3599H123.359ZM139.079 104.18C134.039 104.18 130.739 100.52 130.739 95.1799C130.739 89.8399 134.039 86.1199 139.079 86.1199C144.239 86.1199 147.299 89.8999 147.299 95.1799C147.299 100.46 144.239 104.18 139.079 104.18ZM160.507 110H167.827V93.1999C167.827 88.3999 170.647 86.1199 174.127 86.1199C177.607 86.1199 179.827 88.3399 179.827 92.4799V110H187.147V93.1999C187.147 88.3399 189.847 86.0599 193.387 86.0599C196.867 86.0599 199.147 88.2799 199.147 92.5399V110H206.407V90.6199C206.407 83.7799 202.447 79.4599 195.247 79.4599C190.747 79.4599 187.267 81.6799 185.767 85.0999C184.207 81.6799 181.087 79.4599 176.587 79.4599C172.327 79.4599 169.327 81.3799 167.827 83.8399L167.227 80.3599H160.507V110ZM211.853 95.1799C211.853 104.36 218.033 110.78 226.853 110.78C234.593 110.78 239.993 106.88 241.253 100.4H234.473C233.633 103.22 230.993 104.78 226.973 104.78C222.113 104.78 219.353 102.14 218.813 96.9199L241.133 96.8599V94.6399C241.133 85.3999 235.493 79.4599 226.613 79.4599C217.913 79.4599 211.853 85.8799 211.853 95.1799ZM218.993 92.2399C219.713 87.7999 222.353 85.4599 226.673 85.4599C231.053 85.4599 233.873 88.1599 233.873 92.2399H218.993ZM246.992 110H254.312V94.0399C254.312 89.2399 257.072 86.1199 261.572 86.1199C265.352 86.1199 267.812 88.5199 267.812 93.4999V110H275.132V91.7599C275.132 84.0799 271.292 79.4599 263.852 79.4599C259.832 79.4599 256.232 81.1999 254.372 84.1999L253.772 80.3599H246.992V110ZM285.084 110H292.404V86.4799H298.164V80.3599H292.404V71.1199H285.084V80.3599H279.384V86.4799H285.084V110Z" fill="white"/>
</svg>
