<svg width="283" height="126" viewBox="0 0 283 126" fill="none" xmlns="http://www.w3.org/2000/svg">
<path d="M8.64016 111.001H0.660156L16.5002 67.1413H24.3602L40.2002 111.001H32.1002L28.5602 100.861H12.1802L8.64016 111.001ZM19.4402 80.2213L14.4602 94.3813H26.3402L21.3002 80.2213C20.9402 79.0813 20.5202 77.7613 20.4002 76.8613C20.2202 77.7013 19.8602 79.0213 19.4402 80.2213Z" fill="white"/>
<path d="M51.4 111.001H44.62V66.3613H51.94V85.6813C53.86 82.3813 57.82 80.4013 62.32 80.4013C70.78 80.4013 75.94 87.0013 75.94 96.3613C75.94 105.481 70.36 111.781 61.84 111.781C57.4 111.781 53.62 109.801 51.88 106.381L51.4 111.001ZM52 96.0613C52 101.401 55.3 105.061 60.34 105.061C65.5 105.061 68.56 101.341 68.56 96.0613C68.56 90.7813 65.5 87.0013 60.34 87.0013C55.3 87.0013 52 90.7213 52 96.0613Z" fill="white"/>
<path d="M80.0284 96.1213C80.0284 86.8813 86.6884 80.5213 95.8684 80.5213C105.048 80.5213 111.708 86.8813 111.708 96.1213C111.708 105.361 105.048 111.721 95.8684 111.721C86.6884 111.721 80.0284 105.361 80.0284 96.1213ZM87.3484 96.1213C87.3484 101.521 90.8284 105.181 95.8684 105.181C100.908 105.181 104.388 101.521 104.388 96.1213C104.388 90.7213 100.908 87.0613 95.8684 87.0613C90.8284 87.0613 87.3484 90.7213 87.3484 96.1213Z" fill="white"/>
<path d="M115.831 95.5213C115.831 86.8813 121.471 80.4013 129.931 80.4013C134.371 80.4013 137.851 82.2613 139.591 85.4413L140.011 81.3613H146.791V109.501C146.791 119.401 140.851 125.581 131.251 125.581C122.731 125.581 116.911 120.721 116.011 112.801H123.331C123.811 116.641 126.751 118.921 131.251 118.921C136.291 118.921 139.531 115.741 139.531 110.821V105.901C137.671 108.661 134.011 110.401 129.751 110.401C121.351 110.401 115.831 104.101 115.831 95.5213ZM123.211 95.3413C123.211 100.321 126.391 104.041 131.191 104.041C136.231 104.041 139.351 100.501 139.351 95.3413C139.351 90.3013 136.291 86.8213 131.191 86.8213C126.331 86.8213 123.211 90.4813 123.211 95.3413Z" fill="white"/>
<path d="M163.186 111.781C156.886 111.781 153.046 108.121 153.046 102.541C153.046 97.0813 157.006 93.6613 164.026 93.1213L172.906 92.4613V91.8013C172.906 87.7813 170.506 86.1613 166.786 86.1613C162.466 86.1613 160.066 87.9613 160.066 91.0813H153.826C153.826 84.6613 159.106 80.4613 167.146 80.4613C175.126 80.4613 180.046 84.7813 180.046 93.0013V111.001H173.626L173.086 106.621C171.826 109.681 167.806 111.781 163.186 111.781ZM165.586 106.261C170.086 106.261 172.966 103.561 172.966 99.0013V97.4413L166.786 97.9213C162.226 98.3413 160.486 99.8413 160.486 102.241C160.486 104.941 162.286 106.261 165.586 106.261Z" fill="white"/>
<path d="M199.417 111.781C190.837 111.781 185.497 105.481 185.497 96.3013C185.497 87.0613 190.897 80.4613 199.837 80.4613C203.977 80.4613 207.637 82.2013 209.497 85.1413V66.3613H216.757V111.001H210.037L209.557 106.381C207.757 109.801 203.917 111.781 199.417 111.781ZM201.037 105.061C206.137 105.061 209.437 101.401 209.437 96.0613C209.437 90.7213 206.137 87.0013 201.037 87.0013C195.937 87.0013 192.817 90.7813 192.817 96.0613C192.817 101.341 195.937 105.061 201.037 105.061Z" fill="white"/>
<path d="M222.646 96.1213C222.646 86.8813 229.306 80.5213 238.486 80.5213C247.666 80.5213 254.326 86.8813 254.326 96.1213C254.326 105.361 247.666 111.721 238.486 111.721C229.306 111.721 222.646 105.361 222.646 96.1213ZM229.966 96.1213C229.966 101.521 233.446 105.181 238.486 105.181C243.526 105.181 247.006 101.521 247.006 96.1213C247.006 90.7213 243.526 87.0613 238.486 87.0613C233.446 87.0613 229.966 90.7213 229.966 96.1213Z" fill="white"/>
<path d="M257.848 102.001H264.808C264.868 104.581 266.788 106.201 270.148 106.201C273.568 106.201 275.428 104.821 275.428 102.661C275.428 101.161 274.648 100.081 272.008 99.4813L266.668 98.2213C261.328 97.0213 258.748 94.5013 258.748 89.7613C258.748 83.9413 263.668 80.4613 270.508 80.4613C277.168 80.4613 281.668 84.3013 281.728 90.0613H274.768C274.708 87.5413 273.028 85.9213 270.208 85.9213C267.328 85.9213 265.648 87.2413 265.648 89.4613C265.648 91.1413 266.968 92.2213 269.488 92.8213L274.828 94.0813C279.808 95.2213 282.328 97.5013 282.328 102.061C282.328 108.061 277.228 111.781 269.908 111.781C262.528 111.781 257.848 107.821 257.848 102.001Z" fill="white"/>
<path fill-rule="evenodd" clip-rule="evenodd" d="M14.2351 48.6951H3.16602V1.44602H21.6006C26.8473 1.44602 31.2353 2.77327 34.3354 5.46002C37.4691 8.17589 39.0751 12.0981 39.0751 16.8206C39.0751 20.0292 38.3198 22.8845 36.7751 25.2536C35.5301 27.163 33.8165 28.6887 31.7067 29.8176L40.4533 48.6951H28.3091L20.8691 32.3151H14.2351V48.6951ZM21.9606 30.6206L29.4006 47.0006H37.8006L29.4606 29.0006C29.9289 28.81 30.3774 28.6021 30.8059 28.3773C35.0988 26.1244 37.3806 22.1669 37.3806 16.8206C37.3806 8.18058 31.5606 3.14058 21.6006 3.14058H4.86058V47.0006H12.5406V30.6206H21.9606ZM12.5406 23.8406V9.98058H21.6006C26.4606 9.98058 29.3406 12.4406 29.3406 16.8206C29.3406 21.2606 26.4606 23.8406 21.6006 23.8406H12.5406ZM14.2351 11.6751V22.146H21.6006C23.7449 22.146 25.2277 21.5783 26.1567 20.7385C27.0622 19.92 27.646 18.6593 27.646 16.8206C27.646 15.0212 27.0691 13.8144 26.1767 13.0329C25.2517 12.2229 23.7641 11.6751 21.6006 11.6751H14.2351ZM74.6426 16.8951H63.6001L63.5232 15.2812C63.4528 13.8024 62.9107 12.7717 62.0859 12.0868C61.2328 11.3784 59.899 10.8951 58.0159 10.8951C55.8951 10.8951 54.341 11.4075 53.3611 12.1492C52.4296 12.8543 51.9104 13.8378 51.9104 15.1406C51.9104 16.3765 52.232 17.138 52.7459 17.6826C53.3002 18.2701 54.2661 18.8048 55.9257 19.1868L62.8137 20.6842C62.8141 20.6843 62.8145 20.6844 62.8149 20.6845C66.7572 21.5362 69.914 23.0165 72.0858 25.3378C74.2905 27.6943 75.3105 30.7346 75.3105 34.3406C75.3105 38.8967 73.5173 42.7423 70.3156 45.4204C67.1436 48.0737 62.722 49.4751 57.5959 49.4751C52.6283 49.4751 48.3471 48.1533 45.2503 45.6196C42.1235 43.0613 40.3424 39.3755 40.2418 34.9794L40.2021 33.246H51.2833L51.3102 34.9132C51.3321 36.2704 51.8626 37.2532 52.7942 37.9455C53.7818 38.6794 55.3646 39.186 57.5959 39.186C59.9288 39.186 61.6352 38.6743 62.7071 37.9245C63.7171 37.218 64.2413 36.2584 64.2413 35.0006C64.2413 33.8303 63.9511 33.1122 63.4867 32.6056C62.9897 32.0635 62.0957 31.5474 60.4771 31.1967L60.4653 31.1942L53.5154 29.6363C53.5135 29.6359 53.5117 29.6355 53.5099 29.6351C49.5627 28.7749 46.3689 27.1745 44.1588 24.7294C41.9266 22.26 40.8413 19.0871 40.8413 15.3806C40.8413 11.0362 42.6557 7.30595 45.784 4.69053C48.8898 2.09382 53.1982 0.666016 58.1359 0.666016C62.881 0.666016 66.9399 1.98279 69.8686 4.5325C72.8173 7.0996 74.4572 10.7767 74.5897 15.1492L74.6426 16.8951ZM53.8759 27.9806L60.8359 29.5406C64.4359 30.3206 65.9359 32.0606 65.9359 35.0006C65.9359 38.6606 62.6959 40.8806 57.5959 40.8806C52.6759 40.8806 49.6759 38.6606 49.6159 34.9406H41.9359C41.9492 35.5214 41.9949 36.0866 42.072 36.6351C43.0381 43.5094 48.9276 47.7806 57.5959 47.7806C67.2559 47.7806 73.6159 42.5006 73.6159 34.3406C73.6159 27.8006 69.9559 23.9606 62.4559 22.3406L55.5559 20.8406C51.8959 20.0006 50.2159 18.2606 50.2159 15.1406C50.2159 11.4806 53.2759 9.20057 58.0159 9.20057C62.3359 9.20057 65.0359 11.4206 65.2159 15.2006H72.8959C72.8783 14.6193 72.8316 14.0542 72.7566 13.506C71.8106 6.5849 66.3642 2.36058 58.1359 2.36058C48.8959 2.36058 42.5359 7.70058 42.5359 15.3806C42.5359 22.1006 46.4359 26.3606 53.8759 27.9806Z" fill="white"/>
</svg>
