<svg width="289" height="112" viewBox="0 0 289 112" fill="none" xmlns="http://www.w3.org/2000/svg">
<path fill-rule="evenodd" clip-rule="evenodd" d="M27.8595 30.7551H29.5541V29.0606V22.1606V20.466H27.8595H13.2341V11.9151H30.9795H32.6741V10.2206V3.14058V1.44602H30.9795H3.85953H2.16497V3.14058V47.0006V48.6951H3.85953H11.5395H13.2341V47.0006V30.7551H27.8595ZM11.5395 22.1606H13.2341H26.165H27.8595V23.8551V27.366V29.0606H26.165H13.2341H11.5395V30.7551V45.306V47.0006H9.84497H5.55409H3.85953V45.306V4.83514V3.14058H5.55409H29.285H30.9795V4.83514V8.52601V10.2206H29.285H13.2341H11.5395V11.9151V20.466V22.1606ZM55.1061 15.666H53.4115V17.3606V32.9006C53.4115 35.5471 52.8823 37.1679 52.1087 38.1106C51.3914 38.9845 50.237 39.546 48.2661 39.546C46.5437 39.546 45.5276 39.0766 44.8866 38.3092C44.1908 37.4761 43.6607 35.9691 43.6607 33.3206V17.3606V15.666H41.9661H34.6461H32.9515V17.3606V35.9006C32.9515 39.8325 34.0422 43.2468 36.2527 45.6979C38.4834 48.1715 41.6853 49.4751 45.5061 49.4751C48.547 49.4751 51.5906 48.4712 53.9007 46.743L53.9671 47.2295L54.1669 48.6951H55.6461H62.4261H64.1207V47.0006V17.3606V15.666H62.4261H55.1061ZM55.1061 43.0406C54.7076 43.6648 54.2092 44.245 53.6317 44.7699C51.6002 46.6165 48.5895 47.7806 45.5061 47.7806C38.6661 47.7806 34.6461 43.1606 34.6461 35.9006V19.0551V17.3606H36.3407H40.2715H41.9661V19.0551V33.3206C41.9661 38.9606 44.1861 41.2406 48.2661 41.2406C52.8861 41.2406 55.1061 38.5406 55.1061 32.9006V19.0551V17.3606H56.8007H60.7315H62.4261V19.0551V45.306V47.0006H60.7315H55.6461L55.4251 45.3797L55.1061 43.0406ZM77.3066 48.6951H79.0011V47.0006V31.0406C79.0011 28.958 79.597 27.4186 80.5039 26.4194C81.3934 25.4394 82.7286 24.8151 84.5666 24.8151C86.0863 24.8151 87.1405 25.2853 87.838 26.0694C88.5606 26.8817 89.112 28.2691 89.112 30.5006V47.0006V48.6951H90.8066H98.1266H99.8211V47.0006V28.7606C99.8211 24.6596 98.7963 21.1262 96.5401 18.6014C94.2567 16.0461 90.9293 14.766 86.8466 14.766C83.7467 14.766 80.7741 15.6972 78.498 17.4647L78.4408 17.099L78.2169 15.666H76.7666H69.9866H68.292V17.3606V47.0006V48.6951H69.9866H77.3066ZM77.3666 21.2006C77.7692 20.5512 78.2534 19.9608 78.8057 19.4343C80.8049 17.5288 83.6968 16.4606 86.8466 16.4606C94.2866 16.4606 98.1266 21.0806 98.1266 28.7606V45.306V47.0006H96.432H92.5011H90.8066V45.306V30.5006C90.8066 25.5206 88.3466 23.1206 84.5666 23.1206C80.0666 23.1206 77.3066 26.2406 77.3066 31.0406V45.306V47.0006H75.612H71.6811H69.9866V45.306V19.0551V17.3606H71.6811H76.7666L77.0015 18.8645L77.3666 21.2006ZM127.579 0.666016H125.884V2.36058V17.0542C123.655 15.5557 120.848 14.766 117.919 14.766C113.003 14.766 108.939 16.5959 106.124 19.7963C103.33 22.9727 101.884 27.3594 101.884 32.3006C101.884 37.2111 103.314 41.5102 106.052 44.6056C108.809 47.7233 112.767 49.4751 117.499 49.4751C120.861 49.4751 124.012 48.468 126.368 46.5459L126.433 47.1757L126.591 48.6951H128.119H134.839H136.533V47.0006V2.36058V0.666016H134.839H127.579ZM127.579 21.1406V18.4461V4.05514V2.36058H129.273H133.144H134.839V4.05514V45.306V47.0006H133.144H128.119L127.912 45.0126L127.639 42.3806C127.238 43.1416 126.737 43.8312 126.149 44.4437C124.097 46.5837 120.997 47.7806 117.499 47.7806C108.919 47.7806 103.579 41.4806 103.579 32.3006C103.579 23.0606 108.979 16.4606 117.919 16.4606C121.033 16.4606 123.875 17.445 125.884 19.184C126.546 19.757 127.118 20.4119 127.579 21.1406ZM125.824 32.0606C125.824 34.3833 125.11 36.1972 123.987 37.413C122.875 38.6154 121.243 39.366 119.119 39.366C117.007 39.366 115.428 38.6102 114.361 37.4129C113.274 36.1942 112.593 34.3741 112.593 32.0606C112.593 29.7464 113.275 27.9079 114.366 26.6723C115.437 25.4595 117.016 24.6951 119.119 24.6951C121.234 24.6951 122.866 25.4545 123.981 26.6723C125.11 27.9048 125.824 29.7371 125.824 32.0606ZM152.001 27.4307L151.997 27.431C151.261 27.4876 150.549 27.5745 149.862 27.6922V27.0806C149.862 26.0096 150.244 25.3072 150.912 24.8148C151.654 24.2685 152.928 23.8551 154.887 23.8551C156.538 23.8551 157.606 24.2197 158.243 24.7629C158.712 25.1625 159.115 25.8017 159.257 26.8914L152.001 27.4307ZM141.927 28.7751H146.059C144.869 29.2788 143.809 29.9191 142.9 30.7004C140.626 32.6547 139.452 35.3603 139.452 38.5406C139.452 41.7358 140.563 44.5219 142.705 46.4985C144.834 48.4623 147.813 49.4751 151.287 49.4751C154.527 49.4751 157.712 48.5199 159.991 46.7679L160.045 47.2079L160.229 48.6951H161.727H168.147H169.842V47.0006V29.0006C169.842 24.548 168.5 20.9205 165.854 18.4171C163.223 15.928 159.53 14.766 155.247 14.766C150.948 14.766 147.214 15.8882 144.516 18.0378C141.782 20.2158 140.232 23.3611 140.232 27.0806V28.7751H141.927ZM161.187 42.6206C160.869 43.3928 160.375 44.104 159.74 44.7356C157.86 46.6068 154.741 47.7806 151.287 47.7806C144.987 47.7806 141.147 44.1206 141.147 38.5406C141.147 33.0806 145.107 29.6606 152.127 29.1206L161.007 28.4606V27.8006C161.007 23.7806 158.607 22.1606 154.887 22.1606C150.567 22.1606 148.167 23.9606 148.167 27.0806H146.472H143.622H141.927C141.927 26.4969 141.971 25.9315 142.056 25.386C142.91 19.9316 147.938 16.4606 155.247 16.4606C163.227 16.4606 168.147 20.7806 168.147 29.0006V45.306V47.0006H166.452H161.727L161.518 45.3061L161.187 42.6206ZM161.067 33.4406L159.372 33.5722L154.887 33.9206C150.327 34.3406 148.587 35.8406 148.587 38.2406C148.587 40.9406 150.387 42.2606 153.687 42.2606C158.141 42.2606 161.008 39.6157 161.066 35.1403C161.067 35.0939 161.067 35.0473 161.067 35.0006V33.4406ZM155.042 35.608L159.368 35.2722C159.315 37.0436 158.734 38.3001 157.884 39.1247C156.985 39.9976 155.6 40.566 153.687 40.566C152.22 40.566 151.379 40.2656 150.937 39.923C150.572 39.6405 150.282 39.1807 150.282 38.2406C150.282 37.5278 150.5 37.088 151.021 36.7107C151.659 36.2485 152.869 35.8093 155.031 35.6091L155.042 35.608ZM202.818 29.7951H204.708L204.503 27.9166C204.068 23.9346 202.292 20.605 199.43 18.2864C196.583 15.9796 192.779 14.766 188.418 14.766C183.602 14.766 179.441 16.5571 176.49 19.6854C173.547 22.806 171.904 27.1545 171.904 32.1206C171.904 37.184 173.489 41.5428 176.433 44.6489C179.386 47.7639 183.571 49.4751 188.478 49.4751C196.952 49.4751 203.534 44.2152 204.558 36.3597L204.808 34.446H202.878H195.498H194.163L193.851 35.744C193.548 37.0011 192.924 37.8972 192.085 38.4955C191.23 39.1047 190.034 39.486 188.478 39.486C186.592 39.486 185.198 38.8036 184.245 37.6589C183.262 36.4778 182.613 34.6362 182.613 32.1206C182.613 29.6369 183.305 27.7816 184.346 26.5749C185.367 25.3921 186.835 24.6951 188.718 24.6951C190.176 24.6951 191.286 25.0574 192.09 25.6526C192.884 26.2406 193.515 27.1548 193.854 28.5116L194.175 29.7951H195.498H202.818ZM188.478 47.7806C195.567 47.7806 200.995 43.8048 202.549 37.8351C202.692 37.2866 202.802 36.7212 202.878 36.1406H201.167H195.498C194.718 39.3806 192.138 41.1806 188.478 41.1806C183.798 41.1806 180.918 37.7006 180.918 32.1206C180.918 26.5406 184.038 23.0006 188.718 23.0006C192.198 23.0006 194.658 24.7406 195.498 28.1006H201.112H202.818C202.754 27.5178 202.659 26.9526 202.534 26.406C201.12 20.256 195.857 16.4606 188.418 16.4606C179.658 16.4606 173.598 22.9406 173.598 32.1206C173.598 41.5406 179.478 47.7806 188.478 47.7806ZM206.632 47.0006V48.6951H208.326H215.646H217.341V47.0006V17.3606V15.666H215.646H208.326H206.632V17.3606V47.0006ZM205.792 6.98057C205.792 10.3913 208.545 13.1151 211.986 13.1151C215.337 13.1151 218.061 10.3614 218.061 6.98057C218.061 3.56959 215.307 0.906016 211.986 0.906016C208.576 0.906016 205.792 3.54001 205.792 6.98057ZM247.362 5.87614L249.104 3.24601H245.949H239.169H238.128L237.658 4.17459L233.158 13.0546L231.911 15.5151H232.06C229.243 16.2895 226.756 17.6975 224.763 19.6429C221.6 22.7302 219.775 27.0787 219.775 32.1206C219.775 37.1624 221.6 41.5109 224.763 44.5983C227.922 47.6816 232.321 49.4151 237.309 49.4151C242.298 49.4151 246.696 47.6816 249.855 44.5983C253.019 41.5109 254.844 37.1624 254.844 32.1206C254.844 27.0787 253.019 22.7302 249.855 19.6429C247.545 17.3884 244.573 15.8556 241.192 15.1944L241.482 14.7561L247.362 5.87614ZM243.917 4.94058H245.949L244.827 6.63514L240.069 13.8206H236.569H234.669L235.528 12.126L239.169 4.94058H243.917ZM237.309 39.486C235.217 39.486 233.546 38.736 232.392 37.5127C231.231 36.2818 230.484 34.4537 230.484 32.1206C230.484 29.7874 231.231 27.9593 232.392 26.7284C233.546 25.5051 235.217 24.7551 237.309 24.7551C239.402 24.7551 241.073 25.5051 242.227 26.7284C243.388 27.9593 244.135 29.7874 244.135 32.1206C244.135 34.4537 243.388 36.2818 242.227 37.5127C241.073 38.736 239.402 39.486 237.309 39.486ZM266.271 48.6951H267.966V47.0006V31.0406C267.966 28.958 268.562 27.4186 269.469 26.4194C270.358 25.4394 271.693 24.8151 273.531 24.8151C275.051 24.8151 276.105 25.2853 276.803 26.0694C277.525 26.8817 278.077 28.2691 278.077 30.5006V47.0006V48.6951H279.771H287.091H288.786V47.0006V28.7606C288.786 24.6596 287.761 21.1262 285.505 18.6014C283.222 16.0461 279.894 14.766 275.811 14.766C272.712 14.766 269.739 15.6972 267.463 17.4647L267.406 17.099L267.182 15.666H265.731H258.951H257.257V17.3606V47.0006V48.6951H258.951H266.271ZM266.331 21.2006C266.734 20.5512 267.218 19.9608 267.771 19.4343C269.77 17.5288 272.662 16.4606 275.811 16.4606C283.251 16.4606 287.091 21.0806 287.091 28.7606V45.306V47.0006H285.397H281.466H279.771V45.306V30.5006C279.771 25.5206 277.311 23.1206 273.531 23.1206C269.031 23.1206 266.271 26.2406 266.271 31.0406V45.306V47.0006H264.577H260.646H258.951V45.306V19.0551V17.3606H260.646H265.731L265.966 18.8645L266.331 21.2006ZM119.119 41.0606C124.219 41.0606 127.519 37.4006 127.519 32.0606C127.519 26.7206 124.219 23.0006 119.119 23.0006C114.019 23.0006 110.899 26.7806 110.899 32.0606C110.899 37.3406 114.019 41.0606 119.119 41.0606ZM211.986 11.4206C209.466 11.4206 207.486 9.44057 207.486 6.98057C207.486 4.52058 209.466 2.60058 211.986 2.60058C214.386 2.60058 216.366 4.52058 216.366 6.98057C216.366 9.44057 214.386 11.4206 211.986 11.4206ZM208.326 47.0006V45.306V19.0551V17.3606H210.021H213.952H215.646V19.0551V45.306V47.0006H213.952H210.021H208.326ZM221.469 32.1206C221.469 22.8806 228.129 16.5206 237.309 16.5206C246.489 16.5206 253.149 22.8806 253.149 32.1206C253.149 41.3606 246.489 47.7206 237.309 47.7206C228.129 47.7206 221.469 41.3606 221.469 32.1206ZM228.789 32.1206C228.789 37.5206 232.269 41.1806 237.309 41.1806C242.349 41.1806 245.829 37.5206 245.829 32.1206C245.829 26.7206 242.349 23.0606 237.309 23.0606C232.269 23.0606 228.789 26.7206 228.789 32.1206ZM0.319531 67.1406L14.8995 89.1006L0.0195312 111.001H9.01953L19.6995 94.9806C21.4395 98.1606 22.9995 100.801 24.9195 103.741L29.8395 111.001H38.8995L24.4995 89.0406L38.8395 67.1406H29.8995L19.6995 83.2206C18.0795 80.2206 16.5795 77.7006 14.7795 75.0006L9.43953 67.1406H0.319531ZM39.8286 96.1806C39.8286 105.361 46.0086 111.781 54.8286 111.781C62.5686 111.781 67.9686 107.881 69.2286 101.401H62.4486C61.6086 104.221 58.9686 105.781 54.9486 105.781C50.0886 105.781 47.3286 103.141 46.7886 97.9206L69.1086 97.8606V95.6406C69.1086 86.4006 63.4686 80.4606 54.5886 80.4606C45.8886 80.4606 39.8286 86.8806 39.8286 96.1806ZM46.9686 93.2406C47.6886 88.8006 50.3286 86.4606 54.6486 86.4606C59.0286 86.4606 61.8486 89.1606 61.8486 93.2406H46.9686ZM74.967 111.001H82.287V94.2006C82.287 89.4006 85.107 87.1206 88.587 87.1206C92.067 87.1206 94.287 89.3406 94.287 93.4806V111.001H101.607V94.2006C101.607 89.3406 104.307 87.0606 107.847 87.0606C111.327 87.0606 113.607 89.2806 113.607 93.5406V111.001H120.867V91.6206C120.867 84.7806 116.907 80.4606 109.707 80.4606C105.207 80.4606 101.727 82.6806 100.227 86.1006C98.667 82.6806 95.547 80.4606 91.047 80.4606C86.787 80.4606 83.787 82.3806 82.287 84.8406L81.687 81.3606H74.967V111.001ZM127.213 70.9806C127.213 73.4406 129.193 75.4206 131.713 75.4206C134.113 75.4206 136.093 73.4406 136.093 70.9806C136.093 68.5206 134.113 66.6006 131.713 66.6006C129.193 66.6006 127.213 68.5206 127.213 70.9806ZM142.936 111.001H150.256V95.0406C150.256 90.2406 153.016 87.1206 157.516 87.1206C161.296 87.1206 163.756 89.5206 163.756 94.5006V111.001H171.076V92.7606C171.076 85.0806 167.236 80.4606 159.796 80.4606C155.776 80.4606 152.176 82.2006 150.316 85.2006L149.716 81.3606H142.936V111.001ZM177.428 70.9806C177.428 73.4406 179.408 75.4206 181.928 75.4206C184.328 75.4206 186.308 73.4406 186.308 70.9806C186.308 68.5206 184.328 66.6006 181.928 66.6006C179.408 66.6006 177.428 68.5206 177.428 70.9806ZM128.053 81.3606V111.001H135.373V81.3606H128.053ZM197.831 102.001H190.871C190.871 107.821 195.551 111.781 202.931 111.781C210.251 111.781 215.351 108.061 215.351 102.061C215.351 97.5006 212.831 95.2206 207.851 94.0806L202.511 92.8206C199.991 92.2206 198.671 91.1406 198.671 89.4606C198.671 87.2406 200.351 85.9206 203.231 85.9206C206.051 85.9206 207.731 87.5406 207.791 90.0606H214.751C214.691 84.3006 210.191 80.4606 203.531 80.4606C196.691 80.4606 191.771 83.9406 191.771 89.7606C191.771 94.5006 194.351 97.0206 199.691 98.2206L205.031 99.4806C207.671 100.081 208.451 101.161 208.451 102.661C208.451 104.821 206.591 106.201 203.171 106.201C199.811 106.201 197.891 104.581 197.831 102.001ZM178.268 81.3606V111.001H185.588V81.3606H178.268Z" fill="white"/>
</svg>
